<mxfile host="app.diagrams.net" modified="2021-06-10T07:56:01.146Z" agent="5.0 (Windows NT 6.2; Win64; x64) AppleWebKit/537.36 (KHTML, like Gecko) Chrome/83.0.4103.61 Safari/537.36" etag="7oA8X91opWGgDssTWtvn" version="14.7.7" type="github">
  <diagram id="39XWOFqud2fF1PxJeVxk" name="Page-1">
    <mxGraphModel dx="2860" dy="982" grid="1" gridSize="50" guides="1" tooltips="1" connect="1" arrows="1" fold="1" page="0" pageScale="1" pageWidth="827" pageHeight="1169" math="0" shadow="0">
      <root>
        <mxCell id="0" />
        <mxCell id="1" parent="0" />
        <mxCell id="zN3dS1CjCpttCag88YV--2" value="" style="shape=image;verticalLabelPosition=bottom;labelBackgroundColor=#ffffff;verticalAlign=top;aspect=fixed;imageAspect=0;image=data:image/png,iVBORw0KGgoAAAANSUhEUgAAAioAAAE2CAYAAABPzLnOAAAgAElEQVR4AexdB3gVx9V9SQwYp/xxS7ETlyRu2EjYcey422Diim1MNb13RBO99256771XCVDvvfcuIYRQByEhUSXO/5272qfV05NQJTje0bfa2dmZ2dm783bO3HvurCH4u9HArVLoQZeALgFdAroEdAnoEtAl8KBJwHDY8CzsLL5DflSStI2Q5e6D1kq9PboEdAnoEtAloEtAl8DPUgKGU81exxHD33HqTx8hw8nfKITagZXa5TZeRI/oEtAloEtAl4AuAV0CugSqkYDhVNM3cLrpGzhmeAlHH7FEyu5Txux3q8Efd++W4s7t4jL9SzUZjbXpEV0CugR0CegS0CWgS0CXQO0kYDjV9HUo2xs4aXgZhw3/QNTcjcZaqoIgJSU3UVSYZsynR3QJ6BLQJaBLQJeALgFdAg0tAdGoUKtCsHKaoOUXLXDI8BwCh8xC6e07cr27d++Cf9pQWnID13WgohWJHtcloEtAl4AuAV0CugQaWAJlQIValVaynW5qCZtfvYqjhr/Cq90Q3My7IpckTNGaghSgcrGsORVBTAO3Ua9Ol4AuAV0CugR0CegS+JlKoDJQaWIJm6aWOPuQBY4b/grnN9qjMDZZxKN1Yi4tuYXC/GSUlipal5+p/PTb1iWgS0CXgC4BXQK6BBpRAhVMP9SqnBagYoEzTVvJdsrwHOyf+Ri5HkEVmnH3bgkuZwXgQuwe3L6Vr5wTxYquXakgKP1Al4AuAV0CugR0CegSqLMENECFPBUFqNg2JVCxlO1cM0vYGv6BM799A2n7zxgvRN5Kfk4oYjwnIyFoOW4UZyrntPYhY249oktAl4AuAV0CugQeXAkIF5N8TH1rFBnU58lrvH4Ungo1KlqgYtfMAva/toTdL16E7a9eROLyrcbr5WcHIc53NiJcxyDOdx6K8hON5/SILgFdAroEdAnoEvipSEAHKI0L0urTD+6pUSFQsWtuCYfmFnD8VQvYGp5FpNUclN65jYLCWMR6z0aM50REuY1DlMdUXMkKqsi6rU/r9LK6BHQJ6BLQJaBL4D5IoCqgYnrpqvLp6dUDHVM51ubYCFRON3kDNk3oolyuUTnb1BJ2D1vC7hEClZZwbt4Kzk1fxTnDXxDUcTguX/BBQuACxLhPRLTHVEQ4j0aU2wxcL9B6A+mcldo8ED2vLgFdAroEdAncfwmYAo2atOBuafWDs7ZOtT5tmmlczaPuTc+rxzyvxmuyv1d9NamjvnnUNtRlbzT9nCZIadKqAlAhT0ULVJyaW8K5uSVcm7aEg+FZBAzqhTiPmYjxnIpIF2vEeM9HSuhm5GWoS/ETpOhApS4PRi+jS0CXgC4BXQL3RwKkVpbgLkpLy31br+VcRvTWo3DqOR6nW/eGTeteOPPVAARMWYmL3iHGhpUYOS2lKEEpSo3HFUFMRHgEkhOVb+px0GfQDv48LiwshJ+fH06cOIHY2NhKedRycqKsvBrnXlufGmd6bk6u1K2m/Tf22nbWNl6mUSFI4WYpQEUl0nJ/jhqV5haiUSFQ4eba7DW4/OY1+LRtg+gz1oj2nYYE/+VIjd6LcKfxyE51KWuHDlJq+0D0/LoEdAnoEtAlcH8lQHhypww8EGiErd6FQ0+/j02Gx7DV8DQOGl7EYcOL2GP4OzYZnsAuw99x7rthyI4u+5jvXaBUNoKT0kqAgXczacJEWLzWEnl5ecabUwEDExISEnD06FGEhIQgPDwcc+bMwcWLinVCm+/69euYOHEiLly4IPXcuXMHHh4euHnzphyreblnyM/Px7/++SZmzpxpPM+INt/9iMvF6/ivDKjQ24faFIsKRNqzTS3KgIpq+inTqDxsAZfftIRvu88Q4zgJoTuHIc5uCaK8piPEbjhyLnjUsTl6MV0CugR0CegS0CVwfyVAcMJw6+ZN2Pe0xmbD49hjeBku/acg5Ywbzn3SB/t/8QLiVx9A2Lp9OPpaO2xjniffRqqzn5QtuasO/uVARXsXo61G4Ve/+CX69u2LiRMm4ODBg8bTBBnz5s2Do6OjgA5bW1v4+PjgwIEDkkcFEjzYtWsX2rRpg6ioKFy+fBnbtm3D4sWLUVJSUikvE0YOHwGDwYDPP/9czqv/CHBUDRLrZ3nuTYN6bXPnmFctq5Zjndoyalw9X5d99UClmSXONadGpSJQcRGNigJUQpf0RfDKfoh0sEaEszVC7UYiWwcqdXkWehldAroEdAnoEvgvSEA1+Lj0n46tht/j+CufI8072NgSh3bDscPwF+R6h0rajaJi+E5aiu2Gp7D7sdeRFRwt6aZmn9zcXEm/ffs2vvj8c/zmkV/jx+XLMXb0GJyxtZVzxdeLYWdnJ8Dj22++wZjRYzBo4CDRmKxbt64CeMjJycHOnTtx8MBBKbNw4UI5DgwMlLpUUMA9w4off0TTh5rgT3/8I1auWCl1EiAtXboUBQUFkqeoqAjOzs4gcGEoLipCclISdu/aXUmjk5WVJXl4vYCAAGRmKMuS8P4IsoqLi82CFLU9UrgO/yoBFZuyNVTONrHEOZWj0twSjo9YCD/FubkFXJq9Ctfft4TXv95H8JweiA6YgQjnCQhzGo+QMyOQm+UrTamMzerQQr2ILgFdAroEdAnoEmhkCcQfPoethqdw6PlPUJCcXuFqdt8Mwy7Ds8hxq7jwqd+M1dhqeAJn3u2Bkpu3qV+oACzGjh2LNWvWwmqkFZ5/9jk8/een0LNHT2zfvt1Yf0pKCg4dOiTHnTp2wt7de5CXm4fs7Gxs2rQJN27cMOZ1dXWFt7c3iq4VISc7G++8/W983749EhOVpUFUoMIC69evxy8Nv0DXzl2QkpyMsLAw0byQA0PTUlxcnGhRHBwcwHoZkpKTsW3rVvTv2w9TJ0+Bp4cnoiIjjdcnoPH09MT8efNhNXIk5syajWvXrsl5JycnsC4GtR3avbGSOkTMA5UmltACFfuHLeFIj5/mreDysAVcH24Bl9+9Bt+2bRA8pSvC9gxDhMdkhDtZI9xhNGK2zset3KtKc4hW1K0ODdSL6BLQJaBLQJeALoHGlEDJ7Ts4+WZHbDc8jcRTznKpa5ey4TJ2Hlw7jcHJpz7G0V+8BJcPe8G+x2jEHjonee6U3MWp97pjs+FPSDhiJ2mqVoUHmzdvFrPLmtVr8M3X7fCHJ57EE48+jqCgcsBDE8/p06el7KBBg9C5YyesWrUK1MYQ0KiaDwICal6GDR0KXx8fARvvv/Muhg0dhlu3binX1phdXFxd8NUXX6Llq6/C0cFRzhOk7N69G8uWLcP+/ftFi7J27VrhsdD0c+7cOaxcuRIff/QRunTpgh07diDtQpqUpTaH7SZQGTduHIYNG4b58+cjJkYh/dIMtWHDhgrmpMYFKvzWD4m0TS1hbzT9aIHKq0Km9f3mM0SeGAP/ed0RvH4gItwnINJnCvy+eh9hb3+D62kKKhXNiq5ekYet/9MloEtAl4AugQdLApd8w7HN8DecfruLfHyXPIuz34/EdsOT2Gp4Fjt/1QK7m7fEdsML2GX4C7b/6mWkuSvmlvgDZ7HV8Ac4/DBWbuquRqtCL57PPvsP/v3W27BsaYH/++3vMG3qtApaFwIVNzc32NvbY0D/AejVvSdsTp8Ws8u+fftEo8IBn7wVApp/v/22mI1OnjyJtm0+xc7tO0CtzPHjx42ghg1JT0/HO//+NyxatsTZM2ewceNGzJ07F6NGjSo38xQXi+aF90vzjb+/v4CkxQsXYfu2baIxcXJ0Agm8BEzLly/H5EmTMHbMGEyaOBGzZ80yAhnWQaBC8w+DFqQwXp9gXqNCoKIx/Tg8TG8fBai4NreAW/PX4NL8Ffh80RbhttaIcJuIwIU9ELi0NyL8pyC4x5cIMDyKkBafoDBYURvpSpX6PCa9rC4BXQK6BHQJNJYE4tbtx2bDY/Cftkouce1KAfY+9SGO/+k9nLf3wAXfEKR6ByPNPxw+VovE3OO7dJvkLbiYiYO/+yeOvfAZbhRdlzR1kOYBvW4OHz6M1157Db/99W+MZhZ18KaGgpoT8j42bdyEoMBATJgwQUw8e/fuFVBBjQnNKgQSL73wogCFCdbj8f137dH9h26gySg6SuHJ8JoZmRloZdkKDzdthn1794qJJy0tDekXLwrQkEYCAkBUHgxNQdTYkEMzb+5cLJg/H3Nmz4aDvQMKCwqlCMEUPY7IoRk3dhx69+oFezs7cX0mx2X16tVmvY/Ue1WvW9u9AlTK1k+h14/KUTnXtBX4nR9qVBybt4RTc3JULODSvKVsbs/+E35ff4bw46MR6mKNcJcJCPqxDwJ/7Ivgrl8i+Ff/QIjhrwh+6nXk2ZbZrQRl0c+8ts3U8+sS0CWgS0CXgC6BxpFA3JwN2GH4P8RuPSoXuJaXj/1/+QAn/tYWd+nOowmRGw9hneFx+C9TeCY3iotw9LnWOPzHd1GUe0VyqkBFO0B/++234iZMEwqDei4mJgZff/21eP306dMHnTp1QocOHUBtCjUYaj4CniWLFqNblx8wYthwtPvqa6QkJWPxokWirfnu2+9EG0L3Z7ouk7uyf99+fPDBBwgPCxeTDMmvI0eMQIlmvRh6DRHEqGHNmjVYtGgRVq9Zgz179qjJiI6OxhdffCGaHbaL+ehOvWXLFtHenD9/XjyQ1HvTykC9B2NltYxUAirqd37MA5WWcH2EZNoW8H7nQ/i1/wJhx0YhxNEaIefGIdR1EkJ2DkHAG28hpNlLiPj9Kwhv9gxCfvMPZG7aVcum1S77ncIiFITHojAyoUYFr6dl4s5VBSXWqIC5TKbqrIr92VwJoLQU12KScbdE5Zmbz1Yp1fRaaoaaXLMs792SEtxIV1jbavE67bVt0cbrVFn1hUqv38Tty2V8p7KsNzNzUXJDWTOg+tLA3dt3yrc7Ze57dzRptxWme7X1lJaiICwWJcXKbKnavA108mZWHm7n37t/Xr9wCSVFiqr1Xpfmb+T2FYXpX1Xemxk5leTNMqb9pjglHaX3kF3prdsoSkyt6lI1Sr+ZmVP/32mNrqRn+jlLIHr+JgEqMev2ihiu5V7Bvqffx8m//afSmqUxGw5jo+Fx+C1RNCo3Cgpx5C8f4/CfPkDR5Xwprx2kVblSWzJk0GDRPjBNHbxJlqVrMjUqBC00A9E80717d8THxyvF797F1atXcfjQIXz5xReioWF9w4cNw9mzZ5GRkSGEXGpgVE8jFiSvpWPHjlI3ya6s980330RBYfm7hSRbmo3UQJBCMxH5J0eOHFGTBcyo+ag5oZcPvYeuXFHAGfPSZZpBe/9q3FhRHSLKyrQajYpt2VeT1eXzFY2KhWhUXGj2IVB5uAW8/v2BAJXQo1YIcRiHYHtrBNuNQ+Da/gh6/z0EN/sHwh99BZGPvozoR55H6EN/QdqMhcZ1amV8pd85b6q6ht+9i1wnH6RtO4KLO47j/Oq9SFq0BfHTVyF61AKE9ZqEoPYj4f+f/vBt2xvx01ZXV5vxXNSIuci19zIem4sUJ19E0uItOL9qN1LX7kPiwo3IOu2C9N2n4Ne2N0I6j0HQdyMQ8PlABH9vhcDvhiJyyKx7DqIhP4xD1kmFsGXuutq09D2n4ftpT4R0Go3gDlaVNqb7tu2FS3tttMXMxjnge73ZEWlbDyPbxhXZp1xkyzrlhJxznigtG/w5oF0NipTBuSguBflB4bhxMRNRw+Yg4OuBct8BXw4GN8ogoN0ghPebhrtlQMDsxeuYSNknzd9UoXTqmr1InLexQprpAQGr1z87wufD7vD9oAd8P+wJn/e7w7NVe/i+rxwz3eejHvD85/e4GhJjWoXxuPT6Dfi88wOKU9RPQxhP1TpCkEUwcK/A5xPSdVylbCVF1+W5pG46gJCeY+HbugeulS06lXHwHLw/7oqALwbD9z/8LaxC6c1buJmdh1u5V5A4dwOireYLWLmdl48714r5RqlwjTxnP0QOVhaGUk+wvexnt3IuS9KlfTYI7z9NPV3lnv3I591uyCgjGVaZke+A0lJQNsWJF1CcpGzXz6cjfspK+H/aryw9TTmXeAEEaKU3FAKhuXp5nveoB10CNZFAwn4bbDY8AddB0yX7jWvFOPh8axxrbgmvsQvhOWMFPKetAL18HFv3xzbDHxG8bp/kzQ2Px86mL+HEWx1x5zY9fyoP1Ezj+idzZs8x8kOqG8Bp6qEGRVsX4wQF6iJwt27fRpwKZCRn+T8VBDFFJdrSNMP1W3r37i18FJ5T2xARESH5eHzp0iUBU+SsqB5H2voYz8zMhJeXl6yeSxIu14EhyNLWqdat7uVkHf8ZTjVthVNlQEU1+yj8FAtZPl+AysNc6K3c9OP8cAt4v02g8jlCD49EsIs1Qk6Ngf/MrgjcMhDBE7og5LEWCP/dy4j8/cuIfuwlxP7u74gw/BHn+1qhpKhImkudQsXXpPm7uLjjBOJnrkLi/E04v2oP0rYcRcy4RTIAXQ2KlpcWZ87mQsrynQjtPR4R/aeVb4NmwO3FL+QFGDFwRnl6/2kI7T1BNB6siy/NxAUbBQi5v/I1EuevF4ARbbUAsROWyovwslsA/D7tL4PPzaxcGdD50mVI23IEsZOXyMuWL9z4qSuRMHONDJouz34qcabJuSkrETN5MTKPKexs9V4IqGLGLpJZ7q3syzDdCD5iRi9E9JhFapEq9wQSrn/7D8L6TkKs9RLEjFssW/SYBUiYtc4IVAojExHc2Qp+n/aF6/OfIrDzYAhg+qAnsm3dRC5hPSYIKKOMcs66w/OfHVDCga+BQ+BXQ5CybAdSN+7DhY2HZIuxXgKnP7yP1PUHjGmpG/fiWoyySiSbQBAa+PUQFCWkgmCrKP48OAjzORaExMixpCekIqjdMGSfVldTrnwDHOwJai7uOo7LHkG47B5o3PJc/SppICrXoKRci0qEy/NtccVXWYvBXL6E2esQ2GmIAGCHR99WAHCXYQIyqNXw/bg3/L8cgMgRs5Bx6GwFrQvPX/YMkPvzb9sPrCs/IAIB7QYipMsYuLf4Gk5/+gB+n/YTAOfzXnfcuJQtzaD2I27qSoT8MAaOf3xfnn/mUXuZHMROWiqANGLQDMRNXiG/h4gB0xFtvQCZRxWzrrl7YdrVwCh4/6sz7t4y//tUyxUnpcH1H58hsN0QBLcfKfctExC29d9dRR4hncci9AdrAetuLT5H2rZjavFK+8wj9vKsqZnSgy6Be0kgP/kidv/aEgf+8jFuXFG0Db4LN2CL4XlsMDyJPYZnsM/wN2w2PIVNhj/h0GvtkJ96SaoNmbsBmw3/B7cJC+VYJdOqA7S6J7HWdFE29RwLqnHu1aBNM01X85iWraqMml+tR5tPW4eaT91r8zFO0qxpUOtkuml+9di0TG2OzQMV8fixAN2STYGKKzkqTV+B11vvw+/bzxF8cgyCj1nBd0pnBG0ZhCBXawTM7IqQp1oi7DcvIeLRVxD96EuIefwlxD/6AqINTyLp8864eSmjrJ3lD8VcwwuCo5F+8DSyjjsh67ijDCjZp12RMHMt/Nr0ReZxR2QesRONAjUdF3ccQ8bBs8bZ1tWACOS5+SHfNxz5vmGyXQ2MlBdf8tJtuBoQaUzn+Rx7z0ozsZQVu5C0cLOxeXxZ+7buiaQFm2SG6vHaN0icu17AVL5/hDFf2tajiJ22VGa2BCiiCZqxWrQBifM3ImHGGiQv3ioDCme/MdOWIOuEk7E8I/HTV8Pzve8FjMSMWYRK2+iF8Hz3eyTMWluhHA84i844fBbpu04K0Liw+TCcn/4IFzYcVDQpJ5wEeFG7k2PvbgRoakWFYbEI626tHopG4nbZj5jXS1mpmPPu5F+DX+s+KClUAKixQD0jBIHBHUYJOIifvVIGa2oFkhdtQcqPO43HTIub9aM8S/WSBCrUbmnDnYJrAhK1aYxTU1QdUCHA8367K7ze6YTArwYj4ItBxs23TU/k+4ebVmn22PvtzoidsMzsOTWxODkNvh/3EM0hNQrskx6W34gWpSA8TrRYat6q9gVhcfBr3Rclxcr6C7xvgsjEOesR0W8qOHhTe8H7oBmSgaZI/lby/cPEfHrFJxgEDwSmKSu2I23rMRA0e7T8FuzXFzYcQPKK7bhStgAWAWHE0BmIHDoLkUNni0wFQI9aAIffvyWTAqZrt7Chk5Dr4C3Xv556CfEz1lS4pchBM8HfuhrYZoI9hqxjTqIVVM+Z21MjFdzeytwpPU2XQCUJOPcYj+2GR+EzZaXxXIq7PyL3nYbt69/j4C9fgP/kFYg8dhYFmQrAv3I+Hfv+/DZ2NX0JmcGKRqFUs4S+sSKTiLnBXptFO/Br09X4vc6r+arb1wZA1OZ6ar2m++racq9zVQIVu6YWsFfJtEaNSksQqLgSqPz7ffh2/BJBGwbCe1onBO0ZhkD7MQg4NwZBU7sg5E+vIfy3LyGyDKjEPvYS4h9/EQmPv4jYX/4BiW98jOJQxZ5VXSM5MwruNQphvSeJmSe023iE9ZgoA6Pr3/8DzuwlrVfZ+V7WiB45X1Frl1XMl230pIUySHCgINCgCYCmFMaZRg1Jwuy1ZmfHzJfnrCxixyrjJv2IwA7DBRwlzd8Ir7e64OK2o7iw9RAKw8tsimZuimDnloZvceNiFmLHVz9wxU1cjrD+k0QbQI2AuS2s70SZDZteMvOYA9xe+VLOJc7ZgOCOoyCgat5GGbSYFjf5R7l/+8f+JQOQtg4OwKHdyoBKaSm83uqMsN4TEDdlBbzf6gLOyOOmrASv7/WvzkaNjLaO+sS93/0B0aPmSxV3b5fgdkEhOOgqW5ExfpsrLJrg3TwXP1Abc8U7BFc8g3HFK0Rm/xxocx18cMUrWEn3CUVgu6Fi+qqqrdSo+H3SR7QwVeW5V3rGYTvRApVcL1+8qaoyqWv2CSDl+TxXfwFrjBeExpY/jyoK03xH7Q/vj6Yq3097iGmSZjpqEV2f+xSBXw9F4JdD4PTn9+H1dmfj4E+NVPreU8g4eAaX9tuKiehqcBTCB05G1Ih5CPp2ONxf/krikUNniulV1aIRFGced5CNEwpqMp2f/hjUyvBZ8DfIdO2WcfycaLx4K9RGxk1aLr9DTgDCe02CXfNW8luOnbhczH/e/+4K91e+Es1k1Lh5yDlb/ac6bqRnw/63b1arwapCjHryz1ACudGJ2P1oK+w0/B1RJto6h2+54NtfcdmnfFJSmJWHkx/8gK2GR+E1WtFoi5WgDKhQhOSOHDt2THgndO+l6y69aziIk9NBMwtdi0NDQ8XjhiRYcj/oDsxAAiuPSVQNDg6WPExjoFmGXkD0GmLamTNnhMdC7yByW8hd4YcNVV6Jr6+vcFaSkpKgJfTSNMSNpiG2i2YcAil14zE1QTxPcxD3ahrzM/CY57gxmIIUNZ+crMO/CkCFXj/8EKGsodLMAueaWcC+uQUcxexD809LuDzyqgJULN+Fzyet4T++MwJOjULg2dGyDzg7BoEEKn8uByoxj72M2MdeRNzjLwhYSXzyRSQ0/TPin7FAgYPC1eDtykI5piOO5qZIoORLiyHfLxxRw+dKnIN9dURHvqSjJyzAhY0HlW3DQfh80F1mf9QuKOkH4PlGe2SVLfajXpYve/+2A4yzU6bTbEJgc/1Chgx6rJ8zYW5VEXQJqALbDasAoDjgRo+YB8/Xv5e61Gtq95zFBnUZKffLAZeaAtMtqNMIRI9W1I7asun7bARUcLaa4+ghg5+nZXucX70H8TNWI8pqNqhV4nnf93rglolN/2pQFMK6j5cqac7yfruLmMKoueI9E8AxnrRoEziIkMvRUIFanlOGZ8Q8xjqpcfL/tj+Cvh1RafP/tq/ck/ba1EQ4P/UR/Nr2ldm8/6f9RSPE2b3fJ73L0vrBr20/OD39AS67KWsiaOvQxv3b9seNNFULqD1Ts7jfx73kWd8rd56TD5KXbhYTEbUN5BSF9Zkoz5zaOmp0CkJjQK0JzVlXQ6KM7eIn56NGzkP0yHlyGWpUroZEg1wr9lUC8vA+kyXOND7D9L2njWTcXEcfxE5dJlq8uGkrRLOSY++FjEPnBIBQI0OASq0fAQi1ddRImgu8HmVW03A7vwAXd53Exe3H4P1OVzj/9RNk27gJgMw65QLf97sL54h8F+a7sO0wrpYtW17dNQK/GYawnpOqy6Kf0yUgHxKkGGL2ncJ2w/PYYfgbPCcsQWGmwidz/GY4thueQa5PmEjrvK0HjrX8ElsM/4dTbXrh5rVyt2Ttgm9cXZakVC51TzBBHsfw4cNlsOdS+FZWVsL1SE1NlY8Q0pOGwIUDO0EI10ohqGA6AQ/rYjrDqVOnJE6+CDkms2bNkgXZZs+eLXXQM4fnrK2txRuHi7URUJAAS08fBh4nJyeDIIbrtLi4uMi3hlg3jwmCeI5eQVzQjeu48JjL59Pjh20ikGI+cmcIkFROjClYkQvW8V8loGLLVWlp+mlmqXBUHraAk3H5/JZwbfYqXB56Ce6t/g2v9z+Ev3UnBNmMRoDtaPiftILfmVEInFINUHniRRCoJHN75CnEP/l3XN6hkJLEtmdyI5yJer3fAb4f9oDHv76D6/NtJUeeky/IL2Fwe+lLeLzZTtT6nu93QMKMioRaqoCzz7mBGgza8bkP7T5etCAV06wrmQBo4rB/7E2E/jBOSKvkJ9Bc49riM9Hw8GXv8mwbhHQZi8AOwyqRZGk2INGW+aoKnH1S00FVv2kgJyJ25lK5hucbHUQDRC2QduN5cy/tSwfOyODEQYWgJLj9CFHdk1eQc84D+UERoPcTvToKytSWvH5p8Q3EjFsCv//0gevf2iK053iZ2ZM0XHJd8bahuSV1rcKQJ6nRr03DmX4KoxKFvEowyPusS+AgHzGgIuGTpFASak1Jv5GDZhjNCNdik6VcxMDpYDqJpeQ3UTtAQinNSZLOc2VbaB9rcJCvKpBH5Pjke9XmUcvGjluM4B+spD85PP6OgMHQnpFE0bsAACAASURBVONEe0GTJXkmIV3HSp8SnlW7/kjbrDDzaRpx+vMHwvPw/7KfmMdITI2bvUK0hQQOBJvkrsTPXiN1XU8t73Mk6goHKveKEGcpr5gxC2UjYCapleRpEtiF8zVkqvwW1LZr9/SS8nqzE4pIfD2fbtzoLXQ9LaNaPlPU0NkI+GIgYicuAflpycu3wetfnaqcBGivaxqnmYo8K3rb6UGXQJUSKHPs4PnY/bY48MTb2Gz4PQ794T149JqEMy9/hYMPvQqPjlY427oXdhiewRbDn+DQeTSK8iq7JKsaBLoKEzBwhVcCEy5VP2PGDNjY2AhA4HL4AwYMECBAADFw4EAjEOEqsVu3bhXQwrLUjHDVWGpXGLj+yYkTJwT0UFNDoMKl8QlmCCzomcNF36jBYXmep4aFK9KOHz9evuJMoEJwwUXn2CZ+BJHL5Lu7u8u6LdT6UFNDbQ49iOiKzGtyhVu2j0CFHkIsy68+0+tHS8DVgpUqZV+DE5WBSlMLBag8rAAVhzKg4tLcEs5NXoXTL16Ed+92CFjcG15ftkHA8j7wmfQ9AvYPhZ/tGPjZWiHAHFB5XNGoJJQBlaQnX8T5J1/ChUefQ7zht8hcpiy0Y9pmDqJ82ZL0x5cfzQ18oRIwRA6ZLdl9/v2DzOzE9p6RXUFrwQzBnUbD7fXPRX3v+1EvMRs5PfWRDNrkVihpvUUVrjXxXItNgV3z14UoShs8CYnUwHBmeX6NMkjfvJQjpifTdvO4MCJeBlwOdjSjkLBqGlgXSZ0Xtx+H28tfGVXh2nzUWpDgyJkt28EXP71auDFeFJ+K/IBw0ehoy106eEZm2Goar0PTR/SY+ULQpSaKRN2oEXNEq6Lm40BObQp5CCRlXvYMws1L2fCw+A4pP+4QXhDNAARv5AilrNgJ99faVavVUuuuyZ4mK94rPZE4UDIkL92OsD4TQBKn6Rba21pIn9q6CVTIcdAGeoH4ftBTmyTxqCGzjQD1Vs4V0RhknSzn72QetoOnxXe4uPOEADxq3ajxUbeMo+eEz1Gp4rIEakIIVOg5VW3QkOju5BeISUqroSMxlUCBgSZEmqxuXy53NybPhJoJ/l6Sl25FRP+pwkXJOHZWNCCi1ftykKINOWqHy+5B4m2jtil9rw38v+4v/C16s9HMSA+ruGk/CjihxxC1bwlz1uFGWiaSF24BtTjmAvlFDo++Bd+PeynbR72U39knfeDyUtsKnC+WZ9tJ6KUWiN5CNBeFdB2Dc00t4NO6OwK+GoiwnhNAbhf7ek0XYyKAt//9W7h+XiE+mmurnqZLgAOqoglRZHElKRVug6Zh7+PvyPd/9hqexmHDX7DD8CR2Gf6Ok291QNSeU0b9v3ZAVuOsidoQfgSQWhBqHmjioXmHa6TQDZmmEroHU6PCwZ5xaioIIPixQGo2qMGgloUaEXraMPAaNBsRrLBeam4IMugpRE0Iv/3D+lQQwjK8HoES20TNCIEFA0m+NEvR/ZnXZB0EG9SMsH3Mr5p7mId5CcCYl+2kWYjHLNOIHyVshdNNWsGmiSVo+lHdk+3K+CkONP080grOv2wB5yavwGdYBwR7TIDf0l7wbPMJAo+OhP/uIfCybg+/bf3hS57K5M4I/VNLRJCj8thLiKbph2Tax15A4uMviEYl6Q8vIvXJfyC52R+Q8vp7KPT0Nj50kZ7mH90oaeqhicHu/16XQSvzuJMRIPi83QXJy7YIifbSfhvZ82WnBmo7rkWnqIey5wxRJfKpJyKHzUHWiXKvG3rtBH1vZXQT5QyfaUkLNsPr3c5C6CUIoSdH/Mw1iJ++QgYz9eVNt1rOXhk4q3Z74XPk2JW7RFPTQS8UzmIZqKXgDFLC3btCpCSZ1OvdLgjrOxkx1kvFDZt2d/J0SAJ1ea6NDL6B3w0RDopSWPlP3gxduBno7kqvGc6SL7sHyICbvvMkUtfvR/qeU0K81ZZlvDAsTgYHNT15yTZEDJkudVK7w9k562ca+Teqt5Oan3sCu6jR8xRzGU1mmi1qzDycX7lbm71CnG6wqkmLpo7LnoHCNSHfRLvR04WaEG0g4PT7T1/kOnqLJoMaD7pwu7doJ7LgsbJ5C4cjx85TW7xSnAA5deP+e7qeVypI2du6wfEP76G0zH5rLg/TuGaIeLV0skLQN8Pg9OcPhU/CATu06zghRKtaRPYnesXc0ay1wt+Jeh8XNh0ScxnldGHrYSlLjRDd+Pm82c8ubDmEojhldmauTeTmiMfdjFViermVnSdgmJoZAmZqGwmezP1w+TsJ6TJO4RFdLcSdq9eUraBItHzkOWkD6wvvN1m4aOF9piB69HyF9H3G3UjYLQyPE1Ac0mOs8GZqspYOzbEEiQSLetAlUJUEjNp8jWaFeQsv5SDN1g3xa3Yjbvk2JO88ieygGAE1xro0EwxjWg0jBBzmgjZd9RRS82mBkJqm7rXl1DTTfU3ymJapzXFj1C8aldNNXodt01ZGkCJrqKhE2kcs4GBoAbvftYTvtG4IdrKGv8MY+C7oAe82H8F/71D4n7WC/74h8Br/PXw39EfAjB8Q+ufXEPmbFxElQOUlBagImfYFJNDs88Q/kPjLJ3D+y064dVGZ7bCzmL716I7s/UEXBH0/AnFTl4t9ntoU52db48wjLWSNBhIHQ3qNFXNOSPexopbmS1UNnP0Hd7USEqyQaadUJtOSIEviKV1ttSE/IBIBnw+SJLrzcmClFuPC1oMyi0/feQI0sXDApws11+6o6gVKc4vbPz4XTgDroB1e9ZrQXpNxzr4Dvhkk67eo56jloOmCAzgDZ7fkhpDIeC0qyUi6VPMT+NDTiCHgs4Fw+XsbRI6YI7wUaqVINuW6GzRNmQv5PqEI6zlROWXyg9KafsyVVdPonRXYYbCAKJJ5tVtghyGInVg1mViAyihFo0KNWq6zCi4q7i97BMqAqF6TewIz5xdaCyeDAx+34I6jBTBQs6CmhfWZBNcX/oM8F8Xuq61DjdP1nXL3bdMLvp/0QvjAKcjVkKvVfFXtufYOB0suuFddoCaL5ht695BjQ3MhB9h831B5xtReRQ1TeFlc04RaDwIWNRCocL0YElMJ8KiZorcbvXMurD+AoG+Gi3sz3bqpKUlZuaOCJo1E8PBBUxA1fI6QWKmxI6CgJtHtxc+F40STj5gDu41HzMTFoiU0tzRAeN8pSFm+Q21ahT3rNPVSE+3Z+EWireGaRem7Tolmi8CWJG5qs+jNRxkQBEVZzRNu2Z3C6l3i+Tuj7K/4KtyCCg3RD3QJ6BL4SUigAlA5o13sTdWoPPQaHJ99E/4r+iLQaRx8To2E39kx8FnQA55tPob/nsHwOzECvidHwu/QcHjN7oLA3l8i/C8WiPqtok2JfuxFxD7+ouL18+SLSHz074h76Alc6DfCuKaKSEvAZUWEyVnmzYxcozBJeuTsljP54M6jEPDVEFmUzZjBTISE2KzTijujLHRm4wb/zwaK9wAJe0zjYELei2mgy6Z/GVCJtV6K1HX7ZQDIOeMhvA16ZRA4UXPANUU46KsaFdO6eEzgJQuNvdNNzBvm8kiaRqXO9kdbL4TPe92M3kck4nq/84NxHQtqaugZpQ00kVBrlH3GXcxd9MqgVohgiuvP0HWT5imq5wl6qGnRBpI1A74chJixi2VwSF60FRGDp4ubKgnA1KhQMxUxRPEAUTVD2jrqE9cCFbq10oOF3ifUJBk3usxathMSpvZa9BxJnL1emyRrjnAgNw33ck+mJ41/m35i7qB5kaYu34+6CymXMr17D01JrpMvHP/wvpg0TK9t7pjmHYJaEl/pIsy+yuedtvmwmB1ZxhxQYTpNktS+UItIkHNh00FQc0ZZqhoVapY48KdtPyrpKmcnbdNhBHw1CCTQ8tmyXzPQhZkkZi68yHVZCDYJpNnnCWZMA0ElzZjsU+YC+ymBkzbQ1Bc7dSnojk8TKbWRjFOjyL5G7zJqJ6nNZDrJ4AQ791ppl5o2cn3Ie9KDLgFdAj9NCRho9jndxBI2zSzF44dghV9NtmtmATt+OflXr8K901cIsB0FPxsr+B4fDv8zo+Azvwc8P/kIAbuGwPfECPgcGQZvm5HwWd8X/t9/ivBnLBD5m5eVNVTE4+dFxD/xAhJ/+xximz2FSzPLV6mtieg4a4sdz0G2g7hpXhWvn3mguydfzNSaaBf8Yp13CorEG4SkT5LqOBOTbetRmXly5lghnWadxZuQc6Zcq0JejPNfW4Mzb6dnPpL8LEf3TarhyZ2IGjlfPJBIsjW681ZxU/RgONO0BbiYF11nqwt0vwzpNgY+H3YT8iO1IAxUk1OTQlOMGi7ts62wWigHH3IYuJov3bhVMi95BkzjQMCXPl/0XI+Ga60Q9KmBy7fHTlkGxz+/JwMDBx8OcCkrdoiWh2WokeHsl+upEMDVZMl3tf6a7LVAheTWPJeKQEqtI3H2BpxfqxCy1bSQrtYg50IbOHBypVRVjuo5agkIVqsKBCp0T74WW76gHM1cF3edgE+b7rL+SFVlmU7A5/DEO2YHddNyvOeA/wyQvktwwMBFAakZo5ZE7ZtVARXmp8mIZiG2O2HuOhnQE+asF7BKUioHfA7y8dNXynotKlAh8EhZqny/hH2afZVaGS70RpIu3dCp7aFGhO7JBFRqWe19kHRNzWVVgf2GnmtVBbab/CmCM2ocVfMlAQo9jWoTxOz25HvynqhNOT2vLgFdAg+OBMwCFaPp52FLnHv4VfiM7QyPqZ3hu3Ug/GxGCmHWd243ASp+OwfD+8Rw+JwcAa9l3eE1ozMCxn6P0KdbIvI3LyH60ZcRQ6DyxIuIa/4XRP/uOeRs2mmUgNE2aEypGKEZJX3fafEgCO8/1ajq5gubM041cMD0/FcHxE5aDq6fwMBBmOuERFnNRfSohcaNGgKSSum6yLj2XMSw6bi097RaLehpwcW+rviEIG7qCplFckZJcwtNCAQTNBuRVEuVOgc900CiYM45NwR8O1i0IlyenjNmj1bfIrjbKFlN1LQMjznLJNdAy0O4sH4/PC2/K+eylBWkBkF13WYSNU9c0IsmBM7K2TbHv7wjnAcSRmnSUTklHAgC2g8UrRLLFkYkwPeTHogeO1+0CGWXqLDjEvapZUtIVzjRgAdaoEIuUOYRBxlwCE61W9yE5UjdUD5Dp/mExF+CK20QoPLODygpcyVUz5FMa+qWrp7j3ghUNCvfas+bM31UOF+2IjBBcnWBZF8CcT4z1sn1TjhY06TDgZ2aOHI9GKoCKtR4cI0gAlkST7VL5Gfss0Xykq1VNoGkbb8v+opJxfeD7rKQoqKZWicTAbVgwFeDxYxYWnxTzJ4kwaohtPsE+Lfpi7t3ql6JllotEtXNBWp5+NskKCm9dUuAWcRgZeE+yiDw2yFybxlHzpkrXimN5lp+MkEPugR0Cfx0JWAWqIhG5WFLODxsibMPvQLfRT3hf2QE3Ma2h9fq3vBzGA2fMqDiu2uwmIO8ZneF1/QO8DkxHL6TOyLsT68h6ncvCFAhkTamyVOIetoCV2zsRVoKG0VhpVQnPuGofNhF1NHafPS4oDePNnBgCu83FX4f9zZLDtXmDeszGdln3LRJZuMk5XJGrAbRcpR9g4UanuupGXI+z9MXIZ3GILnsi5ocIGh2iR43H94fdYHvZz2RtuOoERywPno4JC/fKue9P+mG2GnLRFukXku750Dq07oHgr4bblygiwNv9lk3ZNk6izlHJVKyHOVAHgkD7fMEJt4fdi0jZ45G5LDZolXhqrtcoj5+xipc2HRYwJ14WiVe0F5evDCixy8UgiYHEZJpfd79QVHDc1XdiYvvuQBXhQprcEDNT8QgZZASbsRrn4tpjdozdaOpzenp90VTplZJ8xC1bKaBfAWavQg86B2T4+Albuteb3SoRKzWluX6MF5vdERhZNWL+Wnzm4tzRWGfD6ofMLl4GnlIDLdzr4gGRP1eDe+fg64ayMEiqVU9z3SaIak9y7X3FkAf3neqrCNDEyCfL01hXI+GfVS2pdtEK8c1Txi4hon7P9uBa6i4vvCZtIWAPHXrftGe0CREnkv4gKkIajccCYvWIfCb4aJVocsxPejYJlONFfuTLFTo6oeEOasVF3GTT17wswa+n/cWXtYVn/JPDBCchqiLDpbdPE2ZXu90EA1rWZLZHU2wLs99KmDfbAY9UZeALoGfhASqACqK2YdL6J+lp8+s7vC3Hw3/g0PhPr4DvFb0hveiHvBo+xH8dg6Cx8xO8JrbDV7HhsLz+DD4jv8eYX9uoQCVx15GxC/+iKiWH+BaiEJoq8hCqV5OnFGaC7SN0yPBXKBnizmVtDYvPR+40mdtA8mLnLFrQ75/BIL7WIk6XV1nhEBFVORWs4UMqc1vGheNi4MXwvpPrGS7V/PyuyYZhyvOIskdCOs9ESG9x4GkXm3gi5+yIxjiglfqbJ6DIQnDaVuPCF8mcd4GMQElLdwk5Ed1pVFtXYxzYa+U1TvExEPtDEEEBzYhZq7bj5Q1u8QTx7RcfY4vu/mDy/4zUGOWfdZd+ErUmKkbn0Xq2v0VQBLNFXTRNQ30YiEnh4F9JHzANIT0HguuLkzwUlWgdoNgjmXqGgiiudgcib81CTRb0kSjDvo0MWq/W0O3ZQJRrXcbiaZ0q9YGcry4DH3y8u3ynLn6qywKZzVf3NK5Xo6qgWQ/Vsnd/G2wbprEQvqMFi0PgTfBEAMBu99XfY3mLHoPqcRt7fUZJxAK+HKIrMsT0m208KPM5SEHxjTQ84yaHtPAfn2v3y95OC7PtDYuaGdah36sS0CXwE9DAkagUmFV2odbCT+FS+ifa9ICPrO6wcfWCt7HhsPn6Ah4zusKj95fweujD+EzpgM8VvSE97Eh8DwwGB5HhsHXuj3CnnoV0b/9B8IMTyK2dUfcSFO+PCumHhMPkp+GqPRW6hKonwQ4kFPjQbONHhpXAlwzyPGJd4Vj07hX0mvXJaBLoLElUAGocA0VfjnZrgyoOHB12iYt4D2zG3xsRsLr4FB4HRummHratYX7r1+B97jv4W07Ap77B8Fr/0B4HBkKH+vvEf6HlxBieBKJPUbIzJ43ohp6lH1t9CqNLQa9fl0C90cCJECT96SHxpUANT4keOtBl4AugZ++BIxAhSClHKhYikbFgZ4/TV6B58xu8D49TEw73nsGwXVGJ3j1+Rqez74Oj6Ht4DGtI7wOD4X7/iHwODQMPlZfI/CRZ3B+/FyUlrnZ6rDkp99Z9DvQJaBLQJeALgFdAvdbAlUCFftHLOH4sAXsm7SA5/Su8D47El5b+8Nl9Lfw2tQfPjN+gMfzreCzazA8JrSH++hv4XFgMFwP9IfriK+QvlHr2XO/b0u/ni4BXQK6BHQJ6BLQJfC/IIHKQIVrqDxsCfvm5UDFa253eG0bCOdR38BzY3940Qw0sRM8nrWA5/aBQqD1mNYJbgPawG1TP2SEV//59aoEx+8E8MNH/IZAfTZ+u4CfqGbgNwp4XNv62A7TeviNg9q2z7Qeton3WZc2sYz6wSfWo9Zd23tjPepnxFUZ8d5qW496fXXJZH4Xoj71aJeKZlvqKiP1652qjGr7zNRra2XNe6tLe3htbmpg2+paD8up/bo+98Zn1FAy4rc+1FCfe9PKiHXWVUbaetgvVfnXtm/z+nzmDPWpx1TWvLe6/EbYHr431MC+WR8Zqb9Z7lkP5VQXGfH9ysB+WZf28JqUhypr1lXXezOVEd9xdWmTKouGkrVaT336Ee9DlTXfkzxW21mb52baHx80Wav9yPTeDCTR2vAbP00sZME3+XJycwIVCzg93BIOzV6D+8Dv4DytAzy3D4DHoSHwODoUXhM7wvPZVvDa0h8e+wfBaU9PeCzui7zwYPW51HhPwfNz1PzKIz+iVJ+NX4fMysqSgTgjI0M+msSPNzG9NvUyPz/0xM7OtvEFw89Y16Ue9aNObIf6APjRqNrcL/Pyc9zsWLm5ufLjZqdjem3r4bX50uPHp3hv/AHURUa8LtvCulQZ8auddZERZc2XFb/2SZlTTgkJCbW6N16XXxbls2J9/DHzHmvz3JmX95WUlCSyvnLlitRFGdXl+bMu1sGXCfsl28YPkNVFRuxHaj9kP+Dzr+298bq8PsvzmRUVF+PK1auIT0xEfEJCjevjffFDaWwP+wA3Pj9+cK2298Z74MfO+LzUe2TdvEZt7o/5+Sl63hv7EYETZc/21KYu5uez5r1RRuyPvL+a3FeCRo7MT1lTLuyPbBvj7KO1aQ/z8reg9me2hW3i+6C29aiy5m+WMmK/5gflanJv2mfB/HxnUEZ8z1Lm7N91qYfvDMqFsmY/YJ28t9rUpcqIvzM+c8qa91iX9yzvk+8ftqU+smabWAefFWXNe6yPrCljVdbsT7WRD++J+bWy5ruRsq7tb62hZc1+zefG/sT+aO7eBKioHyLkqrSy2FsZUKHpx+FXr8Ll80/hdXQoPA4NhvuegfA4OgSeEwhULOGxpR8ctv8An0OTcC1f8eypMUIpm62wY1GAbGh9NnYGdiwiV3YIviT4MIjS+COqad1qPbwP1sd62OHqUw/Lsx7+GNk+9UVRmzaxU3FTZaUia7a3NvXwh8OyLMe62EnYJsqopnUxH2XMwI7Fe2OHY738MdWmPZQxA58VBzq2g4Evi5q2R70eXwaULetRZU3Z16Ye5uVLgXUxThlRZnz+rFO91r32HOx4T5Qty7FNlDV/jLWVkSprvoBZDwd0Bt4br3OvtmjP8xmxHWkXL8qzK8zMxMWIKKSxf2Zn17htBALsj7y+OrDX5fkTcFG2lAnvjbJn3do23yvO58T3CANlw3pUmTG9Ns+fz4rtYbvYr1mf+k6pqh62PSMrC2mJibjE3yOPMzLkWfN+2IdYln2K273uR3ue5fhb0P5mVdlX1R5teTXOZ8T+wsDfLGWkyoyyqk1d/I1SRuzflBHLU0aUVW3qoayN/bFsDOAx+1Vt6mFe9bel9kfKqLbvWZble4z3RrnxubEtfIa1aQ/roWwaQtZqf6yvrNkfKVvKRO2PfBfx/tQ+UpO9VtaM817V925tZcTfmPb9qPZPjgnauioBlXNNy1yTqVFpxkXfWsK12xdwm9EZnnsGwW3fQLgfHgLPiR3g/owFnFd2RsDZRbhxTXkoqmePPKEa/mNDGys0VN31rUdbXhuv7X1ry2rj/616eF21Heq+tm1R82vLa+Pq+ZrutWW18ZqWV/Npy2rj6vma7rVltfGaltfmq295bV23i4qQGxOHi77+uOQXiKywCBTnln/MU5u3qri2Pdp4Vflrkv6g1KNthzZe1T1cy8zCpYAg5MUlVFiZV1tWG6+qnpqkN1Q9NblWdXkaqh3aerTx6q5t7py2rDZuLm91adqy2nh1ZcydY9n6lNfW2Rj11KdObVltXNvmmsS1ZbVxbdkyoKKafVrB3shRoenHAg5NWsBrZle4LusOF6tv4bF9AFxPDIX72G/h9OjziLXdgJLb5XZqbeV6XJeALoEHTwL8inNB2kVcCgxGul+A7CXuHyjHHGhvFyvflXrwWv/gtYgv1/zzqYosA4KQ7huA7Igo3NZwSh68Vust0iXw05GAwlEx8lNawY5rp9DbRzgqClBxn9IF7qeGwm1pNziPaAeXzT3hOPE7pCzdwMVR9KBLQJfAT0QC1y9fkUFUtCgBQUaQQqCibhd9FfBSeCmjwicffiK3eF+bWXLrFnJj43DRx88oPxUAZgSH4vplRdN8XxulX0yXwP+YBBSg0rRco3KOQKVZRaDiMakzXA7T9XgQnJZ3hNOob5EepnxtVscp/2M9Qr+d/0kJ3Ll5E1eSkpFepjVRQUlV+/SAIDEJZUdG42YZr+F/UjD1uKlb164hKyJSMZ1pgJ4qU5G1fxAKMzLrcRW9qC4BXQIVOCpCpKU25WELODZvCedmikbFdVInuB0aBPvN3eC6ZwTykpVv9uji0yWgS+DBlwC5E5khYVUOqOrAam5P0xAHXJo2SjRfSX7w77pxW3j98mVcCgqpYDozK78ywJefktpgXIXGvTO9dl0CD54EzAMVrqHS3ALO/IJykxZwndQRDju7wmP/eBRmpcpd6JqUB+9h6i3SJaCVwC2SZWPjBaAQbJgbSGuUVjbYZoaGoyin4gc5tdf7ucQL0i8pmqlayJSmNj4Lmor0oEtAl0DtJGBi+ilf7M2BGpXmFnB46BU4jvgCAWcX4kaB9iXFBdV0uFI7ceu5dQk0vgTulpbgKsmyARXJsjUCJWZMGGo5gp2LfgHIi/95km1JQr6SlKIAvyr4PaqszO0JVrLCI3G7qHzhtsbvDfoVdAn89CVgON3UEqebWch3fs6pHj+PWMKJZNqHWsDW8AwiNy7FnTvqTEAHJz/9x67fwf+qBG5cyUd2ZJRi5qnDYGpugDVNI9k2IygEPyeybcnNm8iJjq2T+UwrP/GyCgpB8WX9C9r/q79B/b4aXgKGU01fh01TS1mVVgEqFrD/tSUcfvEibA3/QPzc9YCyGj3u3tW1KA3/CPQadQnUXwI0KdSGLKsdPOsSN5Jto6Jxs6Cw/jfwANdwq7AQNHuJp1Q1GqeaylFItn6BOsn2AX7metMeLAkYTjV9AzZNWikr0jZVvvFzzvB3nPmNJS7sOaVpLTUpZYhFk9rw0QIAiwDM+x/fTja86PQaf34SuHsXRdnZyAwlWbZ8TZSaDpr1zSdk24AgkCz6v0i25QJ4lJF2vZn6ykzqE95PAK4kn9ddwH9+v1r9jmspAUWjIkDFAvb85o/hOZx7+n1kOftJVfff0EOyruFnsLWr5aO6n9n5obEb+iYyeHAXMxSybNnKsvUiy9ZXS6Ah2xaXfVbhfvbWxrpWwcV0pPsFIt3f/HozDQFYhGQbE4c7DzDJlgva3S0t1bfqZNCIq6s3Vv/+KdUrGhXyVGyatMRxwzNwsmiHq9GJxnu4/0Al8bQhOwAAIABJREFUDUCznwFQ6W6U8YMXWQ7gaX0TGXz+wD2eUq4sezG9UWb69Rl8FZMGybaJP+lVWUmavZyU3Kg8H62cqQmjaenWtaIHrq+xQXkJieLenhUeAX2rLAMu7Hc1leOWHhpLAgJUTj3UCgcNz8HlswG4nqV860NQ9N3/hl+PDlQa62HXvN6pPwOgWFOt3as1F9t9yEmyLD1HOBMnT0Q74DVUnETZ+tQlXA6SbTMyGnztEH6cTw3qxwvV44bYc2G8hiDN1lZ+imkppNbfWrrXPWvlxY/PcattyI6OkZV3BYhywUCTjd834maa/lM+Vu+nJveW5u2Ly4nJtRWrnr8WEjCc/JUFDhiehV+/abhzXfXsqUUNDZ5VByoNLtJaVzhTBypG8+MbtZZeYxQQsmxyijIYaL7PYzogErzkhEWgIDoW+VExsl2NjhUvHQIQNa0gOg6FMXFyzPxZwaG4HBGFK5HRUp7xy4yHRiA7JNxYTi1/LTYeeeGRVYKlCmTbBlzZ9ptvvsG6detExHv37oWjo6PE+RXW+gaSgmtKms0MCkFBmfwoE8qTcuR9U3ZaOTFOud4LAHJgp/s312lpqNCjRw/MnTtXqjt9+jQOHTokcS2Aude1cmJia8TR4X1epSxi4pBLMO0fKDJRZWEqB8qEaYWx8cb+mh0ShszgUElnPdx4nvlYp2l/r8ux+hvJDg0Hr8c6+GxYP88xzjbwOTKN/fxyRNXPj8Ccbut6aDwJGPYb/oaImcoPn5f575vadKDSeI+7pjWbByo3bhgQEGDAxYsGHDhgwKZNyv76dQPs7Q3Ys8cAOzsDzp1T4qdOGXD3bk01F7XPd+uWAYmJyhYdbcCJEwZ4eir1qNctLjYgNra8bqa7uxuwbZsBZ84oZfbvN4BtvXq1PF85T+q/D1SKsrLLV5a9hxYlNywCPidOYfPiJdizajX2rFyNHct/xAW/AMS7eWDDgoXYuHCRbMumz8CGBYtgv3cf4t094LDvAM7u2oM546zhcvAwnA8eQvBZO3gdP4lNixZLnax344JFWDx5Kmy277zn4CFkW/9AXE29gNLbt2vaAavM169fP7Ru3RqZmZk4ePAg7O3tcfToUUyePBlLly5FbQZg7UWKc3JlwKoJaZaDWJKnN7YsXoK9lPGq1SIf35OnZXA7sHY91s1fgG1Ll2Hp1OlKfNlypPr6ywBY7eCqkmyTUkATVH3DsGHD8MEHHyApKckoK09PT0yZMgWzZ89Genr6PS9RHVAh2HA/cgxuR47iyIZNWDNnHlbMnAXXQ0eQHx0H5wOHsH7+AuO2ZclSJHv5ICc0HPtWr8WG+QuxdOo0rJw5W+IhZ+0Q6+KGPStXSV9lv2Odu1euwrnde5FVBixMZZgeGCznCCq4EYAQdJjm4zEBJZ9V0JlziHZ2BX8z5719pc0E7MzDe3A7fBSrZs+R5+tx9BhSvH3NPj8dqNyzC9U7gyF23YHySu4/IaX82saYDlSMovivRSoDFQ7wp08bMGmSAYGBBmRmGjB3rgFRUQbcuWPA1KkGLFtmwIQJBowcacDSpQaMHWsAwcSVKwZcumQOBChp+fkGpKeXny8tNSArywCmlwOGynGCErZn+HAD2rZVwMeRI8q1vL0NWLzYAGtrA777zoB58wxYu9aAy5eVax0+bICHh9LeMWMMOHRIaWvl6/33gAoXBuOXjDnL5mzb3EvXNO1qVCx2r1iFycNHgIPC5sVLYdWvH8LtHWWmGOfmgShHZwzv3UcGj1RfP1zw9RdAcnr7Tgzo+gOG9eqNlTNnyeBBEEOQ43X8BGx37oL9nn2IcHDEuIGD4X/aFpyVmrah0rGWbJurmJbr2rU5wBKYTJs2DceOHcOKFSswdepUlJaWYsmSJaDWoLZBIc0GVDmwmd4PB7rAM+cwqFsPbFu2HFuXLIX1kCHY+eNKmf3HubnLYLx69lwM7tETCe6esl2sYuA0rZ/HHPxyomPA9VvqEyZOnCgymTRpEk6ePIktW7aA8du3b+Pw4cNYs2bNPauvCqhwUOc9TRkxEnOtx2NIj56yH9azF1bPmYvi+ETpWzHOrnL/7Huxru6iHfE9dRp9O3fBxGHD8f3nX2B0/wEYP2SoADtqYtiHR/bti3GDBqPn9x0EOBAsUPbUeKjaKTVOAMO6/U7ZwOnAQenv7JtqPspUzUstza4fV+Lcnr0CMAnsCTxXz54jz4+AnWCd4IjXHj1ggIBO5lGBjPaZ6UDlnl2o3hn49n/Agg5U/vsPxDxQCQ42YN06AzIyFNCwdasCQggsCAqopVi/3oCVKw3guYULDUhNNWDiREX7snevUo75CW4ICnx8DFi0yIBduxTNCNOolZk9W0kPDTWA+Ql4TEEEAdPOnQrI4HVXrDBg924FqERGGjBjhtLeYcMM2LHDgOXLlTqoUaE2iECHAItg5uhR5Tqm1wDuP1Chh0VBmkKWrY3LMWeQVJOf3LINM0aNwfZlP2Lr0mWYNGw4Ej29ZOZIcHF4w0aMHzIEy6ZNx97VawR4XE9IhvuRoxjUvTt2/rgCO5evwDSrUaJNodp91pixUh8HpLO792Dt3HngwEPtgvalXV1cNW1cTkjC7evX69TNhwwZgqKiImzfvh3vvvuuDLQzZ7K/AqtXrxYQU9OKSUomt4ADjXARauj9xMGSgyIHV2qruE0ZORIntmxDcUISCFRObduO+RMmwnrwEJExZ+eZQTWXFeVoJNkWlvNyanpvar7BgwcjJycHx48fx1tvvSVyI1BhsLW1xfLlJM5XH6oCKhz4CQaoZWO/WDN3nmhJ1syZK9oP9o918+ZLv1k4abKAX2qZjmzcJCCX/W/e+AlS/sDadVg0abJoAAkIJgwdBuvBgzFu8GAM6dEDYwcOxN7Va3ErKQUX/BR+FjUh3Ai0aep03H8AU0dawWn/QQHe7LepPn6ivaEJJ42APyAI1xOSsHfVGtH2pAcGye8h5Jwddq1YiaK4BEwcOgxTrazkuRKwEHRRE8nraIGP2td1oFJ9/2mIs3xzP2BBByr//QdSGahwAKdWZPJkRYvC482bDcjNVQb4gwcVwDBtmgHz5ysAgmkEDDNnKtoLalwIcggoqHGJiFA0GirwUcELy7m5KaYZ5vP3V0AGzTMEOzQ1EQgR5BDQ8Ho0O7FtBDxsJ0EVz1HDQq2Lra2Sj6BnzhwDpkxRgAzLjh+vAJWSkspg6H4DlRv5V8EvFtd28ORLk4NGjIsrVsyYBat+/UU7MqpffwEcNjt2ySyTKm3ng4dlgDi6cTMOrd+AU9t2wPeUDRZPmSoz2NPbduD45q2YPGIEzuzcLSr1H2fMBC5myIz18IZNoLYgxsWtVkBF+2LnB/3qQraliSc7OxslJSVo27Yt3N3dsW3bNkyfPh0zZsxAXg3do+/cuImcqBhFzjUEKGy/OlBxYCUIGdS9B4b27CXaAJo4CGCoDTi0fqNotJZMmQZqArYsXirArirThSob071qiirO1X6+pOZvCIKS8+fPS4H27dvj7NmzsLGxES0Uz8XFxd2zsqqACkEqt1ljx2L84CHYv3YdlkyZKoP6mV27haNCsGK/bz/WzJ0rAz+1HeT30OSyfPpMzBwzVgDd2rnzMXucNU5u3SbaFwJlgoRu37UH+96kYSOk73kcPS6gmeVoluT1qNGh6cjxwEEsmDhJ6uA1mYdgm4A9ytkFBEtTrUYh0tFZzFQ0TxHg8HdDcHN88xYBPtREsp618+ZLHbwGnyPNQ+aAuQ5U7tmF6p3hJwFUaDrgoOTrq8zQ/fwMoGq/sFBR5V+7pszG1TwODgbcvKkMOuQocGBjXi8vZeA0nTUXFFQcoEJCDHByMoB7Xoszb16PdWnL0jSh5TVw1k+TCPPk5FTMqy2nxB9k9+TKQKWoyIDt2xXAoAIKLVAhgCDXY/BgA8aNUzQrBA3x8Yop6PhxRdNC7QlBxPnzCkihqchUNuSaWFkZsGaNAor27VO0K6tWGbBkiaINITBh3dSOUFsyYoQCgFxcFNlTE0OAsmCBAX36KNem1ofPKCjIgI0bDdiwQdG4EEBRs8I2mbblfgGVmpJlTQcy7TEHgDT/QJnN2uzYKerqScOHy4yV3BMSYKkJ2b1ipdjdj23ajFljxgmnJTM4BKHn7MVkxLzcZo8dJ3uSaqmVObppMxZNmoJjm7YIb6CuQIVt5syWL3iaN2qzsi09fWjmYeCegIUhNTXVmC4J1fy7WVBQRpqt/QJ5GWWghrLiDJw8HprRqCnggEjuBWf2BIsEgfvXrMO6eQuw48cVYvLQPq+axlVNVMHFi9XclflTlJcqI+agyYchLS0N12uo1aoKqBB0kbfBQf3Elq0CEKjRmDBkqPCXaGIhj8luzz4cXL9BTDLUilCrR+0EzZM0M37T9j/o1bGjxPetXiOAjprA3h07Sd+lSYggkGYdalYIUE5u3S5AhqahMDsH0YDwGfw4cxaWTpuO7cuWY8zAgQKmeR3+Dgi8Z44eK32a/ZvgkaY7anDYv8lZKYpLhOexE6JVPL5lm9TF9id4eBlBqulz04GK+b7XkKl8Mz9gobJGhaCBPIRBgwyYPl0Z+Pr1U2bpJHYSgNDEwAGHvIlZswzg7JjAhjNnDpxduyqDEmfrBD4crBjn7H7oUGVGztk3gQcHOfIZaA7gbJucC5oUCHhIFOVsnnk4SBIUqYObq6syg2e9bAsHQ+bnLF7NU77/aQEVclTIG6FMeA+U7+rVCihgnPdMMEeCKrksJLcSYISHK6aVmBgFONDkQsBDk82xY8qeaXxWFy4odRPw0IzE6xA8kOvy44+KPPnc3n1XAajJyQacPGlAWJiizeE1qDmhlocaGT4zamTYV1gf6yWQJAGXAIl9g/Wq5ir1+uXPiG1ofNNPUU5OubdJQHCNTSmmL0zO9qkK5+yPqmra2DmTJTGWs0h6ZNAcwRcvB4twewfMGTceZ3btwa3k8wJESLDlrNdx3wGZudru2CWeF+QUULtybvceJHt6Y85Ya5kVm5thmrarumMh23Jl29QLKGkAsu29XmZF2TkCklRNRXVtq+pcXkSU8BtG9e8v5gPO3Dk75wDHwZmAbtPCxSAxlIMfNQ0cQGmKqKrOe6aXATuaqhqCZHsvOWnPVwVU2GbeL/sIzT+UA0EBB38SYoPL7p2mFmopCOpYhubGOFd34YccLwM4BCKHy7RQNxJTkOztgwUTJ6N7++8xqFt3+J22QXF8khBvmZfakV0rVomZhlqsGaNHS5+nVpB9mKCFwITEXZqRqHGZMXqMgHiCK5qcCHL4fDYuXCz8FP5eSA4mR+Xgug04tnkLvm7zKRz27pcJgKpNM31WOlDR9pbGifNN/ICFykCFAICAguCBs2wCBarsqemg1oNxAgLOoHv3VmbcnG1Tw8LZNgcpmiSoAeDgSeImNSXkTtA8wDLkL3C2Tm0BBzwCEA6AnGkzHwdADmApKQZs2aIAFdV8QE5GXp7CySAvg9dkvWfPKvnMmxR6PjBy54sv18ELd29zRVqG2WaAlSI7evdQDgQI1EhQQ0EgRqDB+6XmhV42qucPPYX4/HhOJczymOBTBQSOjoq8qRljGk1BqjmIxzT98LpMI0AcNUrJFxenaMp4fRJjmZdmn7S08rqpWSO4Ua/FveoRxD5AkMuyBDGqFk6bt6GASnHShTLZlu9uFRcjNzZeNAs1JcuaviS1x5zNB9qelZex04FD8oKm18nmRYtlZk93S2oByEHhTJ8DA2efLEPeBb1VSGQkz4Kqe4IaknCpGqcnBQclakJo9lk8eYoQKat6eWvbdc942SCcFRbRYOuIpG07gpsZ5eYS8n6uXkhTiMm1ILWatp1aK3rvkFjMGT4HRmqeOFCTj8HZufeJk6Jx4mB3cO16AS3kZRDgmNZX22MOilzX5M4NrhzdeCF1/T4UxSsmo7ykJKSTx2NiIiNIZX9ZNXuukFPp/TPXeoIQX9nPKAv2HfY78poIjhlnn0n08BKwRyIrN2oAl0+fAZdDR0Dy7cpZs8WjKsDmDBI8PIVTQq8fyp99lxwgus3TI43aGQIZalaCzpwVgBTu4CiePdQwMg/7LblZ1AaS3Oxz8rQAR5p76Jl0MzFF9tQSRjg6iwcStTrBZ8/JtdkeljNnutOBSuP1Q7VmvsEfsFAZqKiAg6CBoICgg7NgusomJSmzfHpxcHZMPgTV/RyECDTIRyDIIb+B4IFaE5psWCc9QagJIOCwsVHKcRCj1oaeICxLUwW5D6rmhAMxB2kOZhxgOSjTrMHBkdoczuAJZDgQ85oclDlYVxz8DCi51h75vlHI9w1Fvm+YsvmF4WpAROUtKBIFwdGaLQoFIdEoDIutuIXHoTAyvtJ2LSoR12KSKm6xSSiKT0FRwnmpw+GxN+H++me4sNEGt/PHV2qvafv/W8cEkdzu2/Xvvo7SGzdRcv2G7NV4SfF11Hgruo7Ab4fA88NvkXXCEbfzC5SVZQOCZeA0HQDqe8yZO808JNZyhkgtC1+wfFlzoCDgoG2eXhk3k1KMrpwEOhx8OBiwDeqaFkwjGZFghhvr4xosHIRYZ33bq5YXE4evsrLtzcv50o+vBkehQDZt/4/G1cDIir+TwAjkB4Qj3y8MVzyDYPfwa7B7/DXETVmKGxnZyGvglWYpKwIPylMrB8qDclNlTDkzTvk1lKzoBcb1Xq7n5IHyueITUv4OUd8ldd378V0UCscn34Zt078hYuBkpDt74FKIeSIw74l9i30iL1xZP4b9h+kEJNwYp7zoMUM3YjVd0kLCpLwap5xYF/fUxLAPU8bsxyzHvqjKlOZKAmimMw/j7J+My/MpO8d2sU0sx9+G2p/Z79h2lmO7WEa9Bp8h28G61DLMo/ZV7V4HKo0PIX4SQIUzagIJAgp6cBA4kKNAIEIgQMBBTQtBCrkNBBgqX4WmCGpiaN4hiKBmhLNulqWJiOdo2iGfgiCIQIWghACG52jeoKaFmhKaFDhAMi81KARHdHclp4KmJ5p6uL4I6yWQ4nmCKXOD6p3C75DnGoE8F1/kufqVb84+yDPZch29ReNBrYdsZcc5dp6ouHkg56x75e2MG7JtXStvp52RbeOCzGN2ONekBY4Zfgv/1uNQnDTIbJvN3UdDpxHUqRoP1q3VcpjXTJmXb0O1q/TGq8g47IiL248hfdeJsu040nfWcNt1HJf2noKnZTscMBhw9tevIOukIwqysuQbMhx0tC+9+sb5EqbXCUmHXCuCM0eaJLiGCgcKvoy5iBsXgYtycpHZ5nkfPxlsyweAUBkYOMByoSuq1lkXZ7ehdvYyM6Y2geYkXq++bVbLK0DFH7mxcbienYs8Jx/k2HuiUv/n78DJu+LvxIm/G19cdvNHrpMP7B5pCZuHnkPEwCkovnAJeYlJtSbOqu2q6Z4Dm3GArGJQq2ld1eWj2SojJBTFWTnI9wlV5KB9h9QjTvnlufjB4bF/4bThrwj5YRQu2rkgI1RZGK26dtX3HPsSzTLUgHAjwZtaGmpHeI59VkBf2bon9OLJCFTAEDU77McEFvT0IbgguKlvm2pSXgcqOlCRAZOqefIfaMKhRoQghfwQ8hA4IBEUkMzp7KzwEghaCERIaCVQYT5yImgqIrAh14SmCAKc0aMN+P57BVwQlGRnK4TbAQMUrxCm0SWX2hryYahFISAiIOHaG7w+AQnNEgQ2TGO9LJeQoIAerSmifAB9kEw/pYi2motcZ5+yHscvVzcuAFDrJ1+IMuV2+7YC+lROD48JGkmQpWmJQJP5qEVTyzf+vmE4KhGDpiF88EQUJfKjm0q4VXhNyKR80TXUbJsvaLp9Uj0+a+w44aDQls9Fs/iy5zm6kpKgSG8JkmsJQKiKJ/HRduduzBg1WngE5K4E2Z4VoML8XPyK9v4RffqKxwsX+eLMtyYv8+rzKMTajJAw+RJ0Q6w6mbxsG4piy1cLpXnzSsp5BazUUwvEWbf2fnjMGXjIOXuE2jmICYEDJ9O1ebVxbfnaxNlX6BV2u7hY7UaNsk9ZsUM0uKw8LznZrOmnNu2uSd4rUTHKonGzFXdgknLJE1k0eYoAmBNbt4l5kqCbruDeJ07hRlKKgBPyp7iAnN3efWKy5Dop5GKZPoOatKO2eXSg0ihdsEKlfOM/YKGy6Yegg5wHggwObFxngzwQEjV5juCFfAmCFZpdCBS4xgYHN5IxOUsnMOGgRg0HyZTkonDmTu0KzzHOGTsHSeanxoQmHW409ZDfQu8gDpLMwzao5FICJ2pbCKjIYSGwIXghmGG7zHsAPUBk2krLEVf2+mksQECZkkxLIMnnQNI0nyGfEwm5NL0ReNJ8R00VAat50mtjgZeGASolRVUMLHfvojAjExnBIQ0y4+esc/74CdixfIUQDScNHyH8Cbp4xrt7yoJaXFWWXhZ03dy6ZJnY+8knGDNgIKwHDRYCIV1u6c1CYi3NSFx3ggu/sb6xgwZhmtVoIUTS7FHbF7s2P7Uo1BBcSU5Byc3G/4THtYxM4zdptO2oaZwzdoJKAjSVf8HB8HbyeSF/coE9utgyjXkJDsVcVmb6oZlBNa3V9JqSr4zHww8+lhq5ZPfn1V0dmbZW93APLRNBNgE2yeB0ox/Ru48AE5J0Cfz2rVkrrtAEJQTL9DDiqsDklRB0kyBLD6ThvXuDLvTkuzQEOLzXPepApfH74U8CqHCQ1C74xZk2eSZMZ1w9T20IAQPPkUuiDq4EIVpzgppe0z01MFXVR7CibRvzqm7MPKcSRCtf6wECKpX62f0DKpQL3ZUJSghaqIkiQZqkZ5rThgxRNGYEqiS8UkNGgFpZno2V1jBApZKITRJIjuRCaLVZhdbcC5Tqbq4qS0IgFyKjNoXeF+sXLBQSKAmCU0ZY4fT2HZg7frysZeF57LjY6LnmCl2XOQhwmXy6bFJLQLDyZevWQqDlSqJcP4QLwFELQ0KjuXbcK42DvWgHIqLADy3ez8Dr8Yu3tfX8IfDgMvFc74PrfpC8yUF0+qhRMntnGonKXIOGs3nKj54mATa2sk4Hic1c/ZT3XpsBVGTlFyCfIWgIbVNtZX2/gArd4A+v3wS73XvheugwVs2aLV47XM+Ev4soJ1ccXLceV6NjxIuKHmhcJC7CwUlcm2ePtRZvH2URPuU5qJqte/XH+pzXgUpte1Tt8/Pt/oCFyhqV+zcoNdZgZ65eHaioz5VAhZ45BJ3kBhEU0sWZpFnyjWja4xoq1FJRo6JyhdTyjbu/P0BF/REW511GZlhEnU0UtOH/P3vvAV3Hll2JlWxZsmfNOEr2GtuSZtZ4eaxpr7E9M7Isq0dqSf3V7Zb69++fyc9P8jPnTADMABEIgpkgCRIkCBKBESABEAADGJBzzoEEiJwDkfP22ueh8B9AAHx4eAABvPvWqlXx3qradV/dXefscy6jdejqIfHYsWatfJ2ePmwvX54c24cuHKY73756DbidkRD88me4JtPBb/j+ezmGHS31AUwQR/M7ozKYd+XQ9h1ijXnqd0uEiNN9yeu6HKaun+tQWx3n/q5u1GXnmmzFor6HxIyhsvzyJw4nDx6GzcaNotnZt2WrZGalherQjp0ylhKfA5PpOdnYYvW3SwTT9d8tk46VWhZTcKtKTBFi01FXr1/6nM/niqi05hXg9ojLktitXbJUrIHMEksrVO6LVxK11p5fhEvOxyQKh+NWkYgz4Ryjrmjxozsz4PIVxD8MEs2QKTjP5BhFVGa/SSqiMkdajPc7U0VUiAmtKCQiFCzTdUdrCQkLLSjU+FDgzERtjOSiu4+khpqVmVjI3n8WExFJfdvcEhX+5YcGBiSvCL+kp/PVz690fkEyzwRFiUx65XP2vLho+FVKsWfErTu4ffES3A4YMojy67MkJk7CMKlD2bryB/zyZz/Dqm++ley2tA4wMoLmdHYczLvCXBkkK3QvTUewKGLZxGQRy/Z1dM7+2+0DZxjsH0BjUbFJZIVEjuJNZvwlhvs2bxV8aTGh64GWJoYq0xKlExWmXmeGVFpgiBmtLbROmfqVbxDNZoLZij/mb86ISk6+5GChcJvh9bSo1KZnSL4VZoVlNmBa+9iuaRnsKXkjuVMyn0aI7oqZbkm+6QIKu3FT3JV0aZJkzoSIfKisIiqz3zoVUVFEZYJWNneuHwqUqSVimDe1RhQlk5Aw0ktPqkeNEIXK1AJREM2oq8VMVPQHwoytDXkF0pGStHzohUkiwmgf+u0HysrB3B16Lg+O5ssoH2ZIZYdLEzqjdpgM7q7HZcl5QVcGU5vLyLH3A+R4mtV57pd370nSLro6aElw2L0bQV7XTSMqI24edjpMuDaffsPDw0IKOa7OhzAmvsyKyq94Wpn0EXcZbcKxfOKDgiUnDZ8Bc9MwMop4ck7sOdoyB3kk8fvQsxS3mIhmzRsTyZIYzwVRIRHkCN4cLZkuNmJGQkKdyTE7O4laY+4UujRJxIkv9SxMbMhlEm4SSGmfhw6L7srtwEERglPo/CG8Z7JfERVLtraJ61JERRGVCVrG3BEV3bpBXQ/FzMwMTCE0l3VdEC0rupCZIlvjYQv08rM3n3uLivEDYUdqENtmfPDLny97JqVix8nO8E1MvFhTnvnfko6SFhd2thSBUlhLcSw7Bb6kuc+QIyVHdAGsS44declTpFuVnIaCV5HiAuFoygwD/ZDWQlwXSSloef0GHF9nvv46auuEqNDqM1mnRSJDTOh60IWynBMDzimwJYbM22HA0pC/Rhfe6jlBJsvHIef9iKLZyZ7NXBAVYkgrIJO7kVgwqR5dbQxPJmlhm+XI4LRGcTsxpKiW7ZEjgHM7I66YaZakkCnyU0LDpNxkz9NS2xVRmazlWG67IiqKqEzQmuaeqMwe0dBdOObOPy5R0R8OxbaM+PiQ2JYEgxM7Vc5JWJgLZXx0DrdPRjIm28f6WA87Er2jnuxlz/PzBV6XlTPnYlkds+nO6WLUW7myAAAgAElEQVQxR2Q7GQbT3S6YUTRbXoGPIZqdDK+5ICrEiu2RbY846MuMkuKkY6lv55xuR7ZFLrNtUvejE3Hu47JebjbniqhM1nIst10RFUVUJmhNiqj8SJzmB1HRH1JXU9OMxLaz+cLW6xZdTWo62ioqRW+jX/tCmPd3d6N+GiJb/Z5nOqflqTo5FZ0fUTQ72fNhyv7K+ESDxYm6KTWNwaAiLgEtJW8mg09ttwAC85So/O4chp+a+6U903JLLPD4ZqsKGyvA39Tn969mC2Sz6x2k2Lb0reFlaeHMtjPpcEczy+YXoq/z44tlzQWYYmaxXiUkonoGg0SaiiWtZNTv9La9M/eSZ7VcU1GxwWrBIRbU9B4GfM6tZe+P5TWrD8XKKp+nROX3rKCjnM9RP5kAfNQkGITO21dCbzvFtvkmi21N7TjNOY7mb3ZiYhF4L4HgvIVw8gsbHjYMYmiCyNYcvPQyxK0hNx8D3R9fNDsZGBzQcWhwUELJGU6uprEYCDZDQ5PBp7ZbAIF5SFT6ARQCKFjkU7UFHp+qwtoRELFtVbV88bLT0zvAuZrrmWWbX7/BYN/sZ5ad6+dN4iWujilEtmZhrYtmS14LCZjr+1LnUwgsJATmIVFZSPCpa1UIzA8EBrp70GSBzLamdroi/OS4M9m56G5umR8gzNJV9LS9Q216JhjCbCo+Ux0nLrKkFBlBe5YuWVWrEFhUCCiisqgep7oZa0egq7Fx1sW2klk2OVXEsh8rs+xcP2dGXdXnmJ7JdjKioifw43NSP4WAQsA0BBRRMQ0ndZRCYMEgQDFo29tyw+B7FhTbipsnIRmNFMu2dywYPCx1ocRVxmOii82EBHzjyQotMrWZWVaJnaWegarHOhFQRMU6n7u6aytAgFEk9bkWENuO6CmYY2Q+hs/O9aNknhPJZzMNsiKi2bx8DPTO36R3c42jOp9CwFQEFFExFSl1nEJgASIgYtvqGlRzHCAzxLZiRWFm2RJmlu1ZgAjMziV31TeYJrIdIXnNr0sxNDQ4OxejalUILHIEFFFZ5A9Y3Z5CgAgwkZkpmW11d4UulmVm2e6WxS2WNbeF9L57JyHZk4lsdZL3rkpF+JmLsSqnECACiqiodqAQsCIEuho/nNlWF3y2lS+8zLJz/SjpypFcNvFjQ8N1DIm3+ikEFAIzQ0ARlZnhp0orBBYcAoP9/Wgtez+zrYTNJiShMb8AfR3WJ5Y190Ey4VdzyRuDa42uHmaazcwGE/Kpn0JAITBzBBRRmTmGqgaFwIJEgK4LZkWldoWjz1Isy1GE59OAeAsJ2HeVVahKTQMH8VOi2YX05NS1zncEFFGZ709IXZ9CYBYRoNiWHWxTYTEGelREykyhbs0pwEBn10yrUeUVAgoBIwQUUTECQy0qBKwRgcGOLtSHvrLGW7f4PdfcDkVvfbPF61UVKgSsGQFFVKz56at7VwgwIqipDZU3HygsLIBANYlKrco6awEoVRUKgVEEFFEZhUItKASsE4H+5jZU+QWPufmoqCgUFRXJtsbGRjx9+nTMfrUyMQI1d8PQW10/uvPFixcoLS2V9ZqaGnBd/RQCCoHpIaCIyvTwUkcrBBYdApMRle+++w7d3d3Yt28fHj16hOLiYjx58gQDAwMyPXv2DNnZ2aDORf0MCNTcC0dvVd0oHI8fP8YPP/wgOO7cuRMRERHIyMjAy5cv5RjiS0zz8/NHy6gFhYBCYCwCiqiMxUOtKQSsDoH+lneo8g95775v3LiBTz/9FD4+PigpKcH27dtx9uxZODs749ixYzKdP38edXU/dszvVWJlG2rvP0ZPRe2Yu/bw8BAcAwICEBcXB1tbWzg6OuLSpUuC4YkTJ+Du7o7mZqVtGQOcWlEIjCCgiIpqCgoBK0dguH8AtYHP3kNhcHAQX3zxhWxnZ7t27Vr4+fmB5IRWABsbG7i4uKCpSSU108GbiKh0dXXhyy+/lEP2798PTl5eXrh27RqeP3+OvXv3gmSlra1Nr0bNFQIKASMEFFExAkMtKgSsDYHOkrdI+3IzYn/6OfJ3uWCop28Ugr6+PqxevRr9/f0IDAzEoUOHRLcSGhoKun1iY2OxcuVKhIeHj5ax9oXah8/QU14zBob29nbBkRtJ8i5cuIDMzExxA5Go0MpCN1tkZOSYcmpFIaAQMCCgiIpqCQoBK0ZgsKsbkf/673Fb05C99gBgJDehFuXOnTugRYDLvr6+YkFJSEhAamoqXF1d4e/vj87OTitGcOTWR3Q69aGR6K2qH5M0r6enR3AkhsTqypUr4vIpLCxEfHy84EicqVdRP4WAQuB9BBRReR8TtUUhYFUI0F3x+L/6yZhoFasCwBI3OzSMQruTiPx3nyDmz3+DppcJlqhV1aEQUAioQQlVG1AIKAT62t6hOuCJAmKGCJRfuYN72u/i2X/3H9DXoISxM4RTFVcIjCKgLCqjUKgFhYD1ITDQ3S2j/9bl56OrSXWuM2kB9P5E/uQblLh4z6QaVVYhoBAYh4AiKuMAUasKAWtBoPddO2rTM1GVmAyOnMx5e1W1tdz+rNxnW9gB9JXFzkrdqlKFgLUioIiKtT55dd9WjUBnQyOqU9KEnHAuU3KqjKTc8qYUw0NDVo3PtG++PQXI+BkQqwGJfwhUe0y7ClVAIaAQmBgBRVQmxkVtVQgsWgQ4WnLliBVllKToZCUlDZXxSWjML8RgX/+ixcBiNzbYAbyxBSJ/D3iuAZEa8FIzLGf9f0BnjsVOpSpSCFgrAoqoWOuTV/dtdQgMDQ6iueSNWE2qk1MNVhQjgmJMWioTklGXlYP+zi6rw8nkG259AST/n0CEBrwaISkkKvpE4hL9T4C3jsDwj/lpTK5fHagQUAgIAoqoqIagELACBAZ6e9GQm28gKZOQE2OiwmVqVqpT09Hd0moFCE3jFvuqgKK1P1pOdGIy0ZzWFRKZ1D8DWl9N4yTqUIWAQkBHQBEVHQk1VwgsUgT6OjtRm5k9LZKikxYR2SanoqNWjecjzaPOH4j/48mtKBORFW6jdeXV7wAle4ABRfwW6V9N3dYsIaCIyiwBq6pVCMwHBLqbm8UqItYREy0pOknR51UjItvWt+XWO1JyTxmQ+7WBcLwwcu9MRkwm2k73EK0rif8aaHw4H5qHugYLIcARxIf6+zE0MKCm8Rj0D8z4vaGIioUaqqpGITDfEGivrjGEHSelTKlH0QnJh+aVCUloKiqWF/F8u9fZu54hoOoiEPs/TN+KMhFZ4TYSHU753wN0I6nfgkegu7UVVclpqEnPnPWJKQV4Hn0+F+ecyTnoPu7rmNkwG4qoLPi/iLoBhcBYBBha3FpaJq4eWkM+RECms59kpT4nFwM9PWNPuhjXOtINIce0glBrMhnxMGe7bl2J++dA7fXFiJ5V3VN3Swsq4pPA/5upUw0tnCPHGy/r5bmvMTN7TH08rjEjC3VpGWjKzEZDRhbqmQspKQWNGdl4l1cgU3t+IdpyC9CclSv7eDyP47wlOxdtufmyrLt2OWddtanphvMlpchyex7ryUdrTh7e5RXKxPOOluP7hdeZkTV6L/r163NGGPa1d8yoPSiiMiP4VGGFwPxCYLC/H40FRWbpUUwlLHzx8Aur9927+XXzlrqaoV7grRMQ9U9/DDk2h4yYUkYPZc7+FOjKs9QdWLQeEt/FOFkSJBIVRsqN/w/VpKa/t43HkICQGDRl5aAxKwcNmdlozs6VY1mmPiMLFYnJiHsQNFqe298mJOGa2wlkPn2G6ydP4anfLWQ8foratAzEPwzGzTNnceP0GXifOg2fM+fwzO8WGjNzUBwVg5yIFyiOjsHzW3cQcNkTBS8j5bxN2bl4l1+IrGcRqEhKQWtuPlpy8pD7/KXU43fOHSHXvXHL/aJMr+7el3L6cbyfpJBHo9c+HgOSGkVULNnaVF0KgQWMAEWzddk5s0pS9JeQ/kXVWV+/gBGb4NJbngOp/97g5rG0FWUq4kKrTdQ/AyrcgOH5k7+mv6tLXAwUYy+aiRaJ7FyQ1FvqN56o0JpA4qGTD/1/wzktGw88r+GzX/wSbvsPIOiaF/7x734OZ1s7lCckoTIpBfkvI/EmNh6Oe/ZKHSQ2JAYkJkd27hQy8u2nv8G+LVtlmZaSK8eOw9/dHWftHXBkx06E3riJEwcOSp0Ht23HjtVr8Oknf4/1y77HFVc3hN7wQUl0LNyPOuH04SP4+te/xu5162X5kfcNIVKnDh3BPY/LsNu0GZtXrsSWlT8gMfiRkBoXWzs5Ni38MZxtbJH34hXq0jNHiZV+z4qoWKqVqXoUAgscgZ7WVtSkZUgiN/0FMdvzqqRUOd+7isoZodfT04OgoCAMjWTDjY6ORlFR0YzqnHbh/kageLNpIcdTEY6Z7NNDmdP/CmhPmvYtzEYBkl+6+4SYcpiFkUlcFkmpo+v6dlPmLGso/2N9ppSz1DG0CPK/MZtEhZaSIK/rWPKbz5D34qV0+jwnrSJ0rzy8eg3f/fZzIRVB165j2W+/gMPu3WLRyHoagQuOTnKN+7dsRdT9QKSGhYuVY/vqNUIKvE+dgu3GTTjncBTXT50Wi8jlY644e8ReSMrONWtx9fgJuB04iJKYWFx2cZU6SSgObN0m2+9cvCTun8M7duL4vgNY9tvPwfPtXLMO4T6+6CgoAslIUkgo7Hfuwo41a8F60x8/EdJEiw7v0e/ceaz86ms47bWB96kz4noyfvfwuSmLymz8O1WdCoEFhEBnXd2oX9n4BTF+mV95NDO35RWgNSdfXjZc5nE0HfOLjdtpBuZE8y9N0iw3vq7R9ZGIoOaS12BCOXN+g4ODsLOzw7Vr11BbW4vVq1ejpqYGT548QW5urlRZWlqKR48eoampyZxTTF2m8QGQ+L9MLZalpoTp8ZMZtTMycTlqZDLeljKyP25kH+cxRuVSR+qaKEkciY6EMv8u8NoGGLSMe62kpATl5eWCw7t371BWVjY1JiN7SVTY0Yw+75HIMbYJuieohWC7oX5Bd3Ow3UhbYnvKzR/VWfB4vU3RQsBlTnq5pqxcWacVguWas/PkvGyz+rH6nPvY4dOtwfI8hlYF0WxkZKFqigg3XjtJ/WwSFd4rrR9LP/utWCB4v8SQ18rzkwhcdTsBIRf2DtLBh93wGSEqz3DRyVn+k9t+WCXul7CbPiiLT8DJg4dAYnHByUkICQkNyQTv3+fsOSQEBYuFxuvESRS8ioLncTexmvA8a5YsxfWTp3Fg23bs27xVSAbxstm4Eb5nz2P7qjW46OQiVponfv6ICXwoVh8Sm11r12Hvho3Ys34DSKQ6CorFfRQfFCzP95KzC7KfPccFR2fRxhi3F0VUTPqrqYMUAmMR8PHxGX1RZ2RkzP3X+9jLmcHaMFrLKwyDCk5FJkZe2nxZvrp7D1dcjxv5ss/IC5T+a5qAPVyOycuGJmO+LJ/53xKyYvzimWhZRLZ5+WBiOXN+tKps3LgRS5culefh7u6Oc+fOYcuWLbh16xa2bduG69evw8/Pz5zqJy7TXQLkLfkxCmcqa0ichte3NNw5oiHkmGG676ChL0JDx2MNtw9p8D+s4fZhDVf2aPA7pCHRQ0PnEw0FPhpqAjXctdcQ4qrhzBYNRb4aQAIz2Tl1sW3ST4DmsImvfxpbjxw5gj/90z+VMFG2eRcXFylNIvj27dtJa5qIqLBzu3/5ClJCw8R1wa96dpjUN5QnJouGguv69NjHV9wXbGOR9wKkg2PnGn0/ENQ7UIvBDjz2wUM88fWXbdRZsFNlp06dBrez439++y6e+PrhqZ8/XsfEyTrLv7p3H0WR0UgLf4KU0PAJXRB6u50LosJz9b4uFVJAVwkFqc05BuLFjwISFXbuxIj/u0vOxwSX6pR0IQLcV56YhBMHD6G9oGiU+BEDr5OnRCtydPdeBF7xBF0v/LBgGRKZfZu3iIuG/1/XffuFqAReuYq7lzyw/rtl2Pj9cjnnY18/+e/TWnLy0GEs//IrHNq+A7vWrkfErduCr6frcbHa0EVFN9T+rduEzAy9rUTA5Su4feEiYgIfCJmipoXvFop4daw5V0Rl0r+X2qEQmByBv/iLv8Dnn38uB3h6eiI0NBQNDQ3w9/cf/YKfvPT82MN8DU1FJQY9SvLIoIJTfEXyhUHryWWXY/JFxi8tfmXRlFwYGY3K5FQR3FGYt3bpd+L3pnCvNC5+9IvX+OUz0TJN6rUZWehtbzcLJLp/aFnh79NPP5XncfLkSbGskFzu3r0bgYGBM87JICeovgLE/sHUVhRjEpGsIcxVg+MqDbeOGiabJRqqAzQMRmloDddQG6Lh0HINvgc0vIvQ0P1cQ0uohodOGuqCNFyz0bD9aw0Hv9dQ/mDEqmJ8jomWGcZMl1DhWqDP/JGtPTw88MknnwjZo3Xq4sWLCA4OhqOjI/bt24dXrybOmjueqNCCQbJLrQI7we8//0I6ue8//xy5ES+EkLA98Wue+gdqLcriE6Xt8Wv9zBEHfPPrT8V9wa9+dpwRt+6IHuPo7j3ylU/9RmzgQ5TGJUjbC7/pKx0zO1t+1bOjptuiNDYeL+7cFcvED19/je2rVmPFl1+JnoLnnEgvIR3nHFhUaN0hcVr+xZegpSTzyTPRjNBaRA1KqPdN0XeQJNht2oLj+/bLBwI1KvkvXgnpqMvIFGsJy4jgNa9AtC0kObz/L//hH0QgS5LCOklMuEwyd9/jMjoLiwUbOd+Nmwj28hYLy/3LnvB3v4DUsMeiNTm+/wCI/W9+8QtsXL4Cjrv3yv769Cw47NqNH77+Bod37MCRnbtwzG6f1MHnSjfReQdHeZZcTw4Ng/fpM0KqjN8PiqiY9TpUhawdARsbG6xfv15e1OHh4bhz5w7s7e2lE9y+fTuys7PnNUQD3T2oz8mblmiWX5EdhcW45X5BfMn0azN6gGZdfgXzpR77IEhegDTvnrM/Cr/z7tLRTPbCN34Z6ct6YrnupuZpY0jCePToUdAVxOeTnp4uJCUuLk7I5OPHj/HFF1+A1hezf4ysyf5Hg3tlOmLZVA1xFzSc2KAhwFnDfWcNR1dpaAvTMBir4fU9DS/PaHBeo8Fzj4ZwNw3VjzTUhGk4tUmDzwENLms1LPk7Dac3Gywz4kaaiJyM36ZbV+L/BKjzMevWSfhCQkIE3/Pnz+PSpUvYsWOH1EW30IEDByasdzxRYVsgCWG74dczv+DvXro8KtqkpeXysePS6bKT4zHsQNkpRt4PgM2GjVj9zbe4deGi6B1IShiRQnLDOhlZQhcGtQ7njzoKgSHBRmUNHly9Bodde9D3pgx9r8skAobnY93UY1AoSk0I9R90veguJb1t6vO5sKjQ6kQx65nD9rh70QNxD4MQcMVTiBzFtA+veSHk+g0kBIXgkfdNEaLynrPEfeKEbatW48wRe2xY9r3oWOhS4YdD3MNg2U4LzGMfP7g7Osq9xweFSGQOrS/UtAR7Xcc1t5NCKvi8SIxIYhi9w48R/ucpmCUxIlbcF+h5Vdw3JEa6i4okh3Xzo4aiX14Tz0trVllcAtIfPwUtZtTQ7N+6Vd4h1OfoWHOuiMqEfy21USEwNQJbt24Fvyr5hc6O8fjx43BycpJCdDPcvHlz6go+4l6GBNNqoQsCjV8IUy3zxUnfMjsWvgTXfLsEO1avFZEczck0mZ8+Yo+Xd+7Jl1PwdW8wLJEvPJadqu7x+/hiqkpMQXvV9CwAeXl5QkwIL8W0rq6uuHz5suhVaO06ffo0EhMTzUOfIcflrkD0PzNYUcaTganWYzQ0h2nwttOw/3sNO740WEVc12uIuqihKkjDjX0aYq9ruLhDQ8RJDRFnNMReMOy7vEtD5FkNrus0HFxuICq0roBalqnOO34frSvUr+T8BugqnBYOtJzQGtXc3Iyf/OQncHBwwMGDB1FcXIywsDA4OztPWN94okL3IQktLSjUWHi6uoFf5AyFzXjyVHQi0QEP8PCql5AXWhPYtkhwaGGh7oFtkBErJCXM+0E9CtsmXQuPff2lA43wvy0RKBRusvPldka40DVBiwrdSCQwDMn1cD6GTStWYN+WLbDbvEUIDzvnyQj2XBAVnoMdNq0a1NXwP8Q5t/P/QosPxap0AxFT3guvl2REJwG0yND9QxLHZZIGkhyWJZEguaCmjMdzH+thHZxIPhg1xONYhuSD5+U6c7HwvDoh0f+/3Mb9+jrntAxxO+vkXLdy6efRz0vSwuvguYzLc1kRlQn/WmqjQmBqBJYtWyaizPz8fPzhH/6h6B5o/k5ISBDyEhsbO3UFH2lvV0PjaLTE+JfBh9YpPORLhV9v9PfzC40vfX7x0lTMF+WpQ4fhf/4CfM+dl6+rQ9t3SiczXaIi1zIism0pLcPw8NBHQmzktG0xQNr/PX0rik4UojT0vdKQflVDlLuGZycNlpNbDhqSLxsIB/UqQc4awtw0PDmr4eQmDcW3NDQ80+C+3TCRqGz/UsPJjQY30LSJin49DGWO+W+Aqgsm43rv3j1ERkbK8d7e3vDy8hKyTksK9SoUL0/0G09UKK5mHo5jdvvF7XLtxEkRaTIkli6LiiSDRoV5Na4ed0NiSCjo4mEHRtJLcSgjTxgxQssdw16Zv4P6BpIMah6oT+FE6x87duYGodUmIZjWhxvScZ84cEiIETt/EhcSFVpktv7wAw7t2CkdOzvTif4Xc0FUJjqv8Tb+H2mNoBhZD0UmcalLyxSyQFIwfmJ5EhliyfumO4hEgsvcl//ylVhmSFBI1EhuWLfxeSWx3CQu4vEkZUw5neCMIzL6MSzL69XXjeeKqEz0z1LbFAIfQIDRI62thoHh+AJnBERBQQFoHn/+/PkHSn+c3e8qqwyi2aQpInAmeQHxpaG/SOx37RaRIgkKcynQx8+XGTsg+stJWviVyi/Zg9t2iPhxvCnX+CX0oWWKbBsLCjHY1zf3wA22GyJnIn/XQFL0jn668ygN/bEa/A5ouLZXw/NTGvwPakj11tAQZIjm4faEixpK7mgoDtRwbquGhEsahlM0XN2r4dJODTEXDC6h67YGYS2SpmlRMb5uPZQ546+B9uRZw3Y8UWE7YudI1wNFoCQbB7dux4s790QUe+eih3TA7CwZGsuvfhHI3rsv7gZGj9ClQ20DiQXr6C5+LUQkOiBQ3Dosw4mdOMk1XRV0W1IwS8tNV1EJ3sYnSvIyWmwuODlj26pVQlKoU9m0fMVHJyoGi0quWINo6dAtKfy/kEDR+kDNx41TZ2CzcZNE4TBJG0kb/4ucaL2groeYG3DPFEsV9S6JIY/EPcY6KIBnRBDxZr4Ut/0HYbtpE3auXScfHvr//0P/1dnar4jKrP09VcUKgfmBwPDgIJpfl46IZs0jKXwB0SpCfziFi+w4+HKkv5lfvfSd8+uMX74+Z8+LkI5fsLSwMOSQZuSZvMRIVuqycsBOz9K/gbZ29NVPoIdhyHHyvzFdLGtMAsYvxxhEsxnXNGRd13B8vQaSjXtHDdYVRu9EnNIQ7KzhyUkNT04bCA2FthX3DFaXpycM7qGb+w3uIR6L6JHw5fHnm846XUGRvw+UHgKGuiwCb3dZJQY7uqWu/t5eIcj68zeIae+L+4YuQ+pBaBWhHuLF7btCYhgqSzcP9Scsx/bDjppRQbSkcDuFnbSaUO/AtkmtCUkJO2T9XJxzneV5DKNbSKS5bHBtGKJ+GCJLdxQnWlzO2TsIaaLVwrgufXnUojIwMCO8ul4bwr1ZCcf6Mc5MSzLCiDm6x0i0SFb085OEMRyYwlRnW1tsXfmDROKQuDFihpYpRvO8TUiEs42duGgYjk3yp4tX73tcEUHzuqXfyYcHMeF/m/9XPgs+EwrlGZHDffq5P8ZcEZUZNTNVeKYIMK32QHunmmYJAyZJasjNn5ZodqoXEU2ztI7oUQS6aZydAV/eNCHL16yM6VEgy5O97Kc6z0T7JO1+ajq6mpow2N2LwY4uDHZ2T2/q7sGg8dTVjebIJDz/479EscN5dL+tw3BPgekhx9MhBCQVtIDEG+VS4TLzqFDsyjwq1JzwGOZJ4aQTkQQN4MTjmU+FE/dN5/xTHauLbVP+D6AxEEO9XRjsGofVONwmxb6jC4X7TuH5//b/osLzDroqqmX07fHPlK5CWjxo3aC1w7gzZKds0EUYtBksS5cD21lX8Wv0lpQaptelolFh2zPkTcmV9sk2qk96++MxrFPPl6JfDyNTZBohM3JMZvZ7hEc/nnOdqPS3d5jXDtluO7oQ/5ffIuGT79D4LBZddfVgAkS5V/6fUtKEOJD8Mxka/1u8f060SDFihgnSjtnaiTuMUVS0htCSQmJDslWfkYmN3xvEtIzyIeYM52ZyNuqCqMlhJlm6cXne1d8uAS2mEkm0ebNo0agJmumHhjF25iwrojLTnlaVNxsBvgjLzt1Ehc99VPk8VJNFMXggeLYWlsgLj390c14QppThi5OdAjua8SZqU8qbfAy/qOMT0VL2Fk0vE1DpxXYTNL3JNwhVRlP17VCUHL2AB9p/i3va7yPta1v0l3oDsb8/fcHsVEQgSkP3Uw2ltw0hxU0hGgp9NZTd0TBIF0yMIZ+KLCdo6HoyQmB0MkIyE6+h8r6GflpASFS4bapzTncfhbbUrpSsQEtcMiq8AsdgZYybLE+Cfc2dMKR9vhl3td/BI+1/QrHLJdRm54whKyS86eFPxC3IvCiMMqHGhNvZhmi5K3wVheLoWLGCsPMl4aDFhPtYhpEkkffuiwuDbZCCW4Ykcz8tJNxPUS6tCOxoSUDY1hilQv0Fz8VyJrc/I7coSURNRibqwyNReT1gem2QuPkGofrWI7z4n/8j7mgaXv7JT1H7+BVqjKwmJEPD5VViPaI7iiRDv2ZeNwnH5hUrJcSb+WJunj4L202bxe1KVyxzolQmp+Donr0oiooRAS3x++GbbyS8m2UPb9+JvRs2wcXGFtkRz+Gwew/OOxyVyComhcdr9ScAACAASURBVKNbzvfsOXE1mYOTpcooomJ2N6sKzhSBnpoG6UxnWo8qPzUC3S2WS41v/GLnMie+/JgiO/lRmCTWImExPo4vq/Hr032B8aVNi8q7iipgeHjqG57m3raUbMT++eeo8n0oX7lSvOcNkPuVQZfCDny6nf4Exw9FGxK4MV8Ko3ju22uwX6mh0EdDX7IGr70aiv00VD7UcGydwRU0mKCh4r7BReS+Q8Mn/0GD42oNdx00RLtbyKqiW1Po5moMmiZ6Ex9eevo6kr9cg/bMAojrxyiZIDtbaifopgi4clXGgaHY1XGvjXTEtNa52NpKR0v9xKbly0WHkRIWLm2Mnek9jyvYvGKF6C0o6CZJYYIxJjdbv2yZWBjoDvE6cUr0U3QjURhKtw7Fu3RtMLdKXbp5ZEW3qOhDNkyMwoe3pn+zHQV2x9FbXY/ejo4xrh9afpjojZYSyemSliG6GlqW6GalDoyWEI6PQ3LhduCA6ML40UDXD11GDVnZkqPGMGpxgZBA5ilhDhTbjZvFmsJ098x7QtxF2PztEjjZ2EiuJPtdu0SrQpfbTP/D0/3PGx+viMqH25I6YpYQ6K1rQrVf8CzVrqo1RoADw1HjQa2H8QvAlGW+lPk1SgLCpG5iPRkxzfNLtzIxRUzE1AowUyXDKflS03UBnLMOvlw5N+Wcxsfo1qDO+gbjW7LY8lBPL4YHJ4kqqvMF4v/FzHUqMYaEbkzkxlwpwS4afPdrYMK31/4aap9oWPlLDWc2azizVcMVW0MI8vOzGqpDNAS5avA+qMF2iQa3DRp89mvI9xmxrExAikwmVrTOvPwdoGQXMNhmMUwHuwz6FFbY19U1JoU+iQqJAwlGcmi4kNxn/rclMRg7SxIOuiMYscOveloTKJ6ldYVWEmonmCdl5Vdf4faFS9i1br2EGjOJGfOuSKr29RtkzmyozDrL7K3M48GB9hhaz7FlKBxl/hXdfWnc5j60rBOVGaXQHwbY9vSf8aCEtB7xv0WXD60kTH/P/xeJCS0rJDG0KjFXUf+btyKGJW4UFfO/d+/SZexZv17KkbhRU0aM+R8mSeHYQBecXETHcs7BEacOHpZyL0eyThNjJuOjW4mDChIjRVT0J6XmVoWAIipz+7j5Um0qLJo2WeFLiuZz+rQPb98hUT4ME+UXMU3HNOHTX86RVBlBwWggrvP4N3Hx8pXGrJUUTbIj+lAnYLy/KiEZNemZ6G2zzHg1ZiHeVwcUbTJkdzXXuhKjoe2pBqfVGkJcDDlUNn+pYd93GryYDyVLw6bPNLis0eC60ZAv5fAKDS/OaygL07D3Gw1X92u4vNuQZp/Za1OvmJiZdiIio0f8pPw7gKM9z+JvoqgfkhVaNxilwkyxgZ7XxHpAfRMjUDiODAfMu37ilCQ8o26CHXPSI0OoclFUNBx37xFLA5PBpT02uJEuOjrLCL/UalCHYdBpZEnuFeb0YVIxpoFnZlx2/uzwjdubqcsWISrjMDcmKrwOnoOWp4KXkeIWI+FipBIJg072mDuG1haOTswoILrNeBzFxgzTpi6FE5PjBVz2FOsnLTB0DTHyh4SReY9IUFgndTD8j8q+mFgRN9NSSv3PVGMfmYrb+ONIyDjJPRktjz9OWVTGNRa1OncIKKIyd1jrZxoeGgbzktCyYqp1g4JHmpE5jDtNwByAjCSE+VLYqTD8UdJiu7rh7BEH6WA4BguFfhyPZdnnX0h0EAV6/Boc/xKabJ3XyOy5/d0zyCKr37gl5s1PgOR/a551JUbDuycaruw2ZKa9usdgTeGYPXePGLQnNt8a9h9ZocHuOw22SzWEumhAnoYTGw0WGOZYCXEz5GB5F26mRYU6lOh/CpQ58JPeEshMWcd4osLnzQ6R+hGOqUOiQTcMI1zYMdNtQdcMCS+/6kmIGenD8Fm6Qjj6LvUXSz/7TLKmbv1hldRDKwHHl1r1zbfSLhlizPaY+TRCLA0sSyvNL3/2N5IxmaRoqpwgk7VLbp8LosLzUDTLDwWSCL0z16+L23Q3K/HkNTEHDYkGrZoUKJNg0JJJSwvdXAWvIgV71tueX4SuotdyHOskydHPRaspXWXM3svz8DnpAzzq55/pnPoZDmHAZ05yxTlJF8nT+LoVUZnyL6Z2ziYCiqjMJrpT191eXSPmeN2tMv7FYLzOlx2tIfxKZQgoSQrDkmlV4RcxTcPUEjCnyunD9mLSZ9QB/dwkN/Sx0yWU/Ch0VNBoXP97y/poysUl4HhE8+o32GleXhXqQNI0pFwxZKd9dEyD31FDqvyb+zR0J2jwttVQflfDpd0asq8bjqN4FhmGZbp77h/VcN9Jw/ltGnolads09DO0otDVk/kJ0JE5Z7BORFTYmZKEpIc/hbujk1g3nt++Ix3U65hYye/BDos6FLosUNcgnW2I9w1pixSH0krHjpW6Cg5GyHbKFPK0xHBsGbY9uh15DBOZUXBK6wLdSBednCTZmy6wfa8NGglnJ9o3F0SF56D7hxFJJCQkVuPF6swqy9QAHO+IWG1euVKsRbQaJQQ/wtkj9ti7fiMKI6MkCSMHf2SdJCJMv09M+H+mq4hZgekSI5lhKnwSPYqcGXVEF5xkDRYXcLZcC/EmNsSY10UsOee18hy0Vk3mLiJRYuI5fuAc2rZdMlrz/UKXEy1fvGdjV7EiKnP2d1UnGo+AIirjEZnbdY6lwxeNPrbORC9kfRtfHCQm9PPzy4fmYKYgp9uHQlp2FBwvhcvMu0BXEeclMXHiH+cXcfaziA8SFb6caUlpe/tjfom5RcXEs71LANJ/Znqm2hgN9Y8MSd7Ob9VAchJzzTAKMhO5kYw8cNRwz34kv4q9IeEb3TvUqHBQQiaE4xhAnJgsjjlZTApR1sWysX84rUy0JiLxwcPGExV2ZnQ1MMkaycTe9RtG8qJcly93flWTvDCR2YFt24UU81hGBVEcy4gdCrjZ6fJLnyG2zNDKTvWyi6ukyT958LBYYUik6RLxOXNWEspRq8LU/KyDlhx2yiQyejs3dT4XRIVkgvfEcXBIEpjtmS4ZEgP9OmlJIang0AGnDh2SjLrUlTju3StaH35QMG8K3WtcJi60UNGSYbBK/VYigDiW0EVnFxEjM3KKhIE6Icc9NoITCR6tVbSu8H/PHC7MUM3hC3hNzJfEMGb3o46SUI/XTOz5rqAlhtdJ0sKJyyQzJDrUzrA8LbYU9+5YvQbMSCwZhK/fGB0tWhGVD/7N1AGzhYAiKrOFrOn19nV0oDbTtHF/+GLhmCn8GtK/oPjC4bIusDUs58oLjdvYCfDFxK9BfnHxBa+/ZMfP+TLi1FFTa/oNfNQjh4GKU6aN/ROtofOxhuFXhokkI8VDQ473SMhypGG/WFBiNDQGa+h7rqE11LDM1PuZXj9OLF/ib0KIMjU1nPK/B3pefxS0xhMVahKiAx9IGyGJYNI3CmHp/tG/2qm9iAoIlM6MHTMzyrJD08WvbEe0uJCokPSwTcYEPJCQXbZJujpotWE0EK0vbIt0W1KQWhwdI50njyPhGd8OTVmfC6JCEkBLBnFhyDV1KKu/WYKaNIOug9fZnJMnRGLdd8sks+6qb5eIpYnRT9Th0GrFcZH4AUE3GF2xXKbWhYMw0hLKrMAkjEyed+rwEWQ/jZByTOhI4seBR7/59FPQ4kWSwkEOmTSPuiG6f2kVoTWEc14vCQ+1QgwR158RE8nxufM5cZk6GT6TtUuXyjXRTbxv8xYhKiQpOc9fSFZc3eWliMpH+euqkxIBRVTmRzsY7O1FQ14+KuOnHxFkykvdlGNo1eHXFgWFC+7H0ZRzPvtwKLOevI35T5i8jQneODGJGwWvzI0SO0I+9IRuLMNl/VjjedwUbh/dipLwL4CGux8V0vFEhe2hIcOQUI0dEYmsPunWApIIdmR62+Eyia6x9YPLPE7XTvAYugv0MpyzPp6Dy+woeR52llMRZuPyky3PNlHhtfIcHHeIxIr6HBIORgCRgHE/r43LtGZ8/8WXWLNkCZZ+9lsRvJOokFjQksRxjGg9IvFg7hQOUcD/Gq0Yy7/4UqKjSGioCRKi8uy5jKVELRCjgTjwI8tx1GWWcbXbD9TUS34bWkBITmj5orCexMfzuJtMrIsRRiQ21KcxBJ0DUJKQ0DVHHdv+LdvgbGsnGXAP79gh18KMuXxOPD+JKJ+hIiof9S9s3SdXRGX+PH+m2W+xQJr9yV7sU22nq4eh0/2dlknf/tFQrfUG4v/IPLHtRJE55m6jDuXVfwIUrQcYsfSRfxMRlanaw0LYN+tEJS1DhKVbVqwU11VZXKJYjFZ/+61YI3RtDTt0umRd7PbhnIOD5KIxuHgOSTQPyQ1dQjdOnxUiQpca3S3s/Bl1RWKxbukyiRBiFBT1O9SX0c1Dd9vDa164f8UT5486Ie5hkCR/Y1g5autF/Hxk506xxDBqi7lt7npcFqEyrSp0R1E/xDrpKiZBodCZbiOSIo6WTNE0t4llZ9t20bexfpJOup7oPqbWRRGVj/wntubTK6Iy/57+u4pKSaw20y9OUzsbkpTGgiLMKB/FfIKRxKDgB4O7xdxQZnMJim5FSf2/gNbZDTmeDuR0L1bEJYj2iM97MUzMkMx095Zst8bhyZLULSsHu9atE+0X88VwTC1aL5iRllobduB0xzIMmekASBqYAp/uLbphOEI1R6RmdBXFtRS7U59DVxv1ZNS2cDsz2r66FyAEiHloSFToImKeGe4LvHJVEsrR9cZxgPZv3SqWlf1bt4lrjVYbHkNLCN1TnKhP4bkZFk0LC91AFN0z/w3JE8On6SZmOgOSIlpPSGyYIZeEiy45Wmvo6qNFTBGV6fzj1LEWRUARFYvCabHKmFiNRIMvB1MJx7SPE9FssoRKc7ynRfdrfAgk/q9zZ12hFYUDC5YdttjAgpZ6JozconC7u7ll8Uy8n5YWWLLtGhMV/p+oUaFFwv+8u7iBqC0hgeFHBEOH6b6h+4t6HgpZmQ+FJIEaD5ahxYKRdtSjlMbFC6GheJjWFIrdSQboViIB4XhLHAWdpIf1Prp+Q7QsrJ+WFtZNUqTnneE5SCJo0WH0DsOLjafyxGQZqoDbuFyZlCrrJCcpoWFCinRXHN1XzI9DEkQRLpdpSeEIzjyn/i7iuGUz+WkzKazKWi8CiqjM32ff++4datMzxqT0njYZmSTEk1+i1KS019TMXwAscWUDLcAbO+DVf2rQr5hrKZmqnJ64LeOvAUYiqd+CRWA8USFhYCfP5GzU4nCqTTXkU6HORjpwZo0e0fOwwye5IRmgeJ1EgMush1YJ7tM1PtzGSdf56BmnmWqf9QopGRl3iGSEdetWVtbFa2HZqpRUqVuvT5/z3DxOn3M711m3XlZ/n3AfCRC3M9ya5yMRI5nSyyiLyoJt1gv/whVRmd/PcKC7WxKu0VSvv1RmOtdDobsam+b3zVvy6tqigbT/x2BdIbGYinhMZx/zqDDkuPIsgEVolbLkM1gAdXU1N6M8On6Ma6yaY+zIYJyLw2VmituvgqJ+3ncSByE13Dddh33v2mf0FJVFZUbwWW9hRVTm/7On2b6pqERentVThBabQmD4kqrNyEJv+8xeOPMftQmucLgPKDsKRP2XM7euUPtCVw8jjbqLJziZ2rQQERjo7UVHbR3oelXTWAw66uox2Nc/o8eqiMqM4LPewoqoLJxn31ZeYXADmUlWSFIa8gowYDQI28K5ewteaWc2kPUrA9GYrnVFF8vG/wnAwRLVTyGgEDAZAUVUTIZKHWiMgCIqxmjM/+WO2noR2E5LZKunw3/9BgyBVr8RBGquArH/veliW1pRSGyKNwJ9i1zboxqJQmAWEFBEZRZAtYYqFVFZeE+Zgj+K3yoTkz+oW6H4jpoUhjyr3wQI9JQaMsaShEwWyqxbUZL+d4CDIqqfQkAhYBYCiqiYBZsqpIjKwmwD/V1dkqBtKpGtWF2SU8XXvjDvcg6vuuHexKHMEnL8e8DrXcBA2xxekDqVQmDxIaCIyuJ7pnNyR4qozAnMs3ISJrpioraJyAqtLTXpGehpU52ryeAPNAPF24CXv2PQr9DCkv5XQHuSyVWoAxUCCoHJEVBEZXJs1J4pEFBEZQpwFsCu4eFhSdgmZGVEZMvl+pxcMLRZ/cxAoOU5kPqXQJkDMDxgRgWqiEJAITARAoqoTISK2vZBBBRR+SBEC+KA9uoaEdlWxidKKDNDmtXPfAQ6CkrRmlxifgWqpEJAIfAeAoqovAeJ2mAKAoqomILSwjimq6ERDGFWv5kj0Jaaj4bH0TOvSNWgEFAIjCKgiMooFGphOggoojIdtNSx1oLAu8wCND5RRMVanre6z7lBQBGVucF50Z1FEZVF90jVDVkAgfbsQjQ8jhqtKSAgAMnJybKem5sLrqufQkAhMD0EFFGZHl7q6BEEFFFRTUEh8D4CHbnFqA9/NbojJSUFS5cuRXl5OTZv3gyuP336FLdu3UJ/fz/q6+tx8+ZNvHjxAoMqqd4obmpBIWCMgCIqxmioZZMRUETFZKjUgVaEQGfBa9SHvhxzx4GBgfjpT3+K6OhohIaGYufOnXB0dISDgwMOHjwINzc3eHp6oqWlZUw5taIQUAgYEFBERbUEsxBQRMUs2FShRY5Ab10jml4mjrnL3t5erFy5UrbZ2dnB2dkZDx48wMOHD5GRkQF7e3shLHV1dWPKqRWFgELAgIAiKqolmIWAIipmwaYKLWIEOgrfoOyCLwpsjqMhPAoYHpa7bW9vx6pVq8DcNTdu3MCJEyfE1RMWFgZaWyIiImR/TEzMIkZH3ZpCwHwEFFExHzurLqmIilU/fnXzEyDQlpKNUO1f4r72nyN73cHRI6hFiYqKEg0KycqjR4/g5eWFhoYGlJSUiNvn1atXQmRGC6kFhYBCYBQBRVRGoVAL00FAEZXpoKWOtRYEslbY4tHv/DF6KtQoydbyzNV9zj4CiqjMPsaL8gyKqCzKx6puaoYItCRlodDu1AxrUcUVAgoBYwQUUTFGQy2bjIAiKiZDpQ60AgTo0umorUNtVjbqc/LQ06oGdbSCx65ucY4QUERljoBebKdRRGWxPVF1P+Yi0NP2Dg25+eDI01XJqahKSZPxk5pL3qgBHs0FVZVTCBghoIiKERhq0XQEFFExHSt15OJEYKC3Fy1vSg3kJDEZ1SlpYyYZmTo1He1V1RhWydwWZyNQdzUnCCiiMicwL76TKKKy+J6puiPTEBgeHkJHTS1q0jMhZCQ5dQxBMSYstLDwmLrsXHQ3q4RupiGsjlIIjEVAEZWxeKg1ExFQRMVEoNRhiwoBak8a8vKFfFQlpUxKUIzJCpd5bFViMpqKSzDQ3bOoMFE3oxCYbQQUUZlthBdp/YqoLNIHq25rQgQGenoMbp4RwjGeiJi6TutKTWo63lVWKXfQhEirjQqB9xFQROV9TNQWExBQRMUEkNQhCx6B4aEhtFfXoCYt44NuHlPJyo/uoBx0NzUveIzUDSgEZhsBRVRmG+FFWr8iKov0warbGkWgu6VFQo1pBSG5MJWImHpcVeKP7qD+zq7R86oFhYBCYCwCiqiMxUOtmYiAIiomAqUOW3AIDHR3o/n1G9GUUFdiKvEw9zgR5NIdVFGJoYGBBYeXumCFwGwjoIjKbCO8SOtXRGWRPlgrvq2hwUGDmyc13eDmGRdubC4RMaXcqDsoKwddjU1W/BTUrSsE3kdAEZX3MVFbTEBAERUTQFKHLBgEelpaUZ+da4jmmQU3jylkhccwOqgyIRlNhcXo6+xcMPipC1UIzCYCiqjMJrqLuG5FVBbxw7WiWxM3T3HJiJvH9HBjU4mHuccxy211chrayisw1N//0Z4Io50aC4vQVFSsJjMxaCwolCivj/YQF8GJFVFZBA/xY9yCIiofA3V1TkshQDcPQ4QZKkwLhrmEYlbLjSSLq83MRldjo6VufVr19HV0oCI+UYYHIHlS0/QxKI9LAMmK+pmPgCIq5mNn1SUVUbHqx7+gb76rqRl1WTkfdPNQN9KUnYt3+YV4l1cgU0tOnkQA1WdkyXpbXgHauX/kGG5nucasHNSlZ4LrnDeMbK9Lyxipq9BQLq8Arbn5UxIlcQclJktnR+Iwlz+6n6aT2G5WidscaoYseR8kd7RIqZ/5CCiiYj52Vl1SERXre/w9PT1ISkoavfH8/HxUVlaOrs/3hf6uLukw2HGY0vnWp2ci7kEQHnhew8OrXnh49Rpe3LmLpqwcpIU/wS33C7h70QP3PC7D5+w53L5wEalh4WgvKJL9b2LjUfAqEvqcJCf/ZSRuuV+Uyf+8u8yDrnkJuaF1Z6oOUq47ORWtb8sxaKY7KD09HR0jZKeqqgp1dXVTPjZFVMaO3zTV85lsnyIqUzYxk3YqomISTOqg8QgoojIekcW/3t/fj02bNiE0NFQ6u5UrV6K6uhppaWmora0VABobG5GSkoK+vr55A8jQwKCE/lZPM5qHxMJxjw0c9+zFOYejOHnwMGw2bhIrSe7zl4i8F4Cnfrew8quvcffSZcQ9DMabmDhEBQRi0/IV2PbDKmxZuRLrv1uGHavXICfiBSqTUvDq3n088r6B/Vu3Iep+AGIfBKHGVGuB7g7KyEJnQ8O0Mf6bv/kbbNy4Ucp5eXkhODgYw8PDQkBbW1vfq08RFUVU3msUH2GDIiofAfTFcEpFVBbDU5z+PdTX12Pt2rXYsGGDEBJfX1+cPXsWdnZ2ePLkicw9PDzg5+c3/cpnoQRDfeuzP+zmGf81TPdNR0ERTh06jLP2Drhx+iw8j7vBfucuNGZmozk7F3kvXsHvvDtWfPkVrrqdQHTAA3QXv8aN02ewe/0GHNi6TcpyTrLz8u49vI1PRPaz53LsmSP2IOFJf/wUpbHxqP2ARcX4Gg3RQUlozC/EdNxBe/bswWeffYbExEQhnCQq7u7uOHnyJLivvLx8zFNQREURlTEN4iOtKKLykYBf6KdVRGWhP0Hzr9/b2xs7duyQCn71q1/Bx8cHBw4cwL1796TDO3jwoJAW888w85J9HZ0S4suEbaa4eYxJAJfp9sl6GgEXWztsW7VaLCK7163HkZ27kPnkmRANd0cnxD0MgouNLWIfPISHyzE8u3Ub7/IKxRV0cNsOeJ04CdtNmxBx67ZoUV7cuYfrJ08JcfntL34pBOjKseNCXqhnGX8dH1qnW6Ga7qCytya5g2xsbJCcnIydO3fC09MTrq6ucHBwEMD5HP39/ceAbwpRoe5mvNtK1+VMdP21aRlC9kgGjfdzu14P51wfs3+CbSSNdMU1ZBjmXKY+SK/HuDyXjc8xft/4ddah18V69YnbZV9mNnjv3M72Mv569fqU62dMkzJrRREVs2BThRRRsd42EBgYiGPHjmFoaAjLli1DcXExoqOjkZqaipiYGDx48ABff/01qGmZ699Q/4CE9LKTmEk0DztaWj58z53Hw2tesNu8GW77D+KSk4uQlPKEJLgdOChWlqO79+KK63G47tuPsvhEsZKs+24ZNiz7Hr/++SfYtHw5dq5Zizdx8WjNycdweZVoXmihoX5loPStdHLjO269o/vgfNQdlInOuvopIV+zZg1aWloQFRWFP/qjP8LVq1fFCtbQ0ICjR48iLCxsTPnxREWEwpnZosOha4w4lcYljCEU7LxpKcp8+mxM583jaaViHRmPn6KzqESExayD1iRiR9eYLjyuSEwWQkDrFXU/PI4EgcsUL9ekpCMx+JE8D1ql4oNCkBAUIuSRZYlbY2aOXIOImtMy5Fp5Dh1T1sf6STJ4TAPJxwjp4PW8vHtfrkt30cUGPgSffXliMiLvB+B1TBziHwaL9ojbJ7KKKaIypkmZtaKIilmwqUKKqFhvG4iPj8fdu3cFABIUe3t7HD9+HEVFReJG4HJ4eLhoH+YSpc6GRtRlZn8wmkfvpKaaswNjx3p4x06xllx2cYX/+QsIv+krepKiyGicOHAQxVEx0lmVxMTCcc8elETHSsdFXcoFRyd88+tPxdJC4kIhbWtOHgIue4rwtio5DZecjyH98ROxMEx1Pabs+9EdVIDed+0TQk+3HN13/NHyRXFtZGSkkBWSlt7e3jHlxhMVduapoY9x+tBhPPO/LZaE/Vu2iu6GkVE6kWGH7mRjK8RCtzSEet/EfY8rOO9wFNtWrUKg51URE1O7Q6zPH3VETOADENtgr+viTqPF5OWde0LsLh9zxYFt22Qfy5KMUMR8cNt2HN9/AFt/+AGrvvkWtFCRZNDSkRIaJmSQpILCZgqX81++EsLE/SQtYTd8RD/Ea37i6ydlSVaoP9q/ZZuQ1dsXLsF202bs3bARUfcDEXHrjrgBrxxzxaHtO3Bkx05pD3z+LGv8vBRRGdOkzFpRRMUs2FQhRVRUG5gvCFCj0VRYJDk+zHHzGHcq+jI7yOe37+DORQ94nzqNjd8vh4fzMdGfPL91Rzoih127hYRccnaBh4uraFL4pc2IIPuduyUqiJ2v3zl3OOzeIx1mwBVP2U6rQVNWrhCdi07OSAx5ZBGywutnx0jC0FpahsHe6YuaBzu7Rx9tX1fXGNdZa26BkIuf/tmfiUvLaa8N6BKjDodWDd4XiQm1OOuXfY/SuPjRjpsd/Ivbd8UdZrNxo2h2nvnfEsJBAkjhsb/7BVw/eRqHtu0Q4sGO39Vun5A++127ce3ESXkGFCKT4NCKQnITcOWqXAefU8h1b7kOumNsNm0Sy5jNhk04eeCQWLmoF+Ize3nnLnKfv8Anf/VXOLp7Dzxd3bBmyVIs/c1nBgL17IWci1Yb1slnSdJE60ryozAwaivo2nXYbtwk1738iy/l2dMqo7cj/Xmo8OTRJmXWgiIqZsGmCimiotrAx0ZgoLcXbW/LRaPBztm4c7DEMkkHXQwkFIWvosQikvfipZALWlxoXWAOFH3iOgmCblVgjhW6Orhfd2eUxSWI9YCdOeugBoIdKi0AXLfEdUsd3w8H9wAAIABJREFUujsoPRMdtbXTGuzwrbsvkr9cjbbUHDAzLe9Hvy7qb+jm+tXf/i2+/vWvsfKrb2C3eYtEQzHsmvfM6YmfP1YvWSKuGVpLGjKzBD9aJdjh023mbGOLZ363BGMSHvejjkgKeSQkgG43utw6C4tBcsd91ADduXhJLDH3L18RNwvdalt/WCXWDlp2Nn6/Ao99/OQaqAfieUhkHnheFQLFOkg06LKhNYXk6ZyDA3h+ElDup2CaUVzUIvFeX90NkO0XnJyEMNHiw7D1a24nhMgyLN39qJMQMAqq6W7S8eJcWVRm/qZQRGXmGFplDYqozM/HXhfyAhU376LK5+Einh6g8mYg6pLSUJGQJOnvjTsGSywL2cjKEQJRGBmFzsIS6dyoKWHHy3PoxIIdE8OL9XXuo+6B67rbg8ucSEio6SiL55Qo0T60Guh6DEtcu3EdldR9JCShvaoa9aGvUOlz/4PtIv2rbbiraQjR/jmKXTxQm2u4X9ZLokKrxi/++q+x/IuvJPT6h6+/Aa0JwV7eQsx4n4yUYtg1NT2CRUq6uGK8T53B89t3hbydOHhQrCIkcSmh4bh63E1cZ3SpMV8N89MQa7pgLjg549NP/l4sHCQMdNcw6oruNU/X4+KicdpjA9uNm3HO/qgQw9OHjyD0ho8QQbrb6DqibsjZxkaIR8HLKBFM6yJpWk1oaWEEF3PnUGdDAkICRhcTt/O8vCYSHBIu5tfZv3WrWM0ObN2O19Gxo89cfw6KqMz8XamIyswxtMoaFFGZf499eGgIby/5YeBdOwbaOxf31NEpY+B01NWjNj1TOmNGv+idw0znFIRSU8LOlzlU2JGy4+OXdtaziFFhJztlfrGT2NCiQn0C5wnBIUJM6Dpix0bLDOePff2wc+066QD55U4XiNv+Awa3yTiXwUzugddDglKfk4ee1lbRCw12dZvUJortz+PFv/krVHrdR2d5FZh/Rr8W6jpe3b2PZZ9/ARfbfSBJ2fD9cuxZvwGBV65hsKxcdDfUgvS/eQufM+dwz+OKWDiIATU6JCIsQ+tD35sywYURVrSatOUWiMWD5IR6FmJG1xnPyW0kOplPI+R6WB+PWfKb34hOxWH3bnHh0A3FxHucv01IEqLEZ0LrFUPH08IfC5Fpzs5DYWS0uJqYvI86lJDrN5AYEioEJPTGTdht2ixCaGqVkkJCccbeXqxFJFHUppCs0G3kc/a8HFeRlDKGsBI3RVRm/q5URGXmGFplDYqozL/HTqJSeSNw/l3YLF/RYF8fWsreClmwlAuIX/mMIPE6cQouNnbSGbIjpSuACd0Sg0OFbNAVQYEldSbUPjz18xfLweYVK6RTXPPtEvidOy/iWboS2HHRlcHOlpFADH2+6OQiUSS69UUnBWbNhaAkoyYtA+3VNWCbmO6vp6oOg+1dUqy/r3eMxYr6i9jAINGD0HVDrcgx230iZg3yui7E7prbSTTn5IlloTY1Q7ChdeWJr7/cK4kHLRG0XjBUm5YRWi8uOhusL28TEoUUEtve16UIv+kj+WwYDk6rBUnFMbt96CoqEYsIBbAU0zKUnJYc5r6hruicvQN6St4gNeyxkBDizoR9PC8JDjVIXcWvRRRMCwrXOTF6i6SEZGv1t0tEO8P6HPfa4PQRe7Gs3TxzFltXrpJjj+7ZKxokhqHTNUhXnvGzU0Rlui3w/eMVUXkfE7XFBAQUUTEBpDk+ZJSoDA/P8Znnx+kY6dKQX2CI+jEKQTXuNKazTJcFOz5+NbPzY+fkbGsrnRAtJyQztJCw4+SX+PVTp0VMSf0EXQ20wuzbshXR9wPFDULNCxPH0QpBNwQ1FVtW/iCEh66fmRIVPWdMy+s3GOgZG71j7hMaH/VDSw1x0UN8s549F9LFiBkSDGpLiA0tTVUpabLMMgUvIyWTLy0nLbn5EpbM7UyCl/f8pWDKCCqWpQaEEUXUkdASQncbRbfcRpdQiJc3wm76iPiY+2l1ofuMx2U8eSr10frCEGheK0W3JEmcSES4j8sUyfJ8dMUxozCPTQt7LMdwO+vLf/FK7ovPR78m/Xw8JwkNBcKsk0Jbki6WNW5niqiY2/p+LKeIyo9YqKVpIKCIyjTAmqNDrZ2oCMzDw5JLpCZjZu4gdrScmD+F+U5oBfCleX/tOulA2ZkyfwYjXbxPnhYLA4kJXSPsvEhWaBGgJoJhzfyapzWCxIfkhW4JCjh3rV0notLsiBdCfIw7OFOXx7p52iza2sYTFf2a2BmTWPGeOFFwzHVaE4ibfhznXDdOjKbv43aW0zt2znkvrIdkgGWM17lNn0gquE+vi+dleUZrkbzwOegCZm7XyxnPeaxeP8/JZd4L62a9hvvJkusYvaaRa+S1yfmycsbULfcwbjgERVRm3iQVUZk5hlZZgyIq8++xK6Ly4zOhO4jZWtn5sKPQOzRT5+xEOZFQMBKELoqbp89iz/r1EnobdS9ALCzUX5x3cMTJQ4fEmsCIF3aAqaHh8sXOHB8kNCQx1ETwK37l118LWaGrgvWTrNC98aFRlN+79hEdirh5amrNcvP8iNjES5MRlfeuZVznrPb/mHpfEZWJ29Z0tiqiMh201LGjCCiiMgrFvFlQROX9R9Hb3i7j4VBYOp0cKyQpzDJKHQk1CxyXh4nKmBuELgomN2NnTN0Kc2owgsfVbr8sU29BTQbT61NkGh0QKAMWUrhJgS6TvFGcuW/zFqn7EMlMUIhYAUzt4EfdPG9KLebmeR89QBGVHwmHqc9m/HGKqEzUsqa3TRGV6eGljh5BQBGV+dcUFFGZ/Jl01jegNiNr2tFBDEMlEaEgk/oFplSnXoFuBSZ2Y3QJLSUMUaYOgxYTim2pZ+EklpiRZY6u3JSdi+6SN3Is62XmVIo2K5NT33OZjO/wuK5nn23IzUdv27vJb9hCexRRUUTFQk1pRtUoojIj+Ky3sCIq8+/ZK6Iy9TMZ7O+fdoI4EguSEuoeOFG/QGsLXUpcp6ahKiVVhKPUSfBYhsEydJYTE77py3LsSEI4liW54bF0F7HOiYjJ6LYRNw9DsRmSPTxHgmlFVBRRmfpfNTd7FVGZG5wX3VkUUZl/j1QRFdOeCUdWbiywbMr9UUIxC1oNug6qkvSU+JaJ5jENKeX6scRzVa4fU1vb5McpojI5NmrPFAgoojIFOB9plyIq0wO+q/HHQQwtmSzOEp0b6xh18+RzkMHZd/NMhB7HUaqISxCXGXU+cz2JtWrEmjTX57bU+cpj4yVsfiJ81TbTEFBExTSc1FHjEBjs6UPdw2fjtqrVj41Azb3wj30JC+r8QwMDaKuoELdLZcL0o4MsRUrG1DPSMddlZEmoNebIzTPRg2P0VNvbCrRVVH6UqTEjB025+R/l3Ja659a35aBGSv3MR0ARFfOxs9qSPdV1qPINRqGNG5peJmB4cNBqsZgvNz7Q1o664Ajk73ZBfcgLSZU+X65tIVxHf2cnmgqLDSMPWyBZ3BjiMQ13EN0EtO4wtJokwdp/zc/j0Z6eZ+0wWP39K6Ji9U1g+gB0lZTj8e/+KQK0/wKpv14/K/kbpn9V1l1ioL0DL//kZ7in/Wd49a/+ThEVM5tDV1MT6rKyDdltjRKKmUs8TC1HNw9DjhsLCsGQavUzIND4JBptydkKDitHQBEVK28A5t5+wd7jCNL+AO2ZBeZWocpZGIFqnyAEaP8ENbdCLVyzdVU3NDCId5VVc+IOkoR0CUkSOq3cA++3s8anMWhLUUTlfWSsa4siKgvwedOvTpEboxc+ytTZiZbUbGStPYj+3t6Pcw0j997f2YWP6cOfT81nqLMbeRsdMNTVM58ua8FeS39XF5qKSmbNHSTRPHTzvC0HQ6fV730EFFF5HxNr3DLviMpQf7+YPxvy8kUpzUHGFvpUzyRPLS0Wa1/djU2ixBdzMU3Gcz3RJG6U92HOzz9yvxQ/Mn34XGlkKnuB193Am3k6lfYBpd1Aae88vsZuYGCBjZnY3dSMuqwci7mD+H9h26Wbhx8c6jc5AoqoTI6NNe2Zd0SFArLq5BRUMeU18weYOo34eE0+ftr1jhACU8sZHVcRG4+O+nqLtSu+OBk6Z6r/e9aOS8sQ4d+s1f8BESJzSzDb6FwRleJuIKsDyJmvUyeQ2wPkdM7Pa8zuAHI7gP4FRlT4x/3RHZQuJMOcNq+7eeoys9HZ0Gix98FirkgRlcX8dE2/t3lJVGrS0ifsADmCZVtuvgz6xdExmdWRmSAN43JkyHYO7NVeUCQZIdvzi2QETA4SxmOYVbJ9JGMks0VyG0fT1DNH6vO2XMM4HjyfjIbJET1T0yUTJV9QfOHodfFcMuUXyrVw3/iXGElFZ4PlwtPmDVH5AJEYj4Ol1+eaqNCaQhKQpyazMMjtBPI7FyZR0V+p4g4qLjF8QE0jOkiieVLS0FZeAbpu1c80BBRRMQ2nxX7UgiEqJA0l0bEIvHJVRiONCXiAlEdhyIl4IcThxe274Lgc9y974sapM7h+8jSuup1AYWSUHF+ZlILnt+7I2Bvep87IMRxILPymL7xOnIL3qdMycWyOgMueQjo4gNjtC5fQWVgs57l76bIQHRKkyHsBuOV+AT5nz8kQ8BzKnWN/kDiN75AVUZl5GurxmHJdEZWFRZoWA1HRO4Tu5hbUZX/YHSRunsRkNBUVywB/enk1Nw0BRVRMw2mxH7VgiArHwwi4chWbVqyAs40t7DZtxrLPv8D21Wtk0LBgr+sy3PrDq15Y+dXX+OwXv8TlY64ojYvHw2teQixOHjyEW+4X8cTHT9bLE5JwzG6fEJgnvn4Iv+GD6PuB4PDr7AhvX7iIZ/63QBLEcy75zW/he+68kBFnWzsc3b0HG5cvlxFS92/dCt+z50dHVTXuWBVRUURFWWGAxURU2DHQ5fiuqloss+NdscZuHoY8q595CCiiYh5ui63UgiAqNSkGt8v9y1eEoLja7UO4jx8Crnhi74aNMmIpiYqHyzG8vHMPB7Zuw8bvl4Okhe4dEhYO035o+w7YbtqMa24ncNbeXggHRzh95H0TLjZ2OH3oCB5evYZ7HpeR9SwCO9esE9JCsuJ3zh3bVq1GYsgjcfWQ4JC8cBh4kpTDO3YICdKHf18IRIXYcOK16nPj657vy8qioiwq8+GFPNDTg+aS1wZRe2KyRAnxv/OuolK5eWb4gBRRmSGAi6T4giAq/NNTE/LA8xqWf/El7DZvEdKxY/UaWX4TGw+3Awdx5+IlrP/ue/zyZz/DL/76Z/jtL38pbiF3RyeE+xhcPCQmD65ew+2Ll0CdC9evnTgp7qHXMXHwOnkK/ufdURqXgJd372HZbz+Xeq+4Hofrvv144HlVCA7ruOZ2Uqwph3bsAPfTtcQRVMd38PPRolIzoi+hfofYcmRX6nuoyalNzZARXanfoc6Hc1q0dM0O1znxeE7Ekfeskx1iMH4bz/Eur3C0LuqBWIdeZjxmpqwvVqJS2AvkdwElAxMTEQpSC3uA14OGY3isscWmuB8o6DZsK+ozHMdtejnWS0Ewy78ZMmxneVkfBt4MA2Uw7NPr0c/BYwp6DNfHMlx+C6B0GCiFYZlleV5aUIyva7FZVMb3AT2trWCEH9081LKo38wRUERl5hguhhoWDFFhhxjs5Q3bTZuEpNCSsebbJdi/dZtoVxKCQsRqQrKya+06rPrmW9GoVCQm49Shw3DaayMalJLoGPzjz38u2hR2niQqQde8xKJCqwutNncveSD/5SvY79oNWm+O7NwF130HhLDQakNtyz2PK1L/P/7dz8XNRI0KLTzlicnvdb7zkagQT947r/vOJQ+cOHAI0QEPkPv8peB5wdEJnsfdcHz/AXi6uoHrxVExKItLQHRAIOIeBOGp3y2xTj328RNhM7EmmaFuKPJ+gBA6aoNIOmiROr5vv2h6iOH5o464efosSDJZxhRiMv6Y+URU2JEX9wFFvWM7Z3bU3KeTCpIEEgbjDtx4mcQgraETOe2DeJReIISEJIN1cCIpqAaP6UJgfAbCMgpR0DUo9fH8JDDPcktlPbejD88LyuHzLBqP0gtR0g/EVzZLOcagPUjMwq2X8Xg7bKibx4amF+JZdgE8g5/CIzAEKXXtKOweQk77EAp6hvEwMRspdR3I6xqW874sLoeDuydO+dzFhXshcLvuj5M37yA4JRslPWPvc7ETFXYIwx9xXJ7F0CGNvwdFVMYjYp3rC4ao8IueglcSE2pItv2wCkd27BISUvgqCrEPHsJh9x5x25Bc7F63XjQmtJIY3EHbRavic/a8uIoogs1/8Qpn7R1El/LM7xYe+/gi4WGwuIXYYV9ydpGO9dD2nXJcTsRzHLPbL1aHF3fuyrko2L163E3OlRj8CLWMWBoXDTPfiAqJQWlsgrirfM+eE/fZ959/AQ8XV2Q+jUBicAgcdu3BEz9/caE99vUTopcUEir3TBfYd5/9Fn/7l3+JC07OQmRIYu57XMHBrduw4suv8Ku//TtxwZGcUAsUE/hA9D3U/WxesRJrliwV8kKszLWqzBeiQgsICcLT3FLEVTSJlYLkg6SDU3bbAELS8hGaXoDg5FwhDNxO4qETGX2d9ew/eR4BcenY63ISYZnFeJZXirTGTmS19sMr9Dn8IiJg63oaK7fuxtELFxH5uhqVw8DdqGRcfhAKVw9PnPUPgNeDQGy0O4zVO23g5HEFrwcAn6dR8AgMQ1BsAo5d9cXhc5cRV1aN5No2bD3kiPU2NviPn/wS6/buxzn/27gbFYeEqnrsczuL7fYO+JtffYoftu/GbqdjuBOViNLefpzwvoVHafnYevAo1u7eh62HjuJVSRmKx5E2ayAq1tmNzN5dK6Iye9gupJoXDFGhS4LaEUb2kEBQd3L2iAMokCURIcl45H0DdPNccHTGyUOHcdHJGXEPgxF07TqoYaFlhcfTZXP68BFkPn4Kx7028HA+Bu+Tp3H9xCmxEFDLkvwoTKJ6eE4ef3jHTlw9fgKXnI+JxYHCXl7T89t3RbdCVxH1LW8TEt/reMcTlY781xhkRlUzfxwLhHWOJ0SmrtOa4nfuvJAQYkmcKAy+6OyC1LBwiV46uG27uMfWLf1OSBjvn5g89b8l2NHVRSuV815bISu8b1qm9q7fIJaotUuXCrk7dfgwekreiPXpvMNRIX7bV6/GhmXfS0RVXVrGe3iZeh9CVNKz+B0rSA73DaLrdbmZqH642Jv+98OTSTBy3vVi34lzOOnti+1HnHEvJhG8iqy2fuS2DyCzpU868AcJmXiYlCUWjPSmHiEpr8UlM4zUhk5UArgTmYwDp9zhGRyGVTttcOFuMDwCHiGmrArRZXVYsXUXXD2v4OSN2zju5Y9zt+4huqxBzrfL8TjCs4qkDocLnrgW9AjcRsJzJzJWSNTyLTux3uYgjpy7glsvY3E99BlO+wUg9m0Nzvrfh5u3L1yv+cL2+GnYn78Mv+fRKO4bwpYD9jh+/Qa+XbsJR85dxvYjTojIL0Nmaw822B0SYsVzse5th50Q+7Z6YqLSAehDWPZW16M+LPLDwKsjrBaBxmexKoW+1T79H298wRAVqujrM7LETUAXA5dpLeHEjo0dHjtgul5KYmJFY1IcHSvr1GFQD0GXDY/n1z/nrLMoKkbKUT9BISwnhkHzHNRt8Dx0EbFu7mvIyJZr0PUVzK9CiwDPr28b39FWJSXLcO0tMalI/247nv7X/x7N0cnoqa5HT2Utustr0F1Rg+63Veguq0J3aaV0uOx0u0reorOoDJ3FZegsfIOOvBI0pxoGTTPODjv+nFOtk2A98fUX8bDrvn3iMmMUFTU4tKakhj2G+1EnISwkbanhj0WoTIsRRcy0qBzctkOOp+WKBOdtfJK4kew2b8b5o0fF/Xbj9BmJqqJeZdPy5SJO3rR8hYiPOb/tflGwm4lFhSGiA+86UPcwAtF//g9I+3Ir+lva0NfUgr6GZvTVN6G3tnF04sjPPVV1BtyJeXk1ussqBfeuNxXv415Uio6CN+jILUZheRNyR7QfurumbBjwDn8lHfc7AI+zirHl4FF4BASJhWGPsxue5pWCc9+IGJkcPa5jl5Mb9p84j5Syajhf9sZOB1d4hz9HSEomwjOL8Cy/VAjLk9w3iCypEr3K88JyOF+5gXO3HuDi/RBcuBeM07738aZvGBEF5bA5dhplA8AG24NYsm4zNtgexg4HF2w54IBDZz2Q3tCMXY6uWLf3gLiE3Lx9cMzzJlIbuhBf0QRe19o9++V6SLhsjp2C3/NXKOwZwqode+EZHIrVu2xx1i9ArvdZXhl8I+Lw1ap1Qk62HXLE5gMO2OlwDFFvKlA8geuH1qf28hoU7juOJ3/wbxH9k1+BxF0wJs76lP8anYWlhnbP9j/FxP+I/Ff4f5lqelNh+H/xPzbVxDbBtjHVVF4jbUjaEtvTFFNvTf1o+zNui+OX2ValzbLdTjbxmMYW9DW1fnDqb32H/tZ2GOZcnnji/2egvXPqqaMTg13dGOz88DTU04uhnj4Y5lyeYOrtw3D/wNTT4CDqg5+jNTHjxx5LLVklAguGqBh3vOzYjCfjfXRrVCWngdoIkgvmNdFJBIkH1zsKikQcynJMAEe3kk5KKPLUBaQ6wSFZ0c+hi1D1dZPmqeloe12GtN9slBGHQ7T/EW8v+ErnWhvwBLWBTw3Tg2eo06eHEbK/LigCdcHPZaoPeSF/3OqHTw0WFaM09iZdx4hLihgRH7rSwm/64PRhexEQk7yRVMQ9DBK3DfUr1AH5nnMHLSwkKtQCBV+7LhFPa5Ysgdv+A3h0/Qb+f/beNCirLF0XfP909O0fHdHRcTui4/bp2ze661bdqnOqKk/VOVWnKmvIeagczEwzzTQzned5FmcQZRJQQZlkEBUBBZlnRCZlVhllEgdAEERRmUV4Op61vm1+ko6kmkhuIlbscQ37ZX/fer73fd5nXcorUNyeZTNnYcWcOfj6k09gv2oNnNatUwDumN8+5Wkh78dxrY3yUK1dsBDlaceV7Z9m/Ma9BJrtdXWgjZL/139GmAhO/fFzZcuWI4m4YiktR5PREqGLsre1zY+l3m9z2pu2j9E2p+1p96vHUlB5ph6VI8IZ9Jx4hkVjy25vUAw9u6EVy+ycsNF9L8KyChR3Y0dQqLq+8+BR5a1YtmU7ci60KaBi47IbX89bDPcDIXDcdwAXhoD9ySew50iM9qgcjUVgfDpq+gYRU1iOuJIqECAwzEPvSErFeVwF4Lo/TIWF6rt7sW7HbmzauVeFfRjCmb3SBraefshrvIoNrh7wjojBfJvN2BMeDe9jifCKiEflzS6EZWYjIP44pi1ZocJAuw8fRXJZFc7e6MXC9bbY6L4LE76ehuV2jliwbjPiSioVn2abdyDWOe9SXJU1jjuwdMs2eIQeU89iADpuGfqpuQNcP1uNvFc/UwsoZv3sLeVVaYs/oeys3nG+57R5LMt3/4eH7vN/ZXxeHrY1/q/G5+sR23ufR+Nz+bAt36MnKZZ3z3gHH7q1emeNd/dB25bwRDxRCUvAlScpofG48rhyOA5XQuJwhdvHlOaQWDQfelyJQfPBx5QD0WgMjMCd650/ycnZfOjvLPBSAhVjohq55QRMwMHz5EIw3OO2aYvinDDLh54SirK5btykwkPLZ89R4QkPO3tkHolQoQ16FUioPR4WriZjCsyVp6YrrwqzWTg5juz3cccM0/TcuK6s3p6UjeKP56lfft/9G55ub6C35weFfmgnklgZ8mGo56O33lL2INeH4I56MHkxseiqqVPeFoK3MC8vxQMiWCEJNvnQYexzcVWhtRDPPZZw2D7F11m/eAmmfTFJhcoYIqKWDe9fPH264qcQ9JBHxPRu8oSsgeDjbGl93eCocFHC3oZGlC/YiKol9k9nzKe4u+GuzpaxnnyZ3ZJ7oQWzV63DsZxTijsSnJCG7T5BiDh5GrtCIuHsfwgbdnjAACqrt+9AftMNrHPZDYKYRRtsEXo8E/SYVPcOQpFnewGXoMM41wvFaam7M4Tg5EwcPn5KhXIYfmGIiN6NsMw85f0oar2FZgB+MSk4mlMMuz1+cPDbrwAEwzn5zR0gqNgTHqWAh190MgITM+AaHIa6nh74RScgOq9EeWyiC8sVoTb5TDlO1F5UYSG3A4fw+fQ52Oi2BztDwhURt+r2AGyc3TF96SrlSSJI2uC+R42B2UPWtlIclS5gyGLztvjjOO/k9xT/AfPWl8YCJBUzIvugwofg9aFHl+Eh4015aZ7aHOhzssC4ASr0mlCFlsqylekZKh15xqQvFanz47ffxlcfTwAJsCejYjBl4ueY8/U3mPzxBMz6arK6xrRj8lHcN9sqzkVC8AEV4qAyLSdTAp/ihES0l37nXbGeNB+1P5Kjwv8lF18c7d8PldCnN4oeFSrtkqNCHg+BGfk7zPxhWOhSfqG6J2H/AaQdDlME5upMrfJLsEbQRxt119Qru5SmpinPFFV8a7NykHk0UnFTCHwIjNgnQ2iJBw6C5FwCQHJ/+H8blZfqIcq0dDNbKCujNe9D6z1IQp8ZPCSpZp1vwb7YNESeOo0Lg8CJumYUXb2N3EvtyLlwFSdqm5B7Ue9n1DQqYmx69SWU37qL2OJK+Mem4XTbTRzJzoOjX7AKv5DzwbAQj+NKKpBUWofyW30qi+dITjGqe4fgGnwI3pEJcA44qDKC6gZ1Nk9yWb3K6qGHx/dYEoKSTiDnYpsCHzGFFdgXk6K8HuTAENQUX+1U4aBGAEdzSkDQc65nGPGnqxUhmCnH5NAcyytFxa27ihOjM5iGVWoyn3F/4gnEFlcp4EOvDwHX94DKgyT0zUyZh75z5gXTAqYFgHEDVBi+YSaP+xZbdJRVqtTZPdu3K7Ax48svld5JVcYJNYky62TeN9/io7feVqEN8iUK4hJU6GL1vPk6JHLwkJqcOXlzYmbbu23tVFjoUaDkQdceBFR+yMt/tC6kAAAgAElEQVT3Q4EKx0hwwNAWPVAd5ZUqPGNon/A8gQXvu1ZaofZ5joDDuEZuDvdV+OVsmdKPMbxNhmfLOFb9WcJ1rMMlCOidMtp6kM2e5JzhUXlRixI+CKhwIqangJMyU4eVLonlmBk89LgwbZjXjX1O8Mz44ZZkXNZhXSPzh9okrMuUZm4N3RLWZz22pfRMerXeSWnnAFiqe3TqM+8jF0SlK1u23Gf77JP1jT7ZL4/ZB+8xnsUYC++/Bza69L308tw7Z0m/NsbLvlXp/34atvKoPAio/JAPg1nXtIBpgXFvgXEDVBim2LZ6DSJ9/dQESE9IuJcPtixfqXRXqNvB7KC+houK9MmwD4mgq+fOA0M/w43NSll2w+KlKjTk5+SiRNy++vhj5TkoTkhS99MrYEziTzKZ8p6xCFSedOxj+b6xAlSsJ+0fY5+gguXH6Ptp+jSByrifT8wHNC3wXCwwfoBKdS3sVqxUoCL3WLQSKosL3I/JE0jqXK3ASPheb/Sdv6CIoky7pRYLwQo1RHpq61W6LImlJJlyoUIuPKjSmFPScDopGSSK0utgApXns3bP04IiE6iMfXBiDWRMoPJcvsPNRk0LjHsLjBugwuwd8i2ookreA+XvCTQot6/1VyJV2m3DqTzleaGiLIXjJn34Eb744EOVrswFC2d+OVmtnkyOxrF9/orwyUwhyveT/Ml+nnZCNT0qzwfYmEDFBCrj/hvafEDTAqYFxg9HhWCC4RkuFkg9ExbyVs5lZCm12E7L2jQkfdLTwrRYEj0JOuiBYSEJlNkwzEKh54TnSP68XV2rsmIodsbQjwlUng/weFq7mkDFBCrmd7hpAdMC498C48ajwkmOJE5DyM2Y9AhgjFANyZ0kcRq6KaqOJRuFpFEKofE6z/NeghUDzLBdox2j7Sfdmh6V5wNsTKBiApXx/xVtPqFpAdMCYxOolJzGFS5mR82SpypaofaJ61AA7QnaJ2jhisIGgHmSOtb3NOUVoLu9/Zm9bSrrJ6/gicZuPY7xtt9cUIzWM6V4UVk/dT1AaRdQbpZR2aCsS+vQ3NErHjyzz4PZkGkBZYGBq0B/s1nGqg3ujn7ZmLEJVM5YVtNliuxzLC1nS7WX5Dn2wfE3FRQ9e6BSUPRcbfM87f6s2qYCcWtp+QsDKi0DwKU+4LJZRm2Dxj5g0AQqJrJ4HhYo+Q2Q+Z+AHLOMORtk/Cfg6oFR/9fHHFChYuHd/v4XUtpSc9HX3vHc+xrs63+mk+nw3SGwzRdlp7HazyDfk4GBUb/8ZkXTAqYFxpEFCv8/4LgAmWYZczZIE6A1YNQv29gDKqN+lKev2BwcjTsd5joST285s4ZpAdMCpgXGmAWKfgFkCJBlljFng3QClaBRvzA/aaDCRba4Eqn5Z1rAtIBpAdMCL7kFRgIVelbyBThpAS5Fln2ezxYgx7LlPblWx7xWYDnHLQvPGfWKBWAxzrP9U5brJkh6MFA0gcroP1wmUBm97cyapgVMC5gWGFMWGAlU8gU1hwQdsQKcESTvENxOEqBIcPeEoI/hiBxBVbCgJ0UwkCEYPCHoSRVkewi6kgVn/AWn91mATp6gN1WQ4iqIcRCU+Gkw03JMcD7UChCZYOX7YMUEKqP/qJhAZfS2M2uaFjAtYFpgTFnAGqjkCm5nCaa9KwiyEexZLnj114Kp7wqqIgR1hwXuiwTT3hP8H/+b4J1/E2ybJYhxEjTHCVzmCeZPELz6L4I//lKw6FNBSZCgLkS3s2WaYMb7Av+1Aue5guB1ApRYAA29L4Vm+Om+8JMJVEb/UTGByuhtZ9Y0LWBawLTAmLKANVA5JWiJE/zHrwRzPxIs/UxgM1nw9ZuCwxsFNxIFm6dq4PL27wXfvCWY/p4gfa/gdIDAZ4Xggz9pAPOXX+tr7VGC2kOCv/xGYDtdMO8jwaZvBQQtYVss4aAcwe1kfTx0whIyMj0sgAlURv9RMYHK6G1n1jQtYFrAtMCYsoA1UDkpuJEk+B//VfD+HwXzCVYmCj77qyBwraAjTfD7nwuWfCZY+JnAdobgb78RJDlrz4jvKu0x+eI1wWuvCBZ/KmiLF5w7IHjjdwK3hYI5Hwq2ThdsnWEFVLJ1SKnQRzBkcFpMoGIClR/yQTGBylNab3gYw8OmCMZTWs283bSAaYEXYQFroFKg+SV//60gbLNg5vsCjyWCL/4uOGonQK1g7oeCD/+kwzqzPxS8/q+as5LnLVj1pSB0s+Cdf9eek/XfCDI9BFeiBO/+u2DtZIHdDIHddB0yuudRITghSbfM9KaYoZ9n9NKbQOXJDTl09y466urRXlWNu3fuPHlF807TAqYFTAu8CAtYAxV6Mc4I7GcK9i4X0DMSslEDk1N7BTezBBu+EXz7tmD2B4JZ/9AelIYjOvTjOEfgukDwh18KNk8T8Dhhh6AxRoeJyHkhN+X0fsH2WQK/VRaOSo6gK0WTbc3QjxVPxwz9jP4TYAKVJ7MdBd8IULhmEcvV8grc6e19ssrmXaYFTAuYFngRFhgJVIoFMds1WCE42b9OcHiTINFFUH1Q4LlU4LNS4LVc4L1CbyPtLanGTDk+qb0qzAJS6ceFOhsoY6c+jncS1Idp0m0xM4CY5pyjM4NO7BKYQMUEKs/ktTeByuPNeKe7R8nUN+UX3Vs1mksCtJwpRf+tW49vwLzDtIBpAdMCL8ICI4EKwzDUNyGAoOYJt8zGybNopHB/ZOE1emOYucPCY0NvhecJYNgOr7FNXuPWWkfFOuuH+6xj6LRYAJCqN5K7YtzLrXXhfezH+n7j2LjP+prRh7E17uUYjHMcr7HPNlif9uI53mfdHvd5v9EX90def9yx6VEZ/SfABCqPtl1f5020nD6LZq4rxAUcrQoXBORxT8f1RzdiXjUtYFrAtMCLsMBIoPK4yfN5X88W3M0QNEUIbiZoT8ulI4KL4RY9F078BEKc+PME/emChlDBneOaiDuYIbhjUdpVWwMg5AgGOPFTwM54BgIM7mcLrsXqPthP41HdLoHO1WjdPs83R363z34UQCnU99yIt4Axtskx5gouH9H71J9hXSV4ZwAcYwyP2ppAZfSfABOoPNx23W3tanXmZq5ibQVQrPd5ramgGLevtD68IfOKaQHTAqYFXoQFHgRU6DGhx4PegkdNpJz0WegtGXkvJ2S2w+sEC7xOLwV1U3iOE/rIOuyrUJDnpdOXdy7SWiv7VgsObxE0hOlxJbno8NKR7YJj2wSJroKedMHZAEHmLkHKDt0XQ1jnDuq+akME/msE8S6CNDeB+0JBvKvgbpbOOHKYIwhcJwhcL3CdL2CIisCiwFvrxITbCkgOpmYM27iVKIh2FITYChZMEOxbI4hyFDAMdj1OkOouWPeN4OAmHTJjOna2z3cA6JF2NWxuApXRfwJMoPJg291qvqK8KM1FJQ8FKQZg4T0MC3VeugwuKGn+mRYwLWBa4EexwEigkitIdxPke1sAhjFpWm+zBcPZgjhHzV9RKrQEIwQ3lMk/KRhiO+4aUNSHaDBzI0FwYL2u0xFnud8AMkb46KzmtJBsSzCxe7Fg4xSB41zBdXot8jQ3JnO3oMBXUBqgvRXDeYKTewQ7FwoIbCr2az4NM4vaYwRZHoL13woObBREbhV4rdTAove4oC9VZyHFOQvidmgOTsRWC6A6K7iTLTi0UbDiC0G1BSwRfA2eFMRs0wAm2kVwxFaDoOFCbT/asHy/gNwbtseU7H6Lsq8JVJ7z224ClfsNPDw0hBsNFxRh9soTgBQDrHBLkm1HbR2GBu/e36h5ZFrAtIBpgRdhAWugclLrnsz8h8BhtpVqrDVI4X6O9gys/EJQuV+w/HMNak77a/DSny2IsBd4LBacj9SCb/SiFPrqdun1YGbRlXg9iTMsUkPPxyl9Pz0mBCn0bDCLyG+1INRWQNl9AhX/1Vran6nPmd6C3UsEBfRW5OjzVMg97q6F6pJdBG2JOmRD/RemSDPbaN86Qbi9oDtN0BotcJoj8Fgq8F4l2DZTA4veXEGOj4DjKfYVHNogKAzQY7meLKgMFtBW1I8J3KCBETOdBrIEEXaC3jRBwBpByCYBQ0PHSSh+EJdlpH2NY9OjMvpPQFv0cQzfGRx9A+OoJlOOr1XXaJDykFCPNTB50D7BSlvlOQz29Y8jy5iPYlrAtMBLYQFroJIlGM7XEzDDLipEw4l1JK8iR3DnhBZ046RP70eRn049TnUV7Fkq2DJVoDwpDPUwNJSnQzObpgjCt+gwS66PVqt1mqu1VcqCNDhh6Obget0uwy0EKgzxcC0hem2YeXTMXhDnpD0g1HqpCNZy/RSmo0eFHgumT3cnC1CuQ0IM0TDlmkDEbYHAZ42g+pAgy1cQaCPYu0yw4nMd/qEHpSVWUBwoCLAR+K3R4agI9ukkaE8UVIborCiOt2S/IGu39sbcPSko3S/YMV8DuQvheswEU8oWBhB53NYEKk//ERrqv4OLu/ajZOJ8nFvpgO76S0/fyDiqMdjTi7byyh8EUgzgwoyg1rNl6L/dNY4sZD6KaQHTAmPeAiOACjkiDOVwksVp7QkgGfS+UIXFo7L6S61kS6CyepJOa6a3hVL5DrMEiVSsLdYLFRJgcLHCWR8IcgI0p4QAhanPBCMMzUx6XXsvejMFa7/SYIThE3JWbKcJ2uMFA8e1ou21RE2AvRYjuJmoAcCZfVrGP8FZ9x27XUDgRF4Mw0KpbgKmSZ/YKTjlo/kvXZY0agIcEmSp85KyS0CVXNajLSh2150t6D8hqDukwYji35wR7FosCLYRRDpoL4oCePkChqL4XKw7fFIw+Q0LuZbhsccBFOO6CVRG8fEZGkbpt6sRLoK0//336G+9NopGxkcVphi3nil9YGaPAT6edquyhErOoPf6jfFhJPMpTAuYFhj7FrAGKrmC64la6p4qs+ePaul8ZsTcF7LI0SRUhjkObNAejJpjgj3LdKimyFdwNVFAILJ/vUDppRRpUmn0du3huJOlQzCc2Bk6oXQ+VW7JJyHxlW2UBWvROHJhqNtyNkgDDrUCM4m6JOcaJU+DHYZj6C05uEGDpFgHQdV+Ab01CU4aGEU5a85J1DbBtTgNXPas0mEa8kjo6cndI7iVLigPEqz7WhCyVRCyWY+D4IQgjqCFIR56nrpTddiJCy3So0Iib02o9siQuxK9Q3Njuo8/wENlAJORWxOojO7z09fYgvj/6b/hgnvQ6BoYB7V6rnUosuyD0o+fFpyMvJ8ZQSzdV9vGgaXMRzAtYFpgzFvAGqhkacE1pvwSOAxyUjX0REZOogwH5Qh6UiwgxqKTosiiRvpwruW60QbrMJTEbB/LPtOKOdFfCNPEWYZGOhMsXoeTeuVlRaLN1h4JZtQMjxyL5fh2km6XqcR8BpJ62T6Ju2yTz0QPiQJBQfqYdVR/xXoM9KTQg8PSlazrEzz1pAkoYsdsHwXcTursHvJQyK1hO6zTFq1tyDp8lu4UQWuU9s6odmivkaG0hzzPy7soITNEfswC4LJPOPqar/644/iRMmVuX2lRQKK58PGZPSNByJMeGxlBNy83jvnvuCca4I/5vo63vp/I4OZNpgWewgIjgIoKS3AiNSZTYztyMiXYYKaPkcpsbI3sHaMN3sPC+sY5ghrjfmYJsdBLwxATQY3BizHaN4AOwyYsPGY/xtiMsbAdXj9taZN9si1mFhmF6wmdtVxnijTPW/pX9XjdqM8+jLEaz8/2jNRqjoP7LNxn37zOeuTm8BlZ3zhvPJfR1uO2L6NHhevGUJK9taxCybFTkv3Fl0pcq6tDW9W5H6Hv75639UwZ+m7efIpP4w+9dRidFy+NKrPnSQHKffep9OVCXK9vALOKXua/jro6pdL74t/V796Xl73v1tJyXK+rf5lfA3PsY9UCDwIqBAicVB81keZqTwRXRj532KI34qDTgglMKNo2nCO4ckx7KoZzBYP00mQIGHJhuIchHWbEMFySvlPXGTyhPR2c/BkCUt4OTvx5giuR2sPCsTGcRC+GIerGcTDEogi2Tpp8S8IvU6LJg2HWELck2jKEUxwgaEsQFO7T4SRmF53drwm/l48KbiTr8TFrpzFJE3lrD1mBLtomW3tPKBCngArP5QuqgnUaNnVbygIFFKxT4m8ENI+y6chrLytQoeIpiZdGiOBH2RaV/Lj9Fxaj8VQBeq+/GHXXocFBlULM7JzHpR+3lJy5p6FivX8fCHmK7CD2qRY0HBgY9ddcd3c3+vu/yyi6ffs2BgdfXNYWQUJTXgGayirRWFOHxuraR5am6jo0Pcl9T3DP4/r6Ua/X1KHJwnN63OdYZYaVV476HTArmhZ4qAVGAJXhTA0sFEAgYHmQKBs9GacEFEHbME0w7T3B56/pdF9yUG6lamE0+zmaPPvNWwI7C59lMEfANGaSW7ng4YZvdfZQlreg94TAf61OYS4J1gsjkpB7PVWTbwlouPYQ05FJVOVKzaeo91KiwQ8JwEw5ZqH2CkM+d7N1CvKVWIHN1xrAdJ8QDGRq/ZVTfoKlEzVZ13+dBhhc04ghpiAbwX4bQWWo5tOQkxNPgjA9JAQVBVrgjbozhodn4ITmupAczLWQqPdCTgvDQvfqGd6XkcBk5PHLClSYGfIkgmKjnRhflnoUS+u98fxJp4N9fWirqHqizJ6rZ0rRfrYMHWUVuGYp3L9KOf2iEvA6j7nP662nz94DNY+yOycp/qLm+kGj+aupqcGcOXNU1cbGRqxYsQJ37txBT8937d29e/e5gZe2yio0lVeiw2MPeiZ8gp6PP0bPxxMeWnrVPRNw9/MvgMlfA19NxtAXk9D/6afA199g6Isv0PfJJxic+Lnasr3ujz5Wx3c+m/jA9tnG/eWr+/rvm/CJ6sN6XL0TJtzrX9Wd/LW6h32xH46N4+J4OC7ewzHyOtvhGPkM1m1+t/8xej75FG3HotFcXvnY94BApr3y3Gj+/WYd0wKPtoA1UDkluBQu8LcRLP9CUBs6woNgTKSWEE6mp1ZkZaowPRXOFqDQmyVIcNGkXE7uBA1cyJDABBV6IqdXhYTXzVN1X7kEHEWC86Hak0FyLsEIU4a9V2rux4Ypuk1m9ZCESyG10iAduiEgoDhcxHbB0e2ayNuXLriTI6g8pDVMHGdroMMVna9E65WiS/w1UAnbLgjfLtg+W0vpt0UJSvZpbwj1U5ixRBE5nlPhnFzNPVHEWnp8LMCFWT4k5FJ3hWnT3KfuiyIAMwx0Ui8PQO+OChkZ4SvDttZbE6jcvwbNoybKsXjtRQCV/q4utJaWKQ/W42xAEFKakga7lauQeSQCZanp8NrmgKwjEajPOakATOXxE8iKiMT1iioUxiWoyYn7TwI81YKGp8+ir7Pz0V86D7nq5eUFBwcHbN68GQUFBThy5AicnZ0RGRmJ2tpauLm5wdHREWVlZQ9pYfSnCVQaa+vR8+FHuD1jJq4FBuO6lw9uePuiY6/3d8XLG13+AchftQbZy5bjzIaN2PfhRwj46GNkLV2GekcneL/3PnKWLUenrx8cX30VF5xd0BMQhC7/QJRt2oKzGzfhlu+++9q84eOL0ElfInDCJwia8AkCJ0zA0W++Uf1f9/LGdW8fXNm5G+kLFuoxeXnjhrcP2jz3IPjTiaoO6/l/9DEylyxFd0Ag6hwccfTrb5C7fCVOLF6CoE8+weEvJuHcVnt0BwThlp8/Gt3ckblkCdg/+1HPatm2HwhB39/+hs4NG9FUd94EKqN/vcyaP9QC1kDFQqZFtc50yXC38CysJ0/uW4BKrJsWUOOETCCy5itBiL2gJ1NnuFBjhRooDKtQIZYpwAO5gmWf6zTg1V8JCB5WThJk7dUAgEBFpTXX6ywdph4TmHDNnbkf6X4YjmGaMTNzKg4J2mIFAWu18uzSzzQwcl0oOOkruBAlCF4vyAvSnhhqsaS565DP2YPaU0KBuBNeggwvDXCY6VN3WHtDCIbYFzVSUlwFzREWgFEgyPXUKdSK50K75ApO7tUaMsw8ohYLtwQq1itFk6TLUNW9cNFI+xrHJlAxgcqjPt9912/gSslpGIsIPg6o0EOSGhIKp3XrEeS2E5uXLsPrf/ozZn35FQri4lGSmIxNS5fh608+ReKBg1g2azYO7NytAEvb2bLHTlTsX4UHikrQ3d7+qKE/9Npnn32GgIAAXLhwAe+++y4OHTqEKVOmqHPz5s2Dv78/qqurH1p/tBcUUKmpQ/enn6Fjz15caWpBe30DLpVXormq+l65WluPmuLTWLZkGZYvWwYXB0ccOxyGlKgY7HB0QlpMHFatXIldO1yxc4crQvcHw27zFpzJzkVTVTVWrVgJ5+0O8N/rDR8PT/h67kV2UgqaKs/BZo0NKvIKUFVQhNLcU6oe66RGx8Brl4fqa86cuaq+924PFGdmoa7kDCZ+MQnb7exhu2kzli5Ziu12W3HrUhPsbe1Ufw5b7RESGIS5c+epNhorqnA8LgGO9tvg4equ7vFwc4ef5171bK01dep5G1vacHvOXA1Uausf+/83PSqjffvMeo+1gDVQYZinRGuIUKn1LkM/JJsyVGFMnlbbkkDBSS/t3SDY2LdKkOsr6DkhYAjIfpYOt1AR1mW+DqUMFmhpfXpK9i4XeC7Xnhjql3DdHS4wSPBSEy4I26zPkXtCfgo9Jr4rNZgguDhiJ8jzFQzk6DFTG4Vr9DjPExy2E5QGam8LgQr1VMiDyfAWOM0TXDoqoPIs22VbmV5a+I3AQnk/ygVUtV3yqU6nZhoyvUMqxEMbFGogE+toBeaoL5OmVW77sjSoonQ+x3wPqNDG5KqceUhYzcq+L2XWD8m0ZuhHA6zn6VHpar16j4PzOIBiXGfI53RSCg7t9kS4lze2LFuOT997H4unz8CJ8KOoy87F5mXLsWTGTOzcYottq9fAwcYGhz33orPy3GMnKqMfel/oXbnVdOWx3z8jb9i2bRtOnTqFkpISTJ06FXV1dcjKylLAhVsbGxt4enqOrPaDj+8Blc8monPnLjRWVmPpzFlYPW8eblVV3/fstEVG+FHEBAYhxNMTBXEJqM7Mxt7tDsobtXLOXIR47MH+nbtgv2o19mzbjpNR0Yjw9VPHvk7O8HF0gp+TC3ydXUCeUGNBEWwWLFJAMj00DMkHD8F2xUpczi/EjYoq5QE7uNtDjSVsrxfSDoepEB2vr1+0RP2/Du/Zq9plP731DQh234UJ77wLH0dneDs4YsWcuZj6+ec4n3sKUfsCsGX5Csz79lsEubqr/7n96jWoyzmpwn/8XzbVX0DX9Bno3LgJTSZQ+cHvmNnAD7CANVDJ19ol7/9BkO4hoEw818VRKwOPACvkmpQECJLdtDQ+vQ6ngwTHdwm6UgQMr4TZa6l8ckMO2wuitwn6MwQ5nhrAUEafgIhcDhYKutEzErRFELBat8vFBslNYWovZfUNeX16a9gPw04d8dprwdBSvKMm1VIplhopBBYEOAQKNYcF1RECLkBIrwlKtfYJCb30rhTt1x4Qcmh6cnVfBzYLTlM2f7PmzpAvo4jGpzSxl94SleFDgJGjeTE8R5B01FbQl6/X/2Foysj+ITiiXc3Qz1MQNo1J8GFbcik4EY+8zvOcCMi7aC8tR2vJGXXM+3ie11nI0bhZeU7dw4lW3X+2DC3Flrrct5BQuWVfvI/hFNYd2S+PnxdQudnYqMnKT7lmD70iZ5JTFfDgRMuJymu7g5roTicmI/NoBBZOnYrls2bDdeNmZIQdgfP6DajLycWTelTu2cGSEcT1hZ4mI2jHjh3IyMhAb28vbG1t4e7uDg8PD+Tk5MDe3h6urq4qFPQDvvIeWPV7QKWqGkFu7rBZtBBd1XXq/32P21Najt22W7Fm/nx4brVX4I9AxcfJWQEVggIDTCydMRPH9vmDITWG19YvWgw/ZxesnjcfsYFByoN1NjlV8YF4jgAiOiAQkb5+CjTyPSS4JIggsBm8cBlHffwQ6OaOcycyUZuVgwXfTsHsryYrsLLbbit8HJxwpeQMjnj7YNZXk9Vz7N22HftcdmD94iUKqNBjlhpyGA5rbeC+eQsIrvJj4tT7b/wPTaDywFfFPPljWMAaqJwUMIOFoCPbU6+twwmX+iH3UoE5IWfr7B21Ps9JQUesznThhE0NEwVs6Ik5rSdulRVDDwLTdRk2IujJFZzaqzVN2F/yDr34H8movMbFBqlBwjAPQQa1SFiYUcNsIXpICGAo4sZwDIXeuAAgvSM8f2Sr5rAQqBDcUOaea+0c99CeHeqdMBOJoEl5i4q1d4aAif3y2RSYOa3boaeH/RdRsZYeEWb8nNTeEhXGofcpW9uKz0P1W5KDO5K0SBx1YlSado7gZoLFazMC/H3Pa2WGfp4s9HP7XI0CEecyMnG7uhY3q6rRWXFOnbtwKh+X8goQExCEE+FH1Jd0Y2GxukbAQS8CJxlOJFH7/FEYn4C2M6UI3bMXuceiFBBJOXQYBbHxaCosURM2J4+arByw34aTebiYV6CAjfEFb2yfNVAZGhrC9brzo04/vlZaoX7ZO69br56Vk2aEjy/WLVyMvOhY5MfGYe2ChZg9+WucOHIU+913qcmv//yFJ+KoGM9tvW3KK8S16lpwvaEn+SNAGbBkDw0PDyuPCkm1/GttbQWJts/jzxqodHl4IuFYlAqRTXjnHeWRoBdkj/02Veh1eu1Pf8aCKVOxaNo0bFuzVtlp6sTPlf3ee+11TPzHPzD54wn44I038cWHH2HrqtUKNPzhlVfw1l/+iv/2T/+E9197HX/+/b9h2cxZcN9ii28/nahAZOheL+X1mv7FJLhu3ITta9Yq8DHvm2/x7t9fw5r5C+Dr6KzA5Mwvv8LXn3yCz//xASa+/w+89/fXVDiP/1uOh/XpGXr9z38G+2Zx27QZC6dOw6q580AgRbDCY4IhfgYI6Pk/NIHK83jTzDZHZQFroGKEJagrQlDBCZlE0TV9etYAACAASURBVAcRPnmO9/A6s2BIFOVkzbqsZ9TleYIW3sfrFqCj7qfWiFFYj23yfus6rMvCdGnew/1SAah3wro8xwmf5426HI8xbrZZLkCVAJWWwn3eS1DEcbJtPgvb4RgtQErprfA8dVcItFh4nXZiydehHgVU2D+fje1xfKzDujzPfaMe7zFsxjZ4/LAyXoAKPQ/XSsvvZZTw1znPWU9odG8TOPAavR68dr28Unk7jGvW93Of97MwjLFp6XL1KzV45y5wUuEvU/6C5Zc8v5j5pc9fjnSDb125SgGa2MD9ymNwyMMTB3btRvKhEJw7kYWzKamKcEpvA932H731tvrST9h/AOdzTqr2OUEkHwzBjg0bFd+DIImeGesxPkugMtjfj/Zz1U+U2WM9Buv9zspq9St71Zx52LhkKVbMnqN+3S+aOl39ms49Fq0mXQ87e8QG7Yen/Tbsc3ZRv+if2qNi5S0z0lYHe3tH9R31IipZAxWGfi6UV8DXyQVffvQRKtIzwPfqZFQMLublq/c4IfggInz8VEjFZuEiFdIhSTkuKBjO6zaodyLcyweBrm7Ko8L3kYCYgIXv46SPPlYek7lff4P0w2G4eCof0z6fpL0itlvVPfOnTEFtdq4K/zB0xHDcN59+hoAdrqAHjJ+h4oQkuG+2BcM+fF/5P9zvvlOdJ9jmtZ2bbRHm5a3CWG6bt6g2OQZ6aghk5n7zLZbNmoXytOMqBMXPFN8bE6i8iDfP7OOJLGANVB42YT7o/EntaaBWSEO05nMw8+dcmKCPKxJHCarDtJQ8FyGsCtUZNAQB1FhhCjA9FuXBOnxDrgtThnmu+rAOBeXtFZw7JKg9rBcXjHHQa+cwY4hpyuSokNBKoMEVmBUYKNDEW4ZXCBK4KKF1PWblsH6NoYmSq0NHlNofIDAgSLHoo5B/wsUQD6wXRG3XISU+mwJUBVqlNs5B0HBEc2uGs3WIimEden3IdWHf5M300ivFtrMEbVSttew/FKTQ5uMFqBBoRPjuU5O/41obVKZnaK9H5TnFfbhRXoljfv7qlx2/2BsLi5SHgl+mBBoEHvRikBvAtljohieQaSosVrH84vhE5QVICzmMU1ExoAu8+kQW9u/ciW8++RT2q9Yodznj/kd9fHGrqgaM+bts2Ij4/cGq/2j/QPUFTy8Mv+Q5uezYuEn9Wp0x6Usc9fbFpfxCeG7dpn4d05XOX8NsgyESklWNL3n1RZ9XiL7bt5/oc2jcNHDtBpr2H8Pd7u8m9YGubpX6ywnfGng87T5teOJIhPIU7LK1U16i46FHlNuftipNTVPAJSH4AAjKSK7l5BoXtP/er+yn7dO4n1L+rWfOov/mLeNRf9Tt8N27uHWm6t4YKA5I/ZRuclR27UZDWSUO7/VCkPsu5WUjJ6QyIxMd5ZXqHSAhOT82HqmHQ5F6OAw5x6Jx1HefOsd9Aoz44APwdnRW4Ls8PQPUF2IbZWnHUXUiS3kwCBwuFxSpUM2+HW44nZyCMylpKE5MRvCu3Wg7W46kgyEqrHQ2NQ299ReQGREJT/vtKEpIQlPxadRk5+KIj58K6yUeOIRddva4UXkO6WHh6j4vB0ckHDio/ocph0NxPPyIOvZz2YFAt53w3O4AP+cdqpxJSUV7WYUaT9P5iyZH5d4bYu78qBYYDVChlyJbAwySYgsDdBoxU3sD1uvQBkM2FHXjCsZcpZgclRVf6DVxGFbhCsvH9+hwDAXReo9ruf0UD80p4eKF+9brVY2ZbUNJ/GvxgpZ4TZZlllFHiuBWiqAzRRNdVQjJXbDuGwEXTDxkqwGM/Qyd6szFEpmZRFIsgYnydmQL7uTqVGKGdxTYydXPwPsYkmK2EoEKF1/kWOkpuRChQzqxO3R2z4KPBUOntES/3XSB63wNtpi+zHZajlnaztdp2Qx7KY/Lg0CgcW68AJWu6lo42qxXv/q2rV6r3MtF8Qlqgufkz7DKvG+nKNBRlXFCTQTkfiycNh212TmY8eVXKgvlsOce8FcqY/6cRAvj4tU+f00e2OWhPCYu6zeoGD45AvRwnDwWrbwlS2fMUq76nMhjGLx4WXlU6Emh94CZMCQvkmRKrwsJivwFTeBCwENws27hIkT67lNhpDXz5mP13HnKg8O6OzZsUuRKAhVjYua2ueg0OqvrcLOkQk2KnBhZbp6uxM2ictwsHlkq0HIkCXHyX5Hxs7+oVaC7W6+ihR4oTmZWXorR7PMXOMNaDFkR5NHLZfAu6MWiy5925z0sfB7FwaHg1wgP2Kj6LyxWYnRcI6irqh6dBaUWO1jZ53QVbpVW43ZZDW4b28o63GapqEPXufPoqm5Q2+6aBnTXXdSl9iJ66i+hp6ERPecvo+dCE3ovNaP3oqVcvoK+plZwHSgurdBVcwHp//kPKPzHdLQlnMDV0nI01p9X+iYd7jtx5fxF3Kw7j67zF5Q2SMe5GlxlBtDZMiWA1lJWobRrKHR3s7YenbX1MO65UVOHjupadR/P8d6rTPE+W6baYh0e8zyvt1raZX+saxS22cxxUdvmXI2qe6W0HLfrG9Q9PM82eK6t8hyuV9fiMvlWFVXqHOv0XmzErboGdY3Xb9WdV/3xHtan7slg0xV0NVxUdZrIxbK02XipCV3TpuOO3VZ0XG567DtgZv38qFP5+O58NECFE2muIN9LL7Z3NlBPyszOuUguRrH2tjATaNtMwTEnwbbZgnxm6GRpPonbQr1KMbkj9DokUUitSEANlo3fasVa1iMxlases82WGL3wIHkoXACRAKYlVtCdoXVOqMsSskHzUehtyfcRtEQLts3S4GXi3wVcbHHLdA2QFCgh6MoTLPzEsmIyw0aW7J2gdYLDmzXxlx4c6rkwtfjiEU3aTXcX5PvphQkbCUSK9PW1kzUgYr+rJgl2zBMMWTw1DA1RTI7E4HvnDGAycjuegMrOLXYq1MB4Od3QJO+RF0J3+fLZc+C6aZMiCnICVZPl2TLM/3aKAjP2q1crvghBxJTPJirgQC8G3dZsi8Vt0xYFJA557IG3o5MCKyQa0jOyffUalYpLbgE9NAQ79MoQ3NitWIUAV3flSSAHIdJvn+KcuG7ajCj/QNDz4L/DVWXAsB5DQySh0sPCzI2iuATFGSAv5nuTN0m8JWVoT8pGe0rOvXItNRfX0k5+r3Rk5KPR/yhi5b8g8X/576he6YRbFxtx5fQZleHzvfZHCVwM8jC9Pww5kKfDcwQtt87VKM8VgQm5Pc+qT7bDtYeYDXS7uQWdhWVoT87WNkjNvWcbZafkbG0z2i0pC20JmWhLtJT4E2gzSlwGrsYet5QMXI05jqvR6bgak47WqDS0HktFa5SlHEtBa6QuV6PS0HwwGonyM0TI/4y8P09CY2ommi9cxO158zHwyivoe/Mt9L32+vdK72uv4c6bb2HonXcx9PY76P7r31D785+r0vmnP6Pn73/HhV/9M9r//Q8YfuddNP32FQy+9Tb6X38Dfa+/joE331T18cGHwD8+UMW43vK736H6Z/8d1T/7mdq2/u73qt6dN99UbeG998By/pe/xIV//mfV3tA77+h23nvf0q7R5lto/M1vcf5//BLNv30Fl/7l12pcdb/4BW6++ioG3ngTt//yV9X+5V//Gg2/+hWaX3kF/W+8ge6//U21Ncwx/vO/IH72HCSPINo+6L0wgcr4xgo/6tONFqgw62efINFNcC7EIvg2V4OEG6mCq3E6i8ZhtmD+xxZpfQuh9myA1i8pDNSZPVRtZfZPa7zOlNkyVZC0QwMZemYIFjozBAfXC3ICdCiGqcNZXjqjhlwREmg3TdGaLNRnoScj2kEweFrrqNCTQhG7rbO0d+XeitCFmqDrvVzrtSi+TbZedyjRRcD0YnqCmPVDVdqB41rttuu4luRnhhSF79oT9JIBnfF6DBw3vUlUt+W47gMledqDQ0Kv4seMBCjG8XgCKiTsHdzlARIFF1iIfJwgyZVglsSS6TNRlZGpPCWcIPnrfsaXX6rwS2/9eRWfZ6osgQqzFUj4JAGQ3g/G5nMijimwsc95B86mpKm+rhSdRoCrq0q9DN65W8XuWY/ZFvQmBLq6q0na4M+Qh0HvT05klPKg0JuyZsECELRwnAd3eyqvDwETQz1MI+XYmcZ7JilFtWn9BU4iaX9311N9vvvbOlC3xUN5AoyKfTc6VdjgWXhVCE5oM6ahnoqOVbZjuI2gkdkn9FalhYQquwS770RvXYP6X/xQj4ox9t6ODuOxftQtQ2unJy7GlfB4MAzUXlurPAYt+YW4Gp+I9pg4dKemoyc9A9di43E1OhZt0bG4FpeApqOR8JgxCx4zZyFg8WLsnDYde+fMhc+8+Ti12wNL3ngDh1etRtFeL/guWIg0RyfcSEhC/4lM7J09B15z5uKEiyuStzsgyX47yvwDVB82H3yI4GXLcWD5CgQtWQq7iRNxPT4Rp7194fjVZFVWvfseXL75Rl1viohEqZ8/ssiD2bgRjiRB73BFupMzLoYdQaqDI9Z/+BE8Z83Gaqahv/463KZOw6WwI6gIDEKC/TYcXbcec/7yF7hOmQqbDz5QzxnHjKb338fuaTPgNmcupk36EusWLUZ3Td0jgasJVH7UV3p8dz4aoJKtJ2XyMKgRku2lPSiJTlo/ZfiU5qZQSdZ3reCARSqf997O0uER6qrEWLwpMdt19g3DP1yfhyEjZs1Qk4VCcQQqJM/S80JPSbSTIM5NsHOx5rQQ4Ex/T0AJfXpbKBDHbB5Fci0T7FokWPuVYPscwdbZgtkfWDKT8gWDWRpkdR/XY66mENtpnXpMwTZ6aagDw/AP1wiqjxCcPqTDTwRgybsEx/dqATuK1d1IFDDERBG8OR8KvFbocfHZ7vFSCnTY6J54nAFMRm7HC1ChlyTpwCG4rN+oQisM7xwPC1dEVOpN3KquRfz+AyqEQg8IJ0Wm/DKkQ74IvRUM4ZCzQkIh17JhdgpTaDvKKhWHhd6AHrrgK6oUgZFggqCD2SsUMWM/DPVsWLJUhZMILBgeIm/DGlww3FGUkKhST21XrFCpnQzv0INCoiS5BvTYMMWUQIXgi6Rdtk2vxH0clWcooX+npwdXyyp+EJmW4yOnh2RieoPokWLIjaRZ2qk+Jxer5y9QYS96l2Z++SW8HZxUNhDBnLWdnmZf81NK0X9rbPBT+I1OcGL9RzItJ9orTFevqML5wmJ4u7rB280dF0jcZuiGSwpUVKnwivu27djt6IQAD0+cychEQ1EJPF12ICMqBnbr1qtrqxYvgf8uD8yfORuJYeFIPhKBVUuWwmuHm7rubGsHb1d3lGVm41LJGThtsUNnXQNuN1xUoaNdDo5oKi1HYmg4HDfbYsPKVZg08XPsdnRGwG5PlKRn4PixKMyfOQvzZs7EP957HysWLcbqJUtxofgMavLyERcSilOJyVgybz4WzZmLIM+9aKuqxn6Sb13dYGuzDgvnzMGyBQuxdf0G1BcUIcTXD3OmT1d1WI9eUH72+G4bRPcH/f9NoGL9Rpn7z9QCBCrMPmHmy5OWk4K7uYJdywRbGNpxEJzyFayeIkjdJRg6LagJFayfJji4VRBsL1g3RavP8lqMk6Az2ZK5w5WKWZjBUyBojBK4LdFKsqeoX2InOEigUinYv1GQ6yW4HCO4lCjwWytIcRcMVVnAi4sg1kWwZ6Vg3ieC2wzrlApcFwmWfynYNFOwaZZg2geC64la44Qgiuv98L4baQKvVYKrqYILkYIQW90/ZfkPbRYEbRAU7BMMFAnqwgQ7lwguJwouxgm8VwuqQgRFwYLgzYKdywQzPtRA7dAWQTX5LwwrnRT0Zwp2LBT0ZXzHiXmgZ2W8ABUCD4MMS0Ks4kWUV6rwiyEkZpBkCTyMyZ4pxpxcWZ8T5c3KasWvYFte2x1RmpqOtjNlavLlFyfrNRWVqGwGilrpiVmnFBMssRjt0avA+42+rL94FVA6U6rapWeH9RhGaioqVuMgoZZpyUxzVnwO8hYKi++Nw2jrWWb98EPPFF/yG0ZLquWzc+zLZs5W3JwwLy9FmiVgK05IRF99g85gOpGJrKMR8LDbqsJkIZ57nkrwzXh+blXGT0UluB7RWP67B1SKT6vQI8nFxYlJSlNm7zYHBXr5PHw36Fk4HhoOj61blUeNpFpmBlHwjVo0NgsXgoTkvJg4FeIk0KW3kJk6rhs2wc+JqcWbFHg3gDfbJmjkMcONBAbMyuL7TdVgeiRZJyYgEKvnzlcAmgCZ/THNmMCZQn0MZ9L7QR6So806MDuNHj9mJi2aNl3xteg5jPYPUJlK9DSS18X+5k+ZqjRzCL6p6cLwLMfAfQJ/puE/TDNI2cZc62csv+Iv99gMj0qiAAlPWBIFw0mCY2sFfvMEEasF2Y6C4XRBoavgWqjg5hHB4RWCLCdBlrMgZJngcpCgK0KQRSIrs2BG9pcqKHAVXKaibJ6g+YAggEqxlPLPEaRvFRxZJUjcIki0E/jMFVTs0dcKdggSNuoxFbkJanwEqXaCukCB7USB02SB+zRd1k/QbbFu1nYBCBjidZZNY5CgyFVwiaseBwhqfQR1vgK2ed5PUOah7792WLBnlh5Hoq22A+uCnhOuHJ0gKOa4ecxCYGbpI89FELrCkh5t2IBjILCy9qqMF6DCL7FnWRRwsRA92e7IX3n8Ija+UEeCEQOYjDxvPT7jGid2434CEmOf541rxjlja93OswYq/KahJ+B6fYMGK09JcKVNmMXDyYxr/lAQjGEthrgodkd+CsNhnHQ5+ZI8TKIzs6QIJK2f7Un2CVJIKn1SDZUf85vUGqjw/Wo/W66AG8OLicEHlSIs/8cE2QQd9DIQCDBVmCnC1NVhdk1aaJjiNPHaHvvtmPb5FyrLiiCFAnr0UlF8jfol5D4RXFCnh306rdugQJKhY0LAwvPMwKKwHPlc1G4hUPF3cUVRfOI9MEQPGK+xTYYp+f9iWJJ92S5fqUAJCeHMVqrJzFYqueRnUTl3w+IlyrvJVHzWY9o10/kJcr76+GOlXEytGDP082O+oT/xvst/AXwiwL8J8GcB/vQU5XUB/iHA3wV407Lluf8Q4G8CfCzAR5YyQYDXLG2/K8Bbljqsx30W9s36xnXjnrctbRr9vC/AO5b6fxHgj5Z9nmddjomF1zgWow/WZ1u8j2Ph8/Ic++X2VQH+aqnHa8Y+2+G+ccz7eZ3tWhfWN+xn1DeOje2rgs7fCAb+3dIf72P5vQBJFh0WA6yYQOXZApwnmVyf5T3PA6gYX1c3G5v0QoRPAVYY1qL6KCXWmZJNT8ri6dPVPicvTraU02cmFMnP6hf7kQiVlm14vp7IPoYq7YWLwPCwMeQxvbUGKgQkJHQTbDBE1lVTp0jU5E6p7KizZUgPDVehP3KuSLJmaJOAjyE0iq0F7HBTQI/eKIYwCf60wuxqxZWinQkUmVFGwEFAwrBkXkysAodK02b1GuW1q889qTwgTKenZ4Xp+vSscIz8Xy6aOg0zJk3Cu6+9prwmFIQj6Zv/6ykTJyq+ldO6dQroMFuN4n6+jk5qvARTlNYnT4lEcnoK6QEigCJYmfThR1hp8diMXEpg5Ltghn7G9Cv+cg+u9BfAHwTwt/ya5+RoeAGoGfKwYrmvap/gZrSgPULQdFjQFas9HNciBBEbBdG2uhzbJGgMEQynCRLsBXF2usTaCSI3CbgdShWcDxbEsM4WwbHNgritgkJqpTA8ZVGtbTgg6IyyeCDoicgU1ATq9hK3CVhSHAR3kgWD6YLKfYK83YIroYI0J91/iZfFk8JsnBwB27xFfRN6Ndim8dx8TqPwnLE/cmvYjOd538OOeY3t87rRHvcJFA31WhOovNwAxfgCf55Ahd86XVfbnmq9H4awqNDLlZPJSyF3h1L6/KUeusdL8YC45k/SwUNKIZW6KltXrkZ25DGlH2I816O2nHDJSbnV1PxSfTFaAxXaiYRqTtKUoydooBIsJ3iGHQlkmGVGGXoKBRI80PtB7xQneaa1065R/gEWTlamIoAzVMj7WRjioXjbt599pjhABB0MzdBDQ68Whfa4zhDPE1QSRJAAfWC3h1JIJueKY6R3h0JtVF2mJgv3mbrP0CfBJ71BTJ+n54ThG2a+kTRN7w/3+R64bdysPCp8H0hEZ2iKQOrzDz7Ah2++hcXTZmDrqlUKxHA8D/v/m0DlpXrlX67BEqjQY0ABNAuH4naKgOJlSkHVMpErIqixTy5LvuDIdsHSLzT/Y8WXgvmfaT7I3QJBlqfAb43mcFyOFcS7aC7LcJHgfLheP6fQT1DFEJGtIMBGMFwqCLUVJFIef6PAZYGg0F8vXNiVIQizE4RuE2yaJrCfLQjbJkjfpfkle1cIVn4lcF4scFpk4aikCE4H6/O7lghinQV7lgtsvtWEWPJFyD2JcBI4zRfsWSGIcNQidErjhM9pPDMVZ7lvzeOhwiz5OlmCwUzBTXpEqHibJxjK0sd9BC4FAi4NwHWO1HXa1miX7bFt/g/CLZwVE6iYQOVJv0V61QrKZ55IZ4UTbE1WtuLVkKvCX930FpQkJqlJjW5/ek64hgzDRJyYGZZgmOthk5P1eU5UBCrdbaNbOflJn/l53GcNVIxnor3oYaCtVKjPEmZkSnfSgYPqmloHiTon5ZWozsxSAIFib+RakVvCzCryq4xQIcNrLLQ7lW4rj2com3NRQobl6LXgdRLI6eEyuE8ET7Qt/2f83xAwsY7ie5Hke/qs6pvnuVQCPT+8j1wVY5kIhvuocEseFz08PH+5QL8HJIoz84vtHA87osJUJLyTi8OQVdrhUNU+rxv2Gbk1gcrzeDPNNpUFDKDCbJdiweWjAr/VWv+kiV4LTqLGxGlsOdFmC8JtdUYL1Wm5eB9BAPc5OTPlmNk7tZGC2nCdsaNE1ir0Gj+eSwVHtwoituksoCwu2leus3yY0rtzkWDjFC20xqwdTvBMCY60E7RGCy4c0aJtt+mVKNGZPtQmYUZQgpvuu++44EqcThe2nabHRB0Vm8kCquUO5epFCKn1wv6Y5bPua0FxgE43Vt6VEgFTmam6Syn84+6CbA+tkMs1jHYuFJQFCjZ8IwhaL/BZIbh9XC/GyAUTqdR7/phu32mugJlBCgBa25KghWEjE6iMD4BifIE/b4+K8RU20NWF1tIytQii0ffDtsYvYm7J5eHkZ6RnN1u4RLzGSZrnn5SbQi8KlVf7Om8aw3qptg8DKrSDUQyb8piAjpM2bUVQwHO0p3FO27VCAQrDrkZ9Y0vb0sa8l+cIOoxr3LI962PVx0M8Go+6dk/Az0IMN8ZKoi7Hy374PEZ/BmDlOevyKJDCcZpA5aV65V+uwVoDlXzBUKaeaKnueu6gZX0bYw0d6y29L/mC/Ta6hGzR6rQUREOFXkiQqxSf8BGc2Ksnei4OiPOC2O168ULU6gUQKRynpPCrBYnOWv21yFenOhNshDHrp0CQ4qb1Vu5kCjqTNNig2ByF1tLcBV+9pb0iBzdqjZPLkYLb6YLNUwVbZmigwnTh0E06FZnjZ4o1gQe1TryWCw5sENwpEJwNFhzapIEGBdoIYDpz9XNwQUTPJYLFnwrOBOmFFx1nC9CgARJBkO0MAQXhenMFXst0qvQZf626qzKcxjNQabFkzPAL+KdcGvMK0Xvjxgv5QuBaQJxsR5sRZD0hPu0+AdnVsnLc6e55Ic/6PDp5EFB5Wjv81O83gcrzeDPNNpUFrIFKiaDAR/D1O4IP/yRwW6o9FBQ7C9k4otgLtkwT/L//RfB//Wdd/p//U/DVG4IQZz3xUzreACr0tFCIjdeoS/LFa4IlnwumvSug5Pz6b/S1BZ8I3vuD4G+/Ffzhl4IP/yz4/O+C/ZsE3qsEu5fpOgQJTBf2Xy9wXSCY/LZg5ieCSa8LPvubbmPuRwIq4LJfn7WCL18X/PU3gr//VivRUiOF6rn02PBZKDq3dYYgbKsgylmw9EvB73+uJfD/9CvBh3/TxwQ1n/5V8PN/0qnIXEZg0muCCHetYvvt2wKPdQIuAzDxr4LJb2oQRI8PNVxUiI1eKYIVIww0njwqlBrnr+tW/tr8CRcKzvV1dr6wbxpmBHXU1b9QsEJgdO1cDe5aVjx+YQ/7jDtqLStH46l8ZTs+k1me3ga0H7V+zD/TAs/cAtZApVjL21MLhBM3QzeRLtr70ZGgPQcdcZZtulZrZXiGHguKm1ENlgqwHdl6IT7K0gduFgRuEGyaqlVaO04ILoQJorfp8Ak5JAyncLHAa0mW0FGGFmzj4n7kf9ALciNJK9emeQimva/7LNgvuJks6EgSRDro9imrH26nFx0kwGqJEjDMFGyjVXOplMu1f/L8tBeHInJUyKXHhHL3sU6Cm1la68Vhll5MsT5Eq9P2F2nhN3qRCMIY2lk0Qcv6z/1QcCpQsPxzQepOwSl/QYKTFn8LtNFgiOGlkE3aA3QvnDbegApf0KHBuxgaHDTL4CCGX3DWC/vrvHhJTbRGSOG5/NK3ZPZcP9/wPfG0Z/4l9QIapOeru70dPe3XzDJKG9B+VFE2/0wLPHMLGECFGSdlgquJmlya6ikYLhRk7BV0M9um2LKIXqFlWyo4fUAQ7iBI2StI2CVI2i0Io0ZKpaAyVBDpLDgfJzgfIzjhrSdvCqup0EeFAOcEJYcEbssFNUcFN8ltCdD1644KCgIFse4aLHXlCA47CLJ8dP2bGbr9NC7uVyBoTxecCxdkeAnaUgU+6wS1RwXDBRos+TOzyE3QnizoPC7I8dVhnRhXQRjXFNoo2L1Wj/+4j+AWs4woRFcq6MsSnGUY7KzgYpSgKVY/H/ulDdhPnLsgykXv8/lSPQRHHAU3mdFTJIhwFiTv1jZVHhUjjMYQGm3K1OfxwFF55i+o2eCoLNDV0vpUGUFPA2YIgJoKCsEUafPPtIBpAdMCz90CZb8AfieAvQCcjEmq5YRJ4EIBM5I/9wtA9bsT2QAAIABJREFULsjIEmy5l/dzVWHWYfYQwQavse5hy5b7bJttsD1ePyAY8hcM8/6Dli3rcxzsO1jQ76vv5313mUJtjIf3hAgGeJ33hli2HEOw5V62xf44BuN5OAbWZf/WzxUpQJQeQz/BEK+zXWO8bMMyTlWfx6zPLfsxbGaMj9sIy7jYlnHdaNOwJY/Zzq8s95yyIi8zY6g1aNSvgIy6pllxXFigp+O6ImOSO/A0QORR97ItApWu1qvjwkbmQ5gWMC3wEliAQGWeRfCMImhPUyh29oYA71kE2LjlOYq2vSbo+J2g5V8ELb8WtL8iGKKo2huCwb8K2l7R53gP9weYnvu2oPs/9P33RNk4Hkt7ShTubd3OsHH+DcGdvwja/1X3x/ps88bvdVF1OUa2QZE4Y5/Hbwn6/iyo/Znuf/BvglvUlOFz8D6Kx7FQII4CcoYQncVGagwUpTME5t4RXP2toJfibm8Krv9e0PobQS8F3YxneJh9KYzHDCamKxtEWxOovAQfoDE+xP6bt6DIzQVFPxiscOXjKyWnwZRo88+0gGkB0wIvzAKFvwD4K57hB4YhWBjmqRxxzrhmbEsENVEC1xWCoy6CcEeBp40gnUJqlVqnxHa+IMxNEOYi2LlKkEq5+1pBoodgj41gx3LBtkUCv02Cg/aC7gJBkK1g6wJBVoCgN1uQyLRlS7ioLVnQkiJoYHoyVx6u1RlGnVkCt5W6TfZjv1CwcY4gK1BA3Za+HMFggaA8THA9TTDA5z0raIgSzPtC8PGbglXTBFFuAo81govHBQ0xgpDtghAHQfBWwd51ghBHQfEBwd1SQeF+QdlhQUWkwJtpyRsEddECcnAqwwUXYgQOiwWhTgKvdYKhIt0nM6LAVaRpxzI9foaGVDEItiZQeWGv/0+iozu9fWgrr/xBJFuSS1tLyzHQ1f2TsJn5kKYFTAuMIQsYa/0Yk+NJQU+q1ijp5y96anwY14wtz53UqxczA4Zib2smC9ZN1donTCnm6sXHdwpQoyfj+sOCWMfvtFKYBkyyLrVFSKQlEXcoX9eJchAU7ROU79c6LZcYlinWOifM0OHKy1wpmZk57Idckpw9gr40TZwlYZbkXQrNMV06eIMgyVXX2Wcj8FklOOYoYPoyM4OYgUTir98qgfcKrYfSf0rAtORbTI/eotOtb6QKuMpyc5zAboYm1FaH6OdIdNHpyDWRAv91glNemmxMTRo+G4Eg9VbYFsnEBCondgsitmrdmfs8KYadTY/KGPqgvORD4Xo716prRwVWCFLaK6vAFGjzz7SAaQHTAi/cAiOBSrEgeL3gjX8VtNFr8SDBN06kmYLmaMGeZYIIO0Giu94nILl7UmuWrPhCcMBWi8FRVC2aCwCWC9J3Cqg7smCCYPtsnbobQY5MviDNTa9anOetBeWWfa5JqBfCdZbN1TTdTsoOwZV4wdU4wY0EwdR3BAFrdXqx81ydFXSBgnUkrZ4R1IUIcvcIju/SYysl3+SUYOt0nf7MFOngdYLSQA1KlIfpjBaj++YtCyCiEm2x4Fyo7sd1vs4SYnYPwUhzlOCUtwZSzFhaNlGw+mudAn05QlAWop+PKdFJFlE6ZiYpMTl6sQyAYmxNoPLCPw7jukNmBN24cFGDlSdcI4gg5XrdeQwPDo5r25gPZ1rAtMAYtoA1UMkXUHwtYI1WXKVK7X0qqsYEyu0pDVSYpktAQm0UejGoSMuwCkXUCEwYZhnIEVDALd5Jez86kwVrpwj++CvB8slatl55FE5qr8TB9QICE3pzOOGzva50DSCidmiQ47ZAe1QaIgUXIwW7l2gPBgHHjgU6LThzr+BmqqA8SFB6UNdn+nADPRr5OnWZx+/9UbDicw2EfFYKqDjbf1J7YWIctdeDnhvqrrQnCa7FCaiJwuMjW7XwnMcSQeVBnaJMUEaPEb0+m2cIqIpb7KfF7miHHXO1OB7PXY/XmjMq/GaGfsbwB2UcDe1W8xW1oOEj05dVZk8Rbl66/NIsLDiO/kXmo5gWMC1gbQFroFKgJ12um0NBM4YzerK0Wu33fu0XaZ0QaqjYz9Shkz1LNVghp4TeiwPrBS1JgpZ4rRxLFVh6N4oCBEsmCWa8L3BaLFg/RSvUMmREzRN6S3gvQzkUmlMg5pRg6ITgeqogyVlwYpfeH2TqdIH2StBTQfE1hoYo3ha4RtAaJ0h2E2R6Cg5tEIRuERQyq+esDv1QOI7CbPQiVezXoSCChtIgQSbXEcoTRG3ToInALWevoCpYMP9jDVRYj9otHCefmc8eZa8l/dmfL70807WuS2OMYO1kQe9J7f2h94geKIrMKQ+ONRDkvulRsX5Tzf1naQHqhRCoPCgjqLmQCwsW43ZL67Ps0mzLtIBpAdMCo7OANVChdghDPaf0mjVXozWf4xpXFbbORuEkWqgBBT0b5Hw4ztWhE3pYCAI4adPTErpdELpVQN4IJ3zyUHjMdX4Y8kh2FhzcpCduislRaG7/Oi2BT44MwzEEC90p2itBgTj/1Rp0cL8yWC+gWBKg+R8u8wS7F2mROPJBlBZKvvbmEHwwdEOJe3JIrmUIeD8XOCzcJ6A0Pp+H6rzKk8SwUaZutyfFEkYqFmR7CjZM0SJumd6CfWv0+C9FCRhScl+sPVL5FJXz1sq49aF6MUVyWxI8BQ2hmuNCVV0CHxWiMoHK6N5hs9boLNB386Zao4br9BgpyQZw6enoGF2jZi3TAqYFTAs8awtYAxXridIShhjMEAwTwFhf436O4Ea84EqkXnfndrKgLUbQRO2QXEFnggYXStyt2OINideS8Qx30DtCcqlaG6hI38u+Lh0RECC1x2hPDvcJnm4naa9Lxk7tTaFHhfsEFWp8zFrKEbQcE9xM1ACGbRB0sQ81LnJMSATO1uOmai0BA9sn4GFd7quQl1UYRo2Fnhuey9bPRi8OvSEMcTHcxdIcqVV7+fy1hwSZu7VXpshPcOWY4E6WHsuNON3PQLomLitQ9CAbmx6VZ/22m+2NtMBAdzcoH8/1eph+zCUP+m/dHnmbeWxawLSAaYEfzwKPASpqch4JUoxjelnogeHkz8Jjpv5y0uU+izEBG9ctIEe1yxRd3mN9jvV5ziDxcss2WN9QxS2ypPMaKdXGeHgP67MOvSHWdY32eC8BB4/ZD8ELj7nlOeOa0Sa31nV5zHq8j30ZY+LWaNNob+Q1nucYWdiO9b51f8a+CVR+vM/FT6lnrtPTXl2D9nM1GOzt/Sk9uvmspgVMC7wMFngYUDEmS3P7fW/Si7KJCVRehk/Q+BjjwPWbuFlWPT4exnwK0wKmBcaXBYp+DmQ8ILTzoiZjs5+HAyETqIyvz9pYfpq+yy24Eho/lodojs20gGmBn6oFCv5vLd1OsGKWsWUDEnhb9o36zTTX+hm16X56FfsaW9ByNOm+B+/p6bl3fOfOHQwMDNw7NndMC5gWMC3wwixwuxDozDTLWLTBjUxgYPQZoiZQeWGfope/o74rV78HVKZPnw4HBwf1cAkJCQgLC1P7vSaP5eX/h5tPYFrAtIBpgTFgAROojIF/wssyhAcBlQULFuDVV19FQ0MD0tLSEB4ejoKCAqxfvx7btm3DlStXXpbHM8dpWsC0gGkB0wJj0AImUBmD/5SxOqT+1na0HLk/9LN27VpERUXBxsYGsbGx8Pf3V/v0qBw9ehSenp5j9XHMcZkWMC1gWsC0wEtgAROovAT/pLEyxAcBlXnz5qG1tVWBlT/96U8ICAhQQIVjTk1Nhaur61gZvjkO0wKmBcaxBQaGgL4hoN8sY84G/L/cHR79y2cCldHb7idXc6CtAy1HEu97bnpU6uvr1bmPPvoIcXFxqmzevFkBlqqqqvvuNw9MC5gWMC3wPCxQ3wuUdwOVZhlzNijrAjp/wJq1JlB5Hp+YcdrmQNv17wEVZv3cvXtXPfHQ0BD6+/vV/sWLF3H7tqleO05fBfOxTAuMOQsQqFR0A1XPuRAInesFqvuAyq5n3F8XUNkLVPbpdg3Q9byf6Xm3X24ClTH3eRm3Axpo/z5QGbcPaz6YaQHTAi+VBb4HVDjp3wEqB4HK/u9KlQUEGJMz76nqvR9w1A0ANX0ajFT3Ajw+16OBSf2gvlbWeQdNAC4M6/MELXV3AN5fa7nf6MN6y+s1/bpw3/paVQ9wrqMP527egfU4Kwf0fRcAXAJwGbqvitvDqj7HVmtp8/xd3T/7YPscl7HPcannUud13fv6f04gzwQqL9VH6eUfbHti9sv/EOYTmBYwLTDuLHAfUOkCKoaB+tJaNB06iprGFtSe16Wm6YbyWFQO6XtqG1pR1TWMCgA813AH8AyLwhpHN6xz2Yn1O3Zj804vEJg0DAF5l5rw7YKlWL3NGQdT0xBy/JSa/AkUci5cRWXXMI7lnVUggaCCIIFA4qIFYBRc6cThjDyEZuaj4mYfqizjIKDiGC4lZ+LaShs07wtCc9BBNAccwpXAw6gaAI7kFONAShYOJKdjR9Bh7D4UhrymDlR2DSCv6TqKr3YiKOkEMmobUXS1E6Udt5FZexErt7lgu08Qtu71x7odu7Fp517EFJ5FXf8IoGQClXH3ufhJPVDPxSZULNyCwg+mo85uD4b6TWG3n9QLYD6saYExbgFroEIPSvWVa2jbsg0tuzzRvD8EV3yD0bw/FA25BahpbENzUAguJaajfZM9mv2D0ex/ABdjU5XHYtfhSKx1csfCDZuxarsLbD18FdhIr66H/V5fLN3iAJ/wSCy3c8Ke8ChcGNJejKVbtmNfTAqWbN6GoMQMhGfl4+TldgVy3ILD4B8TBxvnXZi+dBXsvbyRWn0Bl+ov4kJmAerL6hRQadnphfZ1W3A5MgFXtzvjUmwKrnn6qnZWbnfB4k2b8dr7H2LRRjv4REYhPDMXBS3XsNzOAXNWrcXf3/sQk+cuwry16xGeXYjLw4DPsUTkN3di0QY7zLfZhGV2jshvbkXtCO/S8/KumB6VMf7hGS/Du3PzNjL+6S8IE0HplDXA8A+gcI8Xo5jPYVrAtMCYscB9QGUQOH+mEq2uHmj234/moEO4mJyGlr37UN3ehareQZzruImL6SfRdPAoLsUl4/KxJLTGH0dKw0Vs8fBRXojZq9ZhtYMrHP2CcexkCU6db8LRnDw4+e3H1j3+8I5MRDOARgAhGXlwP3AE0QXFWL7VEQeSs3AkuwAnL7civ+k6vp63GC7+/vCNSoJvdDJ8ohKQdeU6bs9ZgKb/v73rfKoq27Pzdf6P+T9mqt58mFfvzZsXOve0tqHNihgIAiJIzjkjIDnnJDnndOEGsqTLJScBFXVNrR9c39W2HbW1VXpTteuce3Y4+yz2qbPqF9ZOzoZhchLDo7PY+OsXmPcLwWx8Cjb+8TVmoxOwEJ2ItrlVhGYWwC0yDndKa2HvE4xbodHIa+uGfveZ3NP/bpqQIPeoBFxyuo0aw7RYXL46fhoJ5XW46OiKM7ZOQlTa50zKovLJrF41kfeGgDG9BGX/+m/YnVIibu8NVDWQQkAh8F4QeIGoMNh1fh5L1+wxHxiBpWt2mElKxqLTbUxnFED78DH0pg2MDOkxUdeG5YtXMdHYgbGHz1AzMoc/fvENjlldxbenzyMkNR3e8SkobO9BZd8gEstrUNTSCq+4ZJyztYdLaCQSyqpRox9DZmOnFGtXTyRVNCCvrRe6nadomJiX9okVDQjPLoZ7dCICUnIw/AwwefmDVpTJ0grojUswufvBGBCGeb9QGEOiYfLwx8LdTNSPzsI5JBqXnN3h4B+G0zaOuObmgztlldBuP8UFRxdE5hbhtI0DAlNycNnZHbXDM0itbcPJK3ZwDAzHWbubOGvnJBafKt2wIirvZeWpQbCzuopN4zy25k0ft5hMWBuZwLBXNB4sLn3cuRAL4zy2l1fUClEIKAQUAoLAC0TlITA8Mosla1tMp+djyc4JU9m5WLjlgcmqJgyPTYvrZ7KiCnPRiUJgRjWjoJhC79KOfPTdouJx8oqtWC08YpKQ1dQjlhO6c2jVYKxHy+gEbofHo6RXJy6jwq5BcbeQqNytbEBuaw8Mu3so6dVL3Epp/wgy6jvww/nLKBsYgXZzR9w9uo09rH/5LXQru5hJSBNLEEnKTFK6kBhjYgZ6FjaR3dKO+JIanLN3FktPUGoW6ofH0W5clTlbObviT199h1PXb+DkVRtkN3djaHMPdj7BuHrbG06B4bju4SP9g9NyJebmQ7l7LMdVrp9D/pIu6vSYamrFTFvHRy+zHV0wDmg++jyIxXRTK0yDQ4f8v68eTyGgEHhTBCyJCrNnGKcyG5OE2di7YllZtrLG+rc/YDozXwJtB58C0znFmCqqhHZrR9wtMwM6ZHcNCUFh8CmDaIPT83D04hU0Tc5haGsP+e19qB+9L4GpV919UaUbx+QzoMO4jva5VbTNrcElLAZ1I7PonF+DZmMLieX1yGrslADdG74hCEzOxK3wWCSX1mKpsBQziekwuXph6OEejKExWLa6DmNoNGbvJGA2PhUrrp5oNa4iJCMfFQM6xBbdwz3tJBLL65Bd34LG8RkkVdbj7r1anLZ1QlBqDlKqG5Df3g/t5mN4xyfBytldXD/Wrl6w8w5ETEGlBPhaEooPda6Iypuu4s+03fLwCGbaOzHX1fNplO7eT2Ies+2dIIlTfwoBhYBCgAi8QFQOsldIVrQPngkxmaxpFuuKduuxkBjDzAomalufpzDr5zcw1diFxqkllPTp0bu8K1aR9Lo2VGjGkNPSi56lBwhOy0ZQaq5YSainwnTgkV1IvV9SBlhIcnwT0uS8qFuL2pFZyQyiFaW4RycBroxV4b0mhqcw3tYvacZMQx7rHMRkZQMmGjolzoZ1U3XtaDdtodO0KZabcs0Yepa2wVTphnGTjM0MI8bK1AzPSMYRz8ee7gvgMY26y7Qlc6wYHENccRUaxo2SRv2hyInluIqoHPJ39JMjKp8IYVJE5ZAvfPV4CoG3ROBlosKUYIqyMT2YacU6QFw7ul1A9wAwPAaoqf1cg2QP0Ozt65FQp4TpxjwyIs+I/fRifnypZcJUYxIU9uW1wa39awsAWJYPjjznvTkHkgr2YV/Oi+SBR92Tf45JssHxx7CfOj34BKDlh0X0Vw5E5sx6Lbw352lJCkYf7wvSWV4za6mQuLCe2i/UVHnvgnW/kN6siMpbLubPrbkiKq+2JCmi8rmtZDVfhcCHRcCSqJBAUPeE2TYdxjVE5JSgcXIB7bOrYlmgC6dyaAIJZbUYWttClW4S9WNGyeBhX7pxqK3StbAFWkQSyuqk/y+l8/J63eicZOMk32tCfEm1WGM4ftP9JbGCUGNFs/4EPYvbMrfuhQeY2IOkDbPdfqmTI/VSqMdiJkKWpONzPFdE5cOu/Y8+uiIqiqh89EWoJqAQ+AwQsCQqFDKrHzUiKCUN1Db5+uRZeMcnSvZOUmUDWqYWcTMoAmfsnJBd37ifJePigdSaesmU+fL4aVxx9ZTYFMaUeN9JQVBKjrhWSBRIIGiVMBMJw86+C6akpw/OIVFg7EpKdTWym7rRvbCK0j4NTljb4qy9E847uOCE9TWcv+GMjtkF9K8+QG5Lt+iuMBU6p6Vb3EMcm9YSWl1olRHry/a+VYYWGlpD2IZWGpIaqtTSWiLWm4Pjy23Yzqysaz5q3/c2AK+wqiii8hm8QL9mim9DVIzdvbAslnEtC739Umd57eVz6fsWrh22f+UYr5nHy+3Nv5/Pu6vn+TOY6151VBaVX7OqVF+FwOFDwJKo8ANNIsEg2TM2jvBPSkFMQZHEjpT0GmDYfSoKr9WGaaTWtCA6vxx37zUiNLMQuq2HQlCOWV2Dg38oHAMjJMMnODVXiArJAa01bM8jf3NPHt6vuHcQtl4B6Jo1IiA5CznNPeIG4rgMZrV2dYdLSBiuuXmCQa2s125toWthDeWaUYlp6V5cQ9vsCobWdxGVW4qrbj6glaZlegVOAWGSmtxhXN53He1AAmMZF1PWN4T6sWn5becdhM75VbEQDW4+kQwhzqdy0IBq/f191V2fIPSvbIlL6UNbaRRROXzv2wtP9CZEZb6nD6befiEN0+2dmDoIvuXHf0NnwJZhBJMtbVjoG8CmfhhrQzrMdHZjqV8jv9mG1yZa2p735Zgss53dIMlhW/M9SBxmOrqkbt6CrJjJBsdhPe/J/paEZrFvAKuD2v156YeljvfhnO+3dcgcJ1v3+/P6q0gKrymi8sIyUT8UAr97BCyJCi0RLffnRHeEqcDh2dkIzcjAuRvOkt5bpZ9EYkU9ygdGcSskRmTwKXuf3zEobhqSA5IU7zup4sbJaupGeGah1DFWpH/1kVhhGHBr3q+H+wFF5pUhMCUb/ompiMgplOyfzrlFjD98JGJttt6BCEvPgLWLF4q6tBjd3UNeWx+C0zKEDP3pq28RlpkthKXp/iIGlleR29aPL378CZr1bXSblkTQjWnQccWlyG8fwJfHTomY29jDRyLyxucITM5GcFoeYvMLJS3670eOIbmqCWOP93D6ugPKB8fgGZMkbRgXo4jK7/71+XUA/H9EZUUzhJqMTNRkZCHezx+2587D/vwFRHt5y0c+KTAIGeGRuHrqNPydnJEZEYmCuHghCx1FJYj19kFSQBDu+Pkj0PkWqtMzhUSwjuNuD49BX9eA1oIiDNc3CnkhceE1t+s2ciSBEbLR1gEnq8vwdXDE9TNn4X3DAQ4XL0FbXfecFLXkF8D+wgUkB4cg0t1T5tiUm48bFy/C3+kmItw9pL/jJSsMVtUIcXkVWVFE5detK9VbIXDYELAkKtx4r3lqAbUjM7gZFImspg7kd3TANSJOMl6mnz6VWBAKodF1Qrn7y7c80Le8iXvaCfxodQ3UQrFydsMVVy9cc/eRTB9m0ojrZweYZzDswaaCPA6s7yG1plnGP2t/E1F5pQjPLpQ9d1qnF0CVW5KmP37xLY5dvopLN29Ds/FE3DoMvqWFxv9uFjQbjyV4l64eEyCEiYq3DL4NzcjC92cuotYwjmr9mMTSVA4ZZN8fG88AROWV44ZvEC44uIDaL/Ujo5IpVD4whNvhcbD3DUFYVhGcgyNEMI6ZSeZn+pBkRVlUDtvb9tLzvI6okCDQCnH+6I84d+SoEJWc6BjkRscgIzwCPWXl8HVwwuUTJ3Hq++8R7+MHb/sbcLl6TSwpJDbBLq64l5qO8rspMNQ3CDEYqq7FlZ9O4fzRo0gNDYOz9RUE3HRGkPMtrAwMCrnY0g8LUalKy8DywCBMPX1CWmzOnkNWZJSQlDv+AXKvzuISscZkR0bD/sJFDNyrFmJkdeIkljVDIFEhsXG9dl3I0i3rq7A7f0ERlZfWgvqpEFAI/DIClkSFrh9m11Br5IKjK6ILCpFYXg4732CRsCcBoEWD5KFcM4KU6mZ8deI0xh4/QffiJsJzihGZWwKKooVnFUlQbkh6vlhU6OrRrO8hu7lHyAl/8yPPLJqW6SXUjc3BKShCrDUdxlUhGEXdOvx0zR7uUYn4x9GT8E9Klo0NO00b4jLiRoMR2UUYWN0SK0fLtEkIBPVYOEfdxpakE/eaFsSFxA0JWyYmJIC3Y35VxOOOXrSGYecpijq7RAeGkv81hmEJEuZmhbS+nLC2gWF7DwVt7Th++ToKOgYw/kRZVH55VamaN0LgdUSFloZ1rR55sXEIuuWKUNfbcLOxgYetrZwbe3qREhKKCz/+CA9bO7FahLu5Y7qjU/olBQbL9czwSGkX4npbCARdRbkxsUI4Yn18cPu6DQx1DYjz8RVCQoJE184Pf/+HtNnUGcSFM93RhXB3D4S6uuG7v/4Nfo5OCL7lKi6l3rIK1GZmozk3H172N2QsupvE5dTcirM/HMGp777HN3/5HznanT8vpMnSbWRpWVEWlTdaPqqRQuB3g4AlUSFxYApvRG6paJgsAag2jMExIBxFPTo0js2BxGP04RNx7cQWViKvvV9k7+tGZ0U9tn9tR0hDlX4KXnF3EVt4T4TdzK4fSuibXT+jDyEuFu66HJKRJy4mWkG4YWG5Ri9zYOxKWGYeXMPjEJ6dL5aagbVtxJfck6ykkd2nGNsDWqZMsmdQrWESN/wCxUUTX1QBaqdw92NaQYbWdkSKv6BDIzs9OwSECWlhH9ZTCG56D2KhYdZSwN0s2ViRmU/3BkfEpUVyNvrow5MU/i+UReWQv4avIyq0YjAGxOr4CZz53x/gZGWNeF8/3A0MRl1Wtrhj6LIpTkiS+iunTqMxJxeG+kYhCAn+AWIpKYi/I2QnxttHCM6j8UmkhoShPDkF6WHhcLexQ09ZhbiJTL19Yo3JjooW9w1dRxLH0jcghISWHN7/+NffiPuJLp6xphYwdoZupXNHjuDPf/hPpASHihuK8Sxjjc2wOXtWxj/+1TeI9/UHXT90J/1SnIoiKod84avHUwi8JQIvExVaVRjsyiwY6qa0z62DKcIkGn2rj6B9BlAysntnX2OFmip9G0/Qt/JI3EHUUKFVhkGyFFob3HwqlhNzoC71VcSaQr2W7f3xKezGwp2Kma7M8875TVApl3EzzN7huCwkUszC6Vp4IJk4FI/j2Ix1oUhdz9KuWFXGARgOCvVV+Fv3CLJjMzN3zGPSNcS5UiuFRwb4cv6sp3uL5xybOi3UheFmimxnLmbL0IdwASmi8paL+XNr/jqiwkBWfsijvLzEspESEiYEZG9yStwz+rp6uF+3xdkjR5EeHiHWkh+//AqRHl7SjvErJBy0dNCFw5gUXU2duHJCb7uBLiCSFz+nm2JRIQna0BrEJcP4k7UhPfJiYoV0PBwdF3IUdttdyM7FY8cRdMtFrCsN2bloLSiEl509PO3sMdzQKPdhjEtlShq6SsvEPUUX1n/9+3/Iue25c+ivuKdiVD63BavmqxD4SAi8TFT4weXH3/zhJUERcbTtfeIy3qHBRG0bJpt7MFnfIefDxg1ReSWhCUvWAAAKNklEQVTJyG/XSJpwYdcQqObKDzljX0hQqHOSXNUs+/hwfBIMxpTQIkJi1L24LYSI7iDel32ZOkxiQdLSOrMiWTwcj/XmOZqPbM8ytAvZm4gqteNNXRhv6cFEfQf0S9ugcN3gxhNoHzzFwPpjSYWm1YXjkZiQDPGerGMcCoNmeb/iHr3sR1TWPyzPyOBbqu6arUPmObzPoyIqH+ml+K1u+zqiQlcIXSexPr4SMBvm5i5BtV3FpXC5chXGrh6UJCSJW4UuH5IPxrKMNDRBV1uPSA9P6b+qGQKDclnoSqpOz0CUpyfaCoqkDQN0GdvCwoBaEgzNvWqJL2E2UISbBypTUoVY0JqSGBCInKgYRHt6445fAGixoZVmoLIKVidOIDMiCrnRsRJbw3601lQkpyInJhaXjh0XS05p4l10lZRJxpGly8d8riwqv9UKVPdRCHweCLyKqLzyY3sQUzLe1I2J2gYs2t3EzN1MTNQ0wDC7KpYKp8AIiQ05bn0Vp20dcMbWCf2rD9G3sga/hGT84c9/hWtQKK64uolLhcSAhUG5tNyEZRaif+WhEAUzEWmYMKF2ZBzxxdVwDAiDb0IKWqYXoKf1gwq0PJJ8HCjR8jdl/Zeu2GLRwQVTeYWYSUrFvH8ojHVtSOvqw0UnF5yxc8AXP57EzaAw2eOnf+UBCjr7EVNYKm4mxsbEFBYiOr9M4m+4KeIVV2/4JaZLzMr3Zy7AMzYJvcs7QmReidkrtFHepp0iKp/HO/TOs3wdUWH8BtOM00LDhEDUZ+UgzsdP4j/o7mEaMMkBSQCzeNoLi+WcAbgD96rQX1n1M4sFU5i7S8uhramTgFySlbrMbCFALfmFMg6DdDk2XT7mgN7GnDzpRysMS19FpdyPGT9thUVYGhjEaGMzSEA4DsctTkiUtiRbTJFmUC7vzXMSJqYy8x5mcmJ5VETlnZeU6qgQOJQIvEBUtg4++pSif7lQTn99D7rlXWh3HsumhSP6KWi3HkG/+ghD248RU1AhZOK8g7MIxnlEJ4o7p2FsBhn1TfCOT4P/nRSJLemcXxHrRcv0Mo5bX4dHzB18d/oCXEJj4BWbhErtGKhCS8Lgn5AgxOaSsxv8EpNRYZiAsbwa8z5BuF9aC+3KA9nN2eQVAL1pFVOFlVg7cgJz4XHgbsokLLPxKZhu6ERScyu4wzMDd6n54hl7B76JaWidmkVadT1OXLHBaRsH/OXbH3DVzRPUVhndfSx6Lel17RKTc9rWUebM5zVbft6GgLxpW0VUDuUr98+Heh1RMX+4+VEnYeCHnh/5Da3+OZEg8SCpWOzXSIowz0lw2J51LxMBc7wJU5BJIGgxoaWFY5NssM9in+aFfnQ/sR3r2E9K34Bc4314b47Ldrw/2/La2qBO5mGeA+fFe5if63VHRVT+uUbUmUJAIfDipoTcjHB4fB6zCWk/K5OVNTBMLWD2TgpmUtKw+af/wbxvCGYSU2Ds6Edejx4/nLPCOXtnIQB+CSmia5JV14TKnkH4JaYisbAYAcnZuOjkhopBPbpMy0goq5Hsm4H1bVHAbZpcRO/yA+i299B8f1ECbH0TkmXn49SaVkTmlKB7cQsjM/MYa9dg7fsjmAuNxkxCOu6X1MDk4Ye5mLtY/emskBNjYDiWra5h9k4qphu7UNCvweVbnrgdESeZTBSQC8/Kx+D6lkj+X3S6LYG1Z2wdRcjOwT8M958+E8LEFGdrFw8Rgjt5xVY0ZczKt29KPt6mnSIqh/wNfROi8roP+mGtU0TlkC989XgKgbdE4AWLCmM8Vh5iZGT2Z8Vwfwla6p4wZmNmGQu3PDHWo9v//RRi/fji2E+44OiMr0+egVtEtOiU5Lb2on9pDWX9OkRl5+OCowvSyitw9bY3QjMKYdh5gvDsIrhHJz63qPgnpYPZQ9WGKdCKwX1/UqpbQBJBwTkGwPYzsDUuGcawGJjcfGTX5OHROSElw+MmLDrcEtJiDIrEvF8olq7ZYbKtH8mNTQjLyhMlXBIPex+mXheidXoOWY1dMr9bIdEiEOdzJ0XcQJN7z0SQjrs72/sEwTk4DNfcvWQ7gdbp5Z9tcPg2ZOR1bRVRecvF/Lk1V0RF7fXzua1ZNV+FwMdA4AWiwpgKBqNyT5yXipY7EO8B+rkFzAeEwzA9j6m8Uow390h2TcO4SbRKPGPvysecGxpyv5/GCaPEnKTXt6Ogo1esJqFp2eImGtp8hPFn+wGrzMoJyywA99BhQCsDWRl8m1bbKrosoRkFOHHFDnlt/Sgfn4ExvxQrZy9hcHsHc2Gx4oq6X1QFk6c/9MYNLF21gzE4EtNZOZiNiZU2U7VtaF1aQWxRBWIKKsG5xhVXIbWmCfoHjxCRU4Szdg6yx9Ef/vtvOGtnJ7L5PaYlZDV1gQq41Je55u4NB/9g2HoFyh5HDL59HeF41zpFVD7GG/Eb3lMRFUVUfsPlpm6lEPhsEfgZUfmFANChR8CIbhzzgREYHpuW4FXdxg5mkrNgrGtGVvsAbLz8RV/FOThKrCm0muS2dKFvhbonFYjMLYZ3XDISK+okAJW7IDNLiBoqwel5Ehvil5iB0Ix8VGgMYk2pG50GY13coxLQOHIfl1w8kNHciw0ff9CtM5WVL8G8ZsuJ3rgCWn9Mt72xaOeEqZwcTOXli4Xlfm0bEps7UNpvkAyj6IJyjD16JtsDVGhGMbD6AAPrO6K9EpKRL3sedZm2MLi5J+nS97Rj4hYiwaEL64ZfCPpWHrwyA+ldyYllP0VUPtvX6s0mroiKIipvtlJUK4XA7xuBNyUqdPvo5zehY+As04UPAm9JYPQzq/vE40BDpWN+Q1xBtJa0zqyKLgv3B6rWT+1rkhzsoEwdleapJVGjlXrDlJAEnjMVmWnETE3mkdopVIOlvgp/M9iXWT9i6Xm4n/3DzJ+hx4Bu4wl0SzsS/Mv5sWi3nkG7/hjDB+nOQ5tPZe8hpmIz80iCYnf2U5FJFijTL2nQu/vWEp6zHa9zw8IO4zoYCMzrluTifZ4ronLI301FVBRROeRLXD2eQuC9IPDGRIWWFmqXvKxfcqBbYvmBpiYKg0x5jR9yaptQqG1flO3FDzvrpY71FsXcj2OYSYSMRyG6g1Rpy3u+cG6ek+VcX547Becs6y0sSRz/l+p4nYXPKPoyFv1emMN7uK6IyntZ4p/uIEt6A6a5CzF3K1blOQYz3A16SPvp/uPUzBQCCoHfFIFhBshuAYOqfHIY9G8Cq3vvvhz+5d27qp6/BQJr96dg0gxicUinigUGC5pBrI5TDFr9KQQUAgoBYOrhforyGF0gqnxSGIxsA5tP3n2VKqLy7tipngoBhYBCQCGgEFAIfGAEFFH5wACr4RUCCgGFgEJAIaAQeHcEFFF5d+xUT4WAQkAhoBBQCCgEPjACiqh8YIDV8AoBhYBCQCGgEFAIvDsCiqi8O3aqp0JAIaAQUAgoBBQCHxgBRVQ+MMBqeIWAQkAhoBBQCCgE3h2B/wNIOKgXmJ6NqgAAAABJRU5ErkJggg==;" vertex="1" parent="1">
          <mxGeometry x="-450" y="1720" width="1358.19" height="760" as="geometry" />
        </mxCell>
        <mxCell id="zN3dS1CjCpttCag88YV--14" style="edgeStyle=orthogonalEdgeStyle;rounded=0;orthogonalLoop=1;jettySize=auto;html=1;entryX=0;entryY=0.5;entryDx=0;entryDy=0;fontSize=17;" edge="1" parent="1" source="zN3dS1CjCpttCag88YV--3" target="zN3dS1CjCpttCag88YV--13">
          <mxGeometry relative="1" as="geometry" />
        </mxCell>
        <mxCell id="zN3dS1CjCpttCag88YV--17" style="edgeStyle=orthogonalEdgeStyle;rounded=0;orthogonalLoop=1;jettySize=auto;html=1;entryX=0.5;entryY=0;entryDx=0;entryDy=0;fontSize=17;" edge="1" parent="1" source="zN3dS1CjCpttCag88YV--3" target="zN3dS1CjCpttCag88YV--16">
          <mxGeometry relative="1" as="geometry" />
        </mxCell>
        <mxCell id="zN3dS1CjCpttCag88YV--3" value="判断信用卡状态&lt;br&gt;是否正常" style="rhombus;whiteSpace=wrap;html=1;fontSize=17;" vertex="1" parent="1">
          <mxGeometry x="50" y="340" width="210" height="80" as="geometry" />
        </mxCell>
        <mxCell id="zN3dS1CjCpttCag88YV--8" style="edgeStyle=orthogonalEdgeStyle;rounded=0;orthogonalLoop=1;jettySize=auto;html=1;entryX=0.5;entryY=0;entryDx=0;entryDy=0;fontSize=17;" edge="1" parent="1" source="zN3dS1CjCpttCag88YV--4" target="zN3dS1CjCpttCag88YV--3">
          <mxGeometry relative="1" as="geometry" />
        </mxCell>
        <mxCell id="zN3dS1CjCpttCag88YV--12" style="edgeStyle=orthogonalEdgeStyle;rounded=0;orthogonalLoop=1;jettySize=auto;html=1;entryX=0;entryY=0.5;entryDx=0;entryDy=0;fontSize=17;" edge="1" parent="1" source="zN3dS1CjCpttCag88YV--4" target="zN3dS1CjCpttCag88YV--11">
          <mxGeometry relative="1" as="geometry" />
        </mxCell>
        <mxCell id="zN3dS1CjCpttCag88YV--4" value="判断是否开通乘车码" style="rhombus;whiteSpace=wrap;html=1;fontSize=17;" vertex="1" parent="1">
          <mxGeometry x="50" y="200" width="210" height="80" as="geometry" />
        </mxCell>
        <mxCell id="zN3dS1CjCpttCag88YV--7" style="edgeStyle=orthogonalEdgeStyle;rounded=0;orthogonalLoop=1;jettySize=auto;html=1;entryX=0.5;entryY=0;entryDx=0;entryDy=0;fontSize=17;" edge="1" parent="1" source="zN3dS1CjCpttCag88YV--6" target="zN3dS1CjCpttCag88YV--4">
          <mxGeometry relative="1" as="geometry" />
        </mxCell>
        <mxCell id="zN3dS1CjCpttCag88YV--10" style="edgeStyle=orthogonalEdgeStyle;rounded=0;orthogonalLoop=1;jettySize=auto;html=1;entryX=0;entryY=0.5;entryDx=0;entryDy=0;fontSize=17;" edge="1" parent="1" source="zN3dS1CjCpttCag88YV--6" target="zN3dS1CjCpttCag88YV--9">
          <mxGeometry relative="1" as="geometry" />
        </mxCell>
        <mxCell id="zN3dS1CjCpttCag88YV--6" value="判断是否有信用卡" style="rhombus;whiteSpace=wrap;html=1;fontSize=17;fillColor=#f8cecc;strokeColor=#b85450;" vertex="1" parent="1">
          <mxGeometry x="50" y="70" width="210" height="80" as="geometry" />
        </mxCell>
        <mxCell id="zN3dS1CjCpttCag88YV--9" value="一键绑卡" style="rounded=1;whiteSpace=wrap;html=1;fontSize=17;" vertex="1" parent="1">
          <mxGeometry x="340" y="80" width="120" height="60" as="geometry" />
        </mxCell>
        <mxCell id="zN3dS1CjCpttCag88YV--11" value="开通流程" style="rounded=1;whiteSpace=wrap;html=1;fontSize=17;" vertex="1" parent="1">
          <mxGeometry x="340" y="210" width="120" height="60" as="geometry" />
        </mxCell>
        <mxCell id="zN3dS1CjCpttCag88YV--13" value="更改预设付款码" style="rounded=1;whiteSpace=wrap;html=1;fontSize=17;" vertex="1" parent="1">
          <mxGeometry x="340" y="350" width="120" height="60" as="geometry" />
        </mxCell>
        <mxCell id="zN3dS1CjCpttCag88YV--20" value="YES" style="edgeStyle=orthogonalEdgeStyle;rounded=0;orthogonalLoop=1;jettySize=auto;html=1;entryX=0.5;entryY=0;entryDx=0;entryDy=0;fontSize=17;" edge="1" parent="1" source="zN3dS1CjCpttCag88YV--16" target="zN3dS1CjCpttCag88YV--18">
          <mxGeometry relative="1" as="geometry" />
        </mxCell>
        <mxCell id="zN3dS1CjCpttCag88YV--24" value="NO" style="edgeStyle=orthogonalEdgeStyle;rounded=0;orthogonalLoop=1;jettySize=auto;html=1;fontSize=17;" edge="1" parent="1" source="zN3dS1CjCpttCag88YV--16" target="zN3dS1CjCpttCag88YV--23">
          <mxGeometry relative="1" as="geometry" />
        </mxCell>
        <mxCell id="zN3dS1CjCpttCag88YV--16" value="是否有库存offline码" style="rhombus;whiteSpace=wrap;html=1;fontSize=17;fillColor=#d5e8d4;strokeColor=#82b366;" vertex="1" parent="1">
          <mxGeometry x="50" y="460" width="210" height="80" as="geometry" />
        </mxCell>
        <mxCell id="zN3dS1CjCpttCag88YV--21" value="YES" style="edgeStyle=orthogonalEdgeStyle;rounded=0;orthogonalLoop=1;jettySize=auto;html=1;entryX=0.5;entryY=0;entryDx=0;entryDy=0;fontSize=17;" edge="1" parent="1" source="zN3dS1CjCpttCag88YV--18" target="zN3dS1CjCpttCag88YV--19">
          <mxGeometry relative="1" as="geometry" />
        </mxCell>
        <mxCell id="zN3dS1CjCpttCag88YV--30" value="NO" style="edgeStyle=orthogonalEdgeStyle;rounded=0;orthogonalLoop=1;jettySize=auto;html=1;fontSize=17;" edge="1" parent="1" source="zN3dS1CjCpttCag88YV--18" target="zN3dS1CjCpttCag88YV--29">
          <mxGeometry relative="1" as="geometry" />
        </mxCell>
        <mxCell id="zN3dS1CjCpttCag88YV--18" value="是否online？" style="rhombus;whiteSpace=wrap;html=1;fontSize=17;fillColor=#dae8fc;strokeColor=#6c8ebf;" vertex="1" parent="1">
          <mxGeometry x="50" y="590" width="210" height="80" as="geometry" />
        </mxCell>
        <mxCell id="zN3dS1CjCpttCag88YV--31" value="YES" style="edgeStyle=orthogonalEdgeStyle;rounded=0;orthogonalLoop=1;jettySize=auto;html=1;entryX=0.5;entryY=0;entryDx=0;entryDy=0;fontSize=17;" edge="1" parent="1" source="zN3dS1CjCpttCag88YV--19" target="zN3dS1CjCpttCag88YV--26">
          <mxGeometry relative="1" as="geometry" />
        </mxCell>
        <mxCell id="zN3dS1CjCpttCag88YV--40" value="NO" style="edgeStyle=orthogonalEdgeStyle;rounded=0;orthogonalLoop=1;jettySize=auto;html=1;fontSize=17;" edge="1" parent="1" source="zN3dS1CjCpttCag88YV--19" target="zN3dS1CjCpttCag88YV--32">
          <mxGeometry relative="1" as="geometry" />
        </mxCell>
        <mxCell id="zN3dS1CjCpttCag88YV--49" style="edgeStyle=orthogonalEdgeStyle;rounded=0;orthogonalLoop=1;jettySize=auto;html=1;entryX=0;entryY=0.5;entryDx=0;entryDy=0;dashed=1;fontSize=17;" edge="1" parent="1" source="zN3dS1CjCpttCag88YV--19" target="zN3dS1CjCpttCag88YV--48">
          <mxGeometry relative="1" as="geometry" />
        </mxCell>
        <mxCell id="zN3dS1CjCpttCag88YV--19" value="信用卡状态检查通过？" style="rhombus;whiteSpace=wrap;html=1;fontSize=17;fillColor=#f8cecc;strokeColor=#b85450;" vertex="1" parent="1">
          <mxGeometry x="190" y="730" width="210" height="80" as="geometry" />
        </mxCell>
        <mxCell id="zN3dS1CjCpttCag88YV--22" value="告警需要online" style="rounded=1;whiteSpace=wrap;html=1;fontSize=17;" vertex="1" parent="1">
          <mxGeometry x="620" y="470" width="120" height="60" as="geometry" />
        </mxCell>
        <mxCell id="zN3dS1CjCpttCag88YV--25" value="NO" style="edgeStyle=orthogonalEdgeStyle;rounded=0;orthogonalLoop=1;jettySize=auto;html=1;entryX=0;entryY=0.5;entryDx=0;entryDy=0;fontSize=17;" edge="1" parent="1" source="zN3dS1CjCpttCag88YV--23" target="zN3dS1CjCpttCag88YV--22">
          <mxGeometry relative="1" as="geometry" />
        </mxCell>
        <mxCell id="zN3dS1CjCpttCag88YV--27" style="edgeStyle=orthogonalEdgeStyle;rounded=0;orthogonalLoop=1;jettySize=auto;html=1;entryX=0.5;entryY=0;entryDx=0;entryDy=0;fontSize=17;" edge="1" parent="1" source="zN3dS1CjCpttCag88YV--23" target="zN3dS1CjCpttCag88YV--19">
          <mxGeometry relative="1" as="geometry">
            <Array as="points">
              <mxPoint x="445" y="700" />
              <mxPoint x="295" y="700" />
            </Array>
          </mxGeometry>
        </mxCell>
        <mxCell id="zN3dS1CjCpttCag88YV--28" value="YES" style="edgeLabel;html=1;align=center;verticalAlign=middle;resizable=0;points=[];fontSize=17;" vertex="1" connectable="0" parent="zN3dS1CjCpttCag88YV--27">
          <mxGeometry x="-0.6384" y="3" relative="1" as="geometry">
            <mxPoint as="offset" />
          </mxGeometry>
        </mxCell>
        <mxCell id="zN3dS1CjCpttCag88YV--23" value="是否online？" style="rhombus;whiteSpace=wrap;html=1;fontSize=17;fillColor=#dae8fc;strokeColor=#6c8ebf;" vertex="1" parent="1">
          <mxGeometry x="340" y="460" width="210" height="80" as="geometry" />
        </mxCell>
        <mxCell id="zN3dS1CjCpttCag88YV--35" value="YES" style="edgeStyle=orthogonalEdgeStyle;rounded=0;orthogonalLoop=1;jettySize=auto;html=1;entryX=0.5;entryY=0;entryDx=0;entryDy=0;fontSize=17;" edge="1" parent="1" source="zN3dS1CjCpttCag88YV--26" target="zN3dS1CjCpttCag88YV--34">
          <mxGeometry relative="1" as="geometry" />
        </mxCell>
        <mxCell id="zN3dS1CjCpttCag88YV--37" style="edgeStyle=orthogonalEdgeStyle;rounded=0;orthogonalLoop=1;jettySize=auto;html=1;entryX=0.44;entryY=-0.025;entryDx=0;entryDy=0;entryPerimeter=0;fontSize=17;" edge="1" parent="1" source="zN3dS1CjCpttCag88YV--26" target="zN3dS1CjCpttCag88YV--36">
          <mxGeometry relative="1" as="geometry">
            <Array as="points">
              <mxPoint x="112" y="890" />
            </Array>
          </mxGeometry>
        </mxCell>
        <mxCell id="zN3dS1CjCpttCag88YV--26" value="是否当天首次生成码？" style="rhombus;whiteSpace=wrap;html=1;fontSize=17;" vertex="1" parent="1">
          <mxGeometry x="190" y="850" width="210" height="80" as="geometry" />
        </mxCell>
        <mxCell id="zN3dS1CjCpttCag88YV--29" value="使用库存offline码" style="rounded=1;whiteSpace=wrap;html=1;fontSize=17;fillColor=#d5e8d4;strokeColor=#82b366;" vertex="1" parent="1">
          <mxGeometry x="-160" y="1180" width="140" height="60" as="geometry" />
        </mxCell>
        <mxCell id="zN3dS1CjCpttCag88YV--41" style="edgeStyle=orthogonalEdgeStyle;rounded=0;orthogonalLoop=1;jettySize=auto;html=1;entryX=0.5;entryY=0;entryDx=0;entryDy=0;fontSize=17;" edge="1" parent="1" source="zN3dS1CjCpttCag88YV--32" target="zN3dS1CjCpttCag88YV--33">
          <mxGeometry relative="1" as="geometry" />
        </mxCell>
        <mxCell id="zN3dS1CjCpttCag88YV--32" value="暂停使用" style="rounded=1;whiteSpace=wrap;html=1;fontSize=17;" vertex="1" parent="1">
          <mxGeometry x="610" y="740" width="120" height="60" as="geometry" />
        </mxCell>
        <mxCell id="zN3dS1CjCpttCag88YV--33" value="删除库存online码" style="rounded=1;whiteSpace=wrap;html=1;fontSize=17;" vertex="1" parent="1">
          <mxGeometry x="610" y="860" width="120" height="60" as="geometry" />
        </mxCell>
        <mxCell id="zN3dS1CjCpttCag88YV--43" style="edgeStyle=orthogonalEdgeStyle;rounded=0;orthogonalLoop=1;jettySize=auto;html=1;entryX=0.5;entryY=0;entryDx=0;entryDy=0;fontSize=17;" edge="1" parent="1" source="zN3dS1CjCpttCag88YV--34" target="zN3dS1CjCpttCag88YV--42">
          <mxGeometry relative="1" as="geometry" />
        </mxCell>
        <mxCell id="zN3dS1CjCpttCag88YV--34" value="生成online码+offline码（5个）" style="rounded=1;whiteSpace=wrap;html=1;fontSize=17;" vertex="1" parent="1">
          <mxGeometry x="225" y="1070" width="140" height="60" as="geometry" />
        </mxCell>
        <mxCell id="zN3dS1CjCpttCag88YV--39" style="edgeStyle=orthogonalEdgeStyle;rounded=0;orthogonalLoop=1;jettySize=auto;html=1;entryX=0;entryY=0.5;entryDx=0;entryDy=0;fontSize=17;" edge="1" parent="1" source="zN3dS1CjCpttCag88YV--36" target="zN3dS1CjCpttCag88YV--34">
          <mxGeometry relative="1" as="geometry">
            <Array as="points">
              <mxPoint x="110" y="1100" />
            </Array>
          </mxGeometry>
        </mxCell>
        <mxCell id="zN3dS1CjCpttCag88YV--36" value="验密" style="rounded=1;whiteSpace=wrap;html=1;fontSize=17;" vertex="1" parent="1">
          <mxGeometry x="50" y="970" width="140" height="60" as="geometry" />
        </mxCell>
        <mxCell id="zN3dS1CjCpttCag88YV--38" value="NO" style="text;html=1;align=center;verticalAlign=middle;resizable=0;points=[];autosize=1;strokeColor=none;fontSize=17;" vertex="1" parent="1">
          <mxGeometry x="90" y="905" width="40" height="30" as="geometry" />
        </mxCell>
        <mxCell id="zN3dS1CjCpttCag88YV--42" value="使用online码" style="rounded=1;whiteSpace=wrap;html=1;fontSize=17;fillColor=#d5e8d4;strokeColor=#82b366;" vertex="1" parent="1">
          <mxGeometry x="225" y="1180" width="140" height="60" as="geometry" />
        </mxCell>
        <mxCell id="zN3dS1CjCpttCag88YV--47" style="edgeStyle=orthogonalEdgeStyle;rounded=0;orthogonalLoop=1;jettySize=auto;html=1;entryX=0;entryY=0.5;entryDx=0;entryDy=0;fontSize=17;dashed=1;" edge="1" parent="1" source="zN3dS1CjCpttCag88YV--45" target="zN3dS1CjCpttCag88YV--6">
          <mxGeometry relative="1" as="geometry">
            <Array as="points">
              <mxPoint x="-330" y="110" />
            </Array>
          </mxGeometry>
        </mxCell>
        <mxCell id="zN3dS1CjCpttCag88YV--45" value="5个offline码用完了怎么办" style="shape=note;whiteSpace=wrap;html=1;backgroundOutline=1;darkOpacity=0.05;fontSize=17;fillColor=#e1d5e7;strokeColor=#9673a6;" vertex="1" parent="1">
          <mxGeometry x="-380" y="1169" width="140" height="100" as="geometry" />
        </mxCell>
        <mxCell id="zN3dS1CjCpttCag88YV--46" value="&lt;span&gt;下方要求online判断以支援生成码，但是进入的时候就要做判断，必须online&lt;/span&gt;" style="shape=note;whiteSpace=wrap;html=1;backgroundOutline=1;darkOpacity=0.05;fontSize=17;align=left;fillColor=#dae8fc;strokeColor=#6c8ebf;" vertex="1" parent="1">
          <mxGeometry x="-260" y="50" width="260" height="100" as="geometry" />
        </mxCell>
        <mxCell id="zN3dS1CjCpttCag88YV--50" style="edgeStyle=orthogonalEdgeStyle;rounded=0;orthogonalLoop=1;jettySize=auto;html=1;entryX=0.5;entryY=0;entryDx=0;entryDy=0;dashed=1;fontSize=17;strokeColor=#FF0000;" edge="1" parent="1" source="zN3dS1CjCpttCag88YV--48" target="zN3dS1CjCpttCag88YV--6">
          <mxGeometry relative="1" as="geometry">
            <Array as="points">
              <mxPoint x="850" y="660" />
              <mxPoint x="850" y="50" />
              <mxPoint x="155" y="50" />
            </Array>
          </mxGeometry>
        </mxCell>
        <mxCell id="zN3dS1CjCpttCag88YV--48" value="是否有绑定信用卡" style="rhombus;whiteSpace=wrap;html=1;fontSize=17;fillColor=#d0cee2;strokeColor=#56517e;" vertex="1" parent="1">
          <mxGeometry x="575" y="620" width="210" height="80" as="geometry" />
        </mxCell>
      </root>
    </mxGraphModel>
  </diagram>
</mxfile>
